<svg width="86" height="16" viewBox="0 0 86 16" fill="none" xmlns="http://www.w3.org/2000/svg">
<path d="M72.7297 7.19695C66.0836 7.19695 59.3946 6.93883 52.7755 6.73937C45.7502 6.52757 38.7419 6.89303 31.7317 6.91108C24.3149 6.93018 16.9246 7.19118 9.49892 7.21033C7.85817 7.2146 -4.34879 7.49072 1.64199 5.50386C3.46434 4.89948 7.44269 5.2559 9.49892 5.13321C12.1714 4.97373 15.2366 5.26697 17.9167 5.13321C25.0917 4.77513 32.8458 5.02292 40.0682 5.05914C47.4681 5.09629 54.5325 5.21851 61.9073 5.50386C63.8759 5.57999 79.1235 6.14959 80.1497 5.50386C80.3651 5.36842 71.1412 2.19525 71.0378 1.71293C70.5896 -0.378107 74.2357 0.719317 76.0993 1.43207C78.7589 2.44927 82.1311 3.8812 84.4347 5.13321C86.4515 6.22931 86.5644 6.92366 84.511 8.1188C82.2849 9.41448 79.4608 10.4282 77.0847 11.6407C75.6238 12.3862 71.4176 15.5537 69.7579 15.4993C64.2736 15.3196 80.1746 8.06152 81.4528 7.21033C79.9863 6.92925 74.271 7.19695 72.7297 7.19695Z" fill="white"/>
</svg>
