<svg width="191" height="152" viewBox="0 0 191 152" fill="none" xmlns="http://www.w3.org/2000/svg">
<path d="M5.94836 1.90815C6.48217 0.524675 8.03643 -0.164113 9.4199 0.369696C10.8034 0.903504 11.4922 2.45777 10.9584 3.84124L5.94836 1.90815ZM86.7646 104.716L88.4729 106.787L86.7646 104.716ZM189.022 124.291C190.356 124.938 190.913 126.545 190.266 127.879L179.716 149.619C179.068 150.953 177.462 151.51 176.128 150.862C174.794 150.215 174.237 148.609 174.885 147.275L184.262 127.95L164.938 118.572C163.603 117.925 163.047 116.318 163.694 114.984C164.342 113.65 165.948 113.093 167.282 113.741L189.022 124.291ZM10.9584 3.84124C0.0511028 32.1096 6.99436 66.8589 22.7693 89.5084C30.6391 100.808 40.5185 108.823 51.144 111.673C61.6328 114.487 73.2522 112.379 85.0562 102.644L88.4729 106.787C75.4967 117.489 62.1178 120.177 49.7528 116.86C37.5246 113.58 26.6949 104.541 18.3627 92.5775C1.7336 68.7015 -5.6985 32.0933 5.94836 1.90815L10.9584 3.84124ZM85.0562 102.644C94.0533 95.2241 93.1507 82.4389 86.6947 73.1985C83.521 68.6559 79.2243 65.3717 74.6746 64.2676C70.2548 63.195 65.2741 64.093 60.2977 68.5225L56.7274 64.5113C62.9233 58.9963 69.6862 57.5312 75.941 59.0491C82.0658 60.5354 87.3746 64.7954 91.0967 70.1229C98.4326 80.6227 100.484 96.8814 88.4729 106.787L85.0562 102.644ZM60.2977 68.5225C49.8601 77.8131 47.5791 88.2622 50.1587 98.1836C52.7938 108.318 60.6004 118.206 70.9353 125.685L67.7871 130.035C56.7953 122.081 48.0052 111.241 44.9615 99.5349C41.8624 87.6155 44.8204 75.1098 56.7274 64.5113L60.2977 68.5225ZM70.9353 125.685C80.9203 132.911 97.6501 136.834 118.275 136.733C138.802 136.632 162.8 132.546 186.971 124.169L188.729 129.243C164.061 137.792 139.478 141.999 118.302 142.103C97.224 142.206 79.1288 138.243 67.7871 130.035L70.9353 125.685Z" fill="#1D1E22"/>
</svg>
