<svg id="visual" viewBox="0 0 900 600" width="900" height="600" xmlns="http://www.w3.org/2000/svg" xmlns:xlink="http://www.w3.org/1999/xlink" version="1.1"><rect x="0" y="0" width="900" height="600" fill="#edeeef"></rect><defs><linearGradient id="grad1_0" x1="33.3%" y1="0%" x2="100%" y2="100%"><stop offset="20%" stop-color="#f8f8f9" stop-opacity="1"></stop><stop offset="80%" stop-color="#f8f8f9" stop-opacity="1"></stop></linearGradient></defs><defs><linearGradient id="grad1_1" x1="33.3%" y1="0%" x2="100%" y2="100%"><stop offset="20%" stop-color="#f8f8f9" stop-opacity="1"></stop><stop offset="80%" stop-color="#edeeef" stop-opacity="1"></stop></linearGradient></defs><defs><linearGradient id="grad2_0" x1="0%" y1="0%" x2="66.7%" y2="100%"><stop offset="20%" stop-color="#f8f8f9" stop-opacity="1"></stop><stop offset="80%" stop-color="#f8f8f9" stop-opacity="1"></stop></linearGradient></defs><defs><linearGradient id="grad2_1" x1="0%" y1="0%" x2="66.7%" y2="100%"><stop offset="20%" stop-color="#edeeef" stop-opacity="1"></stop><stop offset="80%" stop-color="#f8f8f9" stop-opacity="1"></stop></linearGradient></defs><g transform="translate(900, 0)"><path d="M0 486.7C-54.2 443.9 -108.5 401 -151.9 366.8C-195.4 332.6 -228 307 -282.1 282.1C-336.3 257.3 -412 233.2 -449.7 186.3C-487.4 139.4 -487.1 69.7 -486.7 0L0 0Z" fill="#f3f3f4"></path><path d="M0 243.4C-27.1 221.9 -54.2 200.5 -76 183.4C-97.7 166.3 -114 153.5 -141.1 141.1C-168.1 128.6 -206 116.6 -224.8 93.1C-243.7 69.7 -243.5 34.8 -243.4 0L0 0Z" fill="#f8f8f9"></path></g><g transform="translate(0, 600)"><path d="M0 -486.7C55.2 -449.2 110.4 -411.6 157.7 -380.6C204.9 -349.7 244.3 -325.3 297 -297C349.7 -268.7 415.8 -236.4 449.7 -186.3C483.6 -136.1 485.2 -68.1 486.7 0L0 0Z" fill="#f3f3f4"></path><path d="M0 -243.4C27.6 -224.6 55.2 -205.8 78.8 -190.3C102.5 -174.8 122.1 -162.6 148.5 -148.5C174.9 -134.3 207.9 -118.2 224.8 -93.1C241.8 -68.1 242.6 -34 243.4 0L0 0Z" fill="#f8f8f9"></path></g></svg>