<svg width="7" height="437" viewBox="0 0 7 437" fill="none" xmlns="http://www.w3.org/2000/svg">
<path d="M4.04175 0.0326261C3.92165 2.25291 3.88276 4.28949 3.84034 6.51122C3.79791 8.73299 3.68135 10.7681 3.56125 12.9884C3.31399 17.7992 2.99258 22.4234 2.74531 27.2342C2.26139 36.3004 1.77393 45.5517 1.52302 54.6223C1.20858 62.9509 0.968278 71.4661 0.809184 79.7976C0.766759 82.0194 0.724335 84.2411 0.685445 86.2777C0.604025 94.6108 0.444932 102.942 0.363512 111.275C0.225314 130.72 0.08358 150.35 0.100728 169.798C0.124947 188.875 0.149166 207.952 0.254593 226.846C0.310842 236.108 0.363556 245.555 0.419804 254.816C0.613723 265.007 0.652295 275.194 0.772075 285.198C1.07163 306.133 1.29705 326.881 1.59661 347.816C1.87152 365.972 2.38299 383.947 3.12748 401.927C3.68502 413.421 4.31669 425.101 4.9519 436.597C5.59128 423.459 6.00117 410.131 6.33339 396.802C6.49956 388.101 6.58805 379.397 6.673 370.879C6.70139 365.323 6.65211 359.766 6.60636 354.023C6.59586 350.504 6.50415 347.169 6.41244 343.833C6.19731 334.754 6.06339 325.49 5.84826 316.411C5.66141 305.85 5.39336 295.473 5.20651 284.912C5.0232 274.166 4.84342 263.235 4.66011 252.49C4.53326 242.856 4.40994 233.037 4.28663 223.219C4.15624 213.771 4.10706 204.138 4.05435 194.692C4.00517 185.06 3.95246 175.613 3.90328 165.981C3.85763 156.164 3.9638 146.535 3.99583 136.719C4.02454 118.939 4.28626 101.164 4.55153 83.2029C4.74244 73.2051 4.77447 63.3894 4.81003 53.3886C4.84206 43.573 4.87409 33.7573 4.82492 24.1253C4.82149 20.2357 4.82159 16.161 4.74049 12.27C4.69817 10.4171 4.65939 8.37901 4.53939 6.52457C4.41587 4.85531 4.21467 3.18454 4.16881 1.51677C4.10175 0.959844 4.03114 0.588067 4.04175 0.0326261Z" fill="#F2F2F7"/>
</svg>
