<svg width="671" height="484" viewBox="0 0 671 484" fill="none" xmlns="http://www.w3.org/2000/svg">
<path d="M105.583 483C48.1455 483 1.58301 436.438 1.58301 379L1.58301 105.582C1.58301 48.144 48.1454 1.58155 105.583 1.58155L566.259 1.58155C623.697 1.58155 670.259 48.1439 670.259 105.582V379C670.259 436.438 623.697 483 566.259 483L105.583 483Z" fill="url(#paint0_angular_2193_3696)"/>
<path d="M24.1162 480.47C13.0705 480.47 4.11621 471.515 4.11621 460.47L4.11621 24.1122C4.11621 13.0665 13.0705 4.11218 24.1162 4.11218L647.727 4.11218C658.773 4.11218 667.727 13.0665 667.727 24.1122V460.47C667.727 471.515 658.773 480.47 647.727 480.47L24.1162 480.47Z" fill="#0B0B0B"/>
<path d="M2.61621 24.1122L2.61621 460.47C2.61621 472.344 12.2421 481.97 24.1162 481.97L647.727 481.97C659.601 481.97 669.227 472.344 669.227 460.47V24.1122C669.227 12.2381 659.601 2.61218 647.727 2.61218L24.1162 2.61218C12.2421 2.61218 2.61621 12.2381 2.61621 24.1122Z" stroke="#4F5962" stroke-opacity="0.4" stroke-width="3"/>
<path d="M27.4443 49.4165L27.4443 435.165C27.4443 447.315 37.2941 457.165 49.4443 457.165L622.398 457.165C634.548 457.165 644.398 447.315 644.398 435.165V49.4165C644.398 37.2662 634.548 27.4165 622.398 27.4165L49.4443 27.4165C37.2941 27.4165 27.4443 37.2663 27.4443 49.4165Z" fill="#7F7F7F" fill-opacity="0.5" style="mix-blend-mode:luminosity"/>
<path d="M27.4443 49.4165L27.4443 435.165C27.4443 447.315 37.2941 457.165 49.4443 457.165L622.398 457.165C634.548 457.165 644.398 447.315 644.398 435.165V49.4165C644.398 37.2662 634.548 27.4165 622.398 27.4165L49.4443 27.4165C37.2941 27.4165 27.4443 37.2663 27.4443 49.4165Z" fill="#3D3D3D" style="mix-blend-mode:overlay"/>
<path d="M27.4443 49.4165L27.4443 435.165C27.4443 447.315 37.2941 457.165 49.4443 457.165L622.398 457.165C634.548 457.165 644.398 447.315 644.398 435.165V49.4165C644.398 37.2662 634.548 27.4165 622.398 27.4165L49.4443 27.4165C37.2941 27.4165 27.4443 37.2663 27.4443 49.4165Z" stroke="#121212" stroke-width="4"/>
<mask id="mask0_2193_3696" style="mask-type:alpha" maskUnits="userSpaceOnUse" x="29" y="29" width="614" height="427">
<path d="M49.4443 455.165C38.3986 455.165 29.4443 446.211 29.4443 435.165L29.4443 49.4165C29.4443 38.3708 38.3986 29.4165 49.4443 29.4165L622.398 29.4165C633.443 29.4165 642.398 38.3708 642.398 49.4165V435.165C642.398 446.211 633.443 455.165 622.398 455.165L49.4443 455.165Z" fill="#7F7F7F" fill-opacity="0.5"/>
<path d="M49.4443 455.165C38.3986 455.165 29.4443 446.211 29.4443 435.165L29.4443 49.4165C29.4443 38.3708 38.3986 29.4165 49.4443 29.4165L622.398 29.4165C633.443 29.4165 642.398 38.3708 642.398 49.4165V435.165C642.398 446.211 633.443 455.165 622.398 455.165L49.4443 455.165Z" fill="#3D3D3D"/>
</mask>
<g mask="url(#mask0_2193_3696)">
<path d="M29.4443 455.165L29.4443 29.4165L642.398 29.4165V455.165L29.4443 455.165Z" fill="#7F7F7F" fill-opacity="0.5" style="mix-blend-mode:luminosity"/>
<path d="M29.4443 455.165L29.4443 29.4165L642.398 29.4165V455.165L29.4443 455.165Z" fill="#3D3D3D" style="mix-blend-mode:overlay"/>
</g>
<g filter="url(#filter0_i_2193_3696)">
<ellipse cx="14.4058" cy="242.133" rx="3.95383" ry="3.9576" transform="rotate(-90 14.4058 242.133)" fill="#1A1D22" fill-opacity="0.5"/>
</g>
<ellipse cx="14.5641" cy="241.974" rx="2.53046" ry="2.53286" transform="rotate(-90 14.5641 241.974)" fill="url(#paint1_angular_2193_3696)"/>
<ellipse cx="14.5641" cy="241.974" rx="2.53046" ry="2.53286" transform="rotate(-90 14.5641 241.974)" fill="url(#paint2_radial_2193_3696)"/>
<g filter="url(#filter1_i_2193_3696)">
<path d="M87.0674 1.58154V1.58154C87.0674 0.708081 87.7755 2.98023e-08 88.6489 2.98023e-08L112.714 2.98023e-08C113.588 2.98023e-08 114.296 0.708081 114.296 1.58154V1.58154L87.0674 1.58154Z" fill="url(#paint3_linear_2193_3696)"/>
</g>
<g filter="url(#filter2_i_2193_3696)">
<path d="M54.457 1.58154V1.58154C54.457 0.708081 55.1651 2.98023e-08 56.0386 2.98023e-08L80.1038 2.98023e-08C80.9773 2.98023e-08 81.6853 0.708081 81.6853 1.58154V1.58154L54.457 1.58154Z" fill="url(#paint4_linear_2193_3696)"/>
</g>
<g filter="url(#filter3_ii_2193_3696)">
<path d="M1.58304 82.2397C0.708751 82.2397 0 81.531 0 80.6567L0 37.3257C0 36.4515 0.708751 35.7427 1.58304 35.7427V35.7427L1.58304 82.2397V82.2397Z" fill="url(#paint5_linear_2193_3696)"/>
</g>
<defs>
<filter id="filter0_i_2193_3696" x="10.4482" y="238.179" width="9.91504" height="9.90771" filterUnits="userSpaceOnUse" color-interpolation-filters="sRGB">
<feFlood flood-opacity="0" result="BackgroundImageFix"/>
<feBlend mode="normal" in="SourceGraphic" in2="BackgroundImageFix" result="shape"/>
<feColorMatrix in="SourceAlpha" type="matrix" values="0 0 0 0 0 0 0 0 0 0 0 0 0 0 0 0 0 0 127 0" result="hardAlpha"/>
<feOffset dx="2" dy="2"/>
<feGaussianBlur stdDeviation="1.25"/>
<feComposite in2="hardAlpha" operator="arithmetic" k2="-1" k3="1"/>
<feColorMatrix type="matrix" values="0 0 0 0 0.0431373 0 0 0 0 0.0431373 0 0 0 0 0.0431373 0 0 0 1 0"/>
<feBlend mode="normal" in2="shape" result="effect1_innerShadow_2193_3696"/>
</filter>
<filter id="filter1_i_2193_3696" x="87.0674" y="0" width="27.2285" height="1.58154" filterUnits="userSpaceOnUse" color-interpolation-filters="sRGB">
<feFlood flood-opacity="0" result="BackgroundImageFix"/>
<feBlend mode="normal" in="SourceGraphic" in2="BackgroundImageFix" result="shape"/>
<feColorMatrix in="SourceAlpha" type="matrix" values="0 0 0 0 0 0 0 0 0 0 0 0 0 0 0 0 0 0 127 0" result="hardAlpha"/>
<feOffset dx="-1"/>
<feComposite in2="hardAlpha" operator="arithmetic" k2="-1" k3="1"/>
<feColorMatrix type="matrix" values="0 0 0 0 0.615686 0 0 0 0 0.65098 0 0 0 0 0.678431 0 0 0 1 0"/>
<feBlend mode="normal" in2="shape" result="effect1_innerShadow_2193_3696"/>
</filter>
<filter id="filter2_i_2193_3696" x="54.457" y="0" width="27.2285" height="1.58154" filterUnits="userSpaceOnUse" color-interpolation-filters="sRGB">
<feFlood flood-opacity="0" result="BackgroundImageFix"/>
<feBlend mode="normal" in="SourceGraphic" in2="BackgroundImageFix" result="shape"/>
<feColorMatrix in="SourceAlpha" type="matrix" values="0 0 0 0 0 0 0 0 0 0 0 0 0 0 0 0 0 0 127 0" result="hardAlpha"/>
<feOffset dx="-1"/>
<feComposite in2="hardAlpha" operator="arithmetic" k2="-1" k3="1"/>
<feColorMatrix type="matrix" values="0 0 0 0 0.615686 0 0 0 0 0.65098 0 0 0 0 0.678431 0 0 0 1 0"/>
<feBlend mode="normal" in2="shape" result="effect1_innerShadow_2193_3696"/>
</filter>
<filter id="filter3_ii_2193_3696" x="0" y="35.7427" width="1.58301" height="46.4971" filterUnits="userSpaceOnUse" color-interpolation-filters="sRGB">
<feFlood flood-opacity="0" result="BackgroundImageFix"/>
<feBlend mode="normal" in="SourceGraphic" in2="BackgroundImageFix" result="shape"/>
<feColorMatrix in="SourceAlpha" type="matrix" values="0 0 0 0 0 0 0 0 0 0 0 0 0 0 0 0 0 0 127 0" result="hardAlpha"/>
<feOffset dy="2"/>
<feComposite in2="hardAlpha" operator="arithmetic" k2="-1" k3="1"/>
<feColorMatrix type="matrix" values="0 0 0 0 0.603922 0 0 0 0 0.67451 0 0 0 0 0.733333 0 0 0 0.5 0"/>
<feBlend mode="normal" in2="shape" result="effect1_innerShadow_2193_3696"/>
<feColorMatrix in="SourceAlpha" type="matrix" values="0 0 0 0 0 0 0 0 0 0 0 0 0 0 0 0 0 0 127 0" result="hardAlpha"/>
<feOffset dy="1"/>
<feComposite in2="hardAlpha" operator="arithmetic" k2="-1" k3="1"/>
<feColorMatrix type="matrix" values="0 0 0 0 0.709804 0 0 0 0 0.74902 0 0 0 0 0.780392 0 0 0 1 0"/>
<feBlend mode="normal" in2="effect1_innerShadow_2193_3696" result="effect2_innerShadow_2193_3696"/>
</filter>
<radialGradient id="paint0_angular_2193_3696" cx="0" cy="0" r="1" gradientUnits="userSpaceOnUse" gradientTransform="translate(335.921 242.291) scale(334.338 240.709)">
<stop stop-color="#A8BACC"/>
<stop offset="0.0982781" stop-color="#AEBFCF"/>
<stop offset="0.127907" stop-color="#C9E1F6"/>
<stop offset="0.251954" stop-color="#AFC5DC"/>
<stop offset="0.370813" stop-color="#ABB6C0"/>
<stop offset="0.409623" stop-color="#97A5B3"/>
<stop offset="0.500156" stop-color="#DBE4F1"/>
<stop offset="0.624414" stop-color="#C9D9E4"/>
<stop offset="0.75138" stop-color="#B7C5D5"/>
<stop offset="0.884339" stop-color="#9CB1C4"/>
<stop offset="1" stop-color="#A0B3C2"/>
</radialGradient>
<radialGradient id="paint1_angular_2193_3696" cx="0" cy="0" r="1" gradientUnits="userSpaceOnUse" gradientTransform="translate(14.5641 241.974) rotate(90) scale(2.53286 2.53046)">
<stop offset="0.00395168"/>
<stop offset="0.0907548" stop-color="#101215"/>
<stop offset="0.159421" stop-color="#75899E"/>
<stop offset="0.249667" stop-color="#1D4672"/>
<stop offset="0.326618" stop-color="#252F8B"/>
<stop offset="0.364065" stop-color="#2C18A3" stop-opacity="0.66"/>
<stop offset="0.402347" stop-color="#0A0625"/>
<stop offset="0.513289"/>
<stop offset="0.649389" stop-color="#0D103D"/>
<stop offset="0.816604" stop-color="#0B1B34"/>
<stop offset="0.895453" stop-color="#345D7B"/>
</radialGradient>
<radialGradient id="paint2_radial_2193_3696" cx="0" cy="0" r="1" gradientUnits="userSpaceOnUse" gradientTransform="translate(14.5641 241.974) rotate(90) scale(2.53286 2.53046)">
<stop offset="0.21875"/>
<stop offset="0.458333" stop-opacity="0"/>
<stop offset="0.791667" stop-opacity="0"/>
<stop offset="1"/>
</radialGradient>
<linearGradient id="paint3_linear_2193_3696" x1="87.0674" y1="0.790771" x2="114.296" y2="0.790771" gradientUnits="userSpaceOnUse">
<stop stop-color="#536573"/>
<stop offset="0.101279" stop-color="#A3B3BF"/>
<stop offset="0.494792" stop-color="#C0D0DD"/>
<stop offset="0.912797" stop-color="#98A8B4"/>
<stop offset="1" stop-color="#536573" stop-opacity="0.72"/>
</linearGradient>
<linearGradient id="paint4_linear_2193_3696" x1="54.457" y1="0.790771" x2="81.6853" y2="0.790771" gradientUnits="userSpaceOnUse">
<stop stop-color="#536573"/>
<stop offset="0.101279" stop-color="#A3B3BF"/>
<stop offset="0.494792" stop-color="#C0D0DD"/>
<stop offset="0.912797" stop-color="#98A8B4"/>
<stop offset="1" stop-color="#536573" stop-opacity="0.72"/>
</linearGradient>
<linearGradient id="paint5_linear_2193_3696" x1="-1.2665" y1="80.9745" x2="-0.95046" y2="35.7427" gradientUnits="userSpaceOnUse">
<stop stop-color="#4D5766" stop-opacity="0.62"/>
<stop offset="0.140625" stop-color="#93A6B5"/>
<stop offset="0.463542" stop-color="#A9BED1"/>
<stop offset="0.875" stop-color="#93A6B5"/>
<stop offset="1" stop-color="#4D5766" stop-opacity="0.85"/>
</linearGradient>
</defs>
</svg>
