<svg width="89" height="219" viewBox="0 0 89 219" fill="none" xmlns="http://www.w3.org/2000/svg">
<g filter="url(#filter0_d_2174_511)">
<rect x="4" width="81" height="211" rx="5" fill="#FBFBFC"/>
<rect x="9" y="5" width="70" height="54" fill="#E4003E" fill-opacity="0.2"/>
<rect x="9" y="64" width="70" height="54" fill="#E4003E" fill-opacity="0.5"/>
<rect x="9" y="123" width="70" height="54" fill="#E4003E" fill-opacity="0.9"/>
<path d="M17.4516 197.84L17.2916 197.68C17.121 197.648 17.0036 197.605 16.9396 197.552C16.8756 197.499 16.8276 197.381 16.7956 197.2C16.7743 197.029 16.8063 196.768 16.8916 196.416C16.977 196.053 17.057 195.723 17.1316 195.424C17.217 194.592 17.3556 193.797 17.5476 193.04C17.7076 192.411 17.9423 191.643 18.2516 190.736C18.3583 190.437 18.513 189.643 18.7156 188.352C18.865 187.403 19.1423 186.688 19.5476 186.208C19.793 185.92 20.081 185.248 20.4116 184.192C20.689 183.317 21.0996 182.699 21.6436 182.336C22.0276 182.091 22.3956 181.968 22.7476 181.968C23.3876 181.968 23.953 182.368 24.4436 183.168C24.8596 183.851 25.1156 184.597 25.2116 185.408C25.2436 185.653 25.2596 185.899 25.2596 186.144C25.2596 187.723 24.8116 189.099 23.9156 190.272C22.945 191.552 21.7023 192.192 20.1876 192.192C20.0703 192.192 19.953 192.187 19.8356 192.176C19.729 192.165 19.6223 192.155 19.5156 192.144C19.409 192.144 19.313 192.16 19.2276 192.192C19.0356 192.267 18.881 192.443 18.7636 192.72C18.6996 192.88 18.6356 193.136 18.5716 193.488C18.305 195.099 17.985 196.549 17.6116 197.84H17.4516ZM19.5476 191.536C19.7183 191.579 19.9103 191.6 20.1236 191.6C20.6463 191.6 21.1903 191.44 21.7556 191.12C22.193 190.875 22.6356 190.539 23.0836 190.112C23.5423 189.675 23.9156 189.104 24.2036 188.4C24.4916 187.685 24.6356 186.965 24.6356 186.24C24.6356 185.653 24.5396 185.125 24.3476 184.656C24.1556 184.176 23.8463 183.776 23.4196 183.456C23.1636 183.264 22.9076 183.168 22.6516 183.168C22.1183 183.168 21.5956 183.611 21.0836 184.496C20.8703 184.869 20.5716 185.547 20.1876 186.528C19.9423 187.168 19.7183 187.968 19.5156 188.928C19.3983 189.472 19.249 190.288 19.0676 191.376C19.1103 191.397 19.1796 191.424 19.2756 191.456C19.3716 191.488 19.4623 191.515 19.5476 191.536ZM30.3624 195.904C30.2877 195.957 29.7757 196.517 28.8264 197.584C28.4744 197.979 28.1064 198.283 27.7224 198.496C27.349 198.72 26.933 198.832 26.4744 198.832C26.1864 198.832 25.9304 198.779 25.7064 198.672C25.493 198.576 25.3224 198.405 25.1944 198.16C24.9597 197.691 24.8424 197.184 24.8424 196.64C24.8424 195.829 25.0984 194.939 25.6104 193.968C26.0477 193.125 26.629 192.288 27.3544 191.456C27.9304 190.784 28.5597 190.165 29.2424 189.6C29.445 189.44 29.6904 189.285 29.9784 189.136C30.3304 188.955 30.6184 188.864 30.8424 188.864C31.1197 188.864 31.2584 189.013 31.2584 189.312C31.2584 189.419 31.2264 189.579 31.1624 189.792C31.109 189.995 30.949 190.171 30.6824 190.32C30.4157 190.459 30.149 190.597 29.8824 190.736C29.349 191.067 28.9544 191.317 28.6984 191.488C28.2184 191.819 27.861 192.16 27.6264 192.512C27.3064 192.992 27.0397 193.408 26.8264 193.76C26.517 194.272 26.2984 194.709 26.1704 195.072C26.053 195.435 25.957 195.749 25.8824 196.016C25.765 196.432 25.7064 196.763 25.7064 197.008C25.7064 197.317 25.7757 197.563 25.9144 197.744C26.0637 197.915 26.309 198 26.6504 198C27.333 198 28.101 197.52 28.9544 196.56C29.6584 195.76 30.181 194.949 30.5224 194.128C30.5864 193.989 30.677 193.456 30.7944 192.528C30.8797 191.899 31.1144 191.461 31.4984 191.216C31.701 191.493 31.8397 191.792 31.9144 192.112C31.9997 192.421 32.0424 192.757 32.0424 193.12C32.0424 193.387 32.0104 193.797 31.9464 194.352C31.8824 194.907 31.8504 195.328 31.8504 195.616C31.8504 195.915 31.8557 196.123 31.8664 196.24C31.8877 196.347 31.9197 196.491 31.9624 196.672C32.005 196.843 32.0477 197.003 32.0904 197.152C32.133 197.301 32.1544 197.429 32.1544 197.536C32.1544 197.653 32.1277 197.744 32.0744 197.808C32.0317 197.872 31.9464 197.904 31.8184 197.904C31.7224 197.904 31.6157 197.883 31.4984 197.84C31.1784 197.723 30.965 197.403 30.8584 196.88C30.805 196.453 30.7517 196.021 30.6984 195.584L30.3624 195.904ZM38.4405 190.736C38.3018 191.173 37.9712 191.771 37.4485 192.528C36.7658 193.531 36.3445 194.16 36.1845 194.416C35.7578 195.131 35.5445 195.723 35.5445 196.192V196.384C35.5445 197.045 35.8485 197.547 36.4565 197.888C36.8085 198.08 37.4165 198.277 38.2805 198.48C37.9925 198.8 37.6672 198.96 37.3045 198.96C36.8032 198.96 36.1898 198.624 35.4645 197.952C35.0378 197.515 34.7392 197.211 34.5685 197.04C34.4085 197.339 34.2858 197.541 34.2005 197.648C34.0192 197.883 33.8378 198 33.6565 198C33.5392 198 33.4058 197.941 33.2565 197.824C33.1072 197.707 33.0325 197.568 33.0325 197.408C33.0325 197.291 33.0912 197.152 33.2085 196.992C33.3792 196.8 33.5072 196.656 33.5925 196.56C33.9338 196.176 34.1632 195.749 34.2805 195.28C34.3658 194.939 34.4085 194.475 34.4085 193.888V193.328C34.4085 191.589 34.6538 190.053 35.1445 188.72C35.7418 187.088 36.6805 185.872 37.9605 185.072C38.3872 185.253 38.7018 185.552 38.9045 185.968C39.0752 186.331 39.1605 186.784 39.1605 187.328C39.1605 187.851 39.0752 188.459 38.9045 189.152C38.8085 189.547 38.6538 190.075 38.4405 190.736ZM37.9605 186.368L37.6405 186.688C37.3845 186.837 37.1338 187.072 36.8885 187.392C36.6538 187.712 36.4725 188.016 36.3445 188.304C35.8538 189.435 35.5018 190.389 35.2885 191.168C35.0858 191.936 34.9845 192.587 34.9845 193.12C34.9845 193.632 35.0592 194.075 35.2085 194.448C36.0085 193.648 36.7232 192.672 37.3525 191.52C38.0992 190.155 38.4725 188.939 38.4725 187.872C38.4725 187.307 38.3552 186.805 38.1205 186.368H37.9605ZM48.781 196.384C48.8023 196.491 48.653 196.645 48.333 196.848C48.173 196.944 48.0557 197.008 47.981 197.04C47.3837 197.253 46.7917 197.467 46.205 197.68C45.629 197.819 44.9783 197.909 44.253 197.952C43.5277 197.984 42.7223 198 41.837 198C41.0797 198 40.4183 197.829 39.853 197.488C39.2023 197.093 38.877 196.56 38.877 195.888C38.877 195.739 38.893 195.584 38.925 195.424C39.053 194.837 39.3837 194.251 39.917 193.664C40.3543 193.173 40.8877 192.736 41.517 192.352C42.061 192.011 42.605 191.664 43.149 191.312C43.8637 190.917 44.477 190.72 44.989 190.72C45.0957 190.72 45.2557 190.736 45.469 190.768C45.6823 190.789 45.869 190.885 46.029 191.056C46.1997 191.216 46.285 191.435 46.285 191.712C46.285 192.149 46.093 192.576 45.709 192.992C45.2397 193.525 44.8237 193.957 44.461 194.288C44.141 194.576 43.8583 194.795 43.613 194.944C43.2183 195.168 42.8557 195.28 42.525 195.28C42.3437 195.28 42.157 195.264 41.965 195.232C41.773 195.189 41.6077 195.157 41.469 195.136C41.3303 195.104 41.197 195.088 41.069 195.088C40.7277 195.088 40.4183 195.173 40.141 195.344C39.8637 195.504 39.725 195.707 39.725 195.952C39.725 196.208 39.901 196.469 40.253 196.736C40.605 197.003 41.0263 197.205 41.517 197.344C42.0183 197.472 42.5463 197.536 43.101 197.536C44.1357 197.536 45.3783 197.317 46.829 196.88C47.3197 196.731 47.9703 196.512 48.781 196.224V196.384ZM45.229 191.872H45.069C44.9943 191.829 44.9037 191.808 44.797 191.808C44.6797 191.808 44.525 191.84 44.333 191.904C44.1517 191.968 44.0183 192.011 43.933 192.032C43.4103 192.203 42.925 192.437 42.477 192.736C42.029 193.024 41.6557 193.381 41.357 193.808C41.645 193.872 41.917 193.904 42.173 193.904C42.7917 193.904 43.3783 193.733 43.933 193.392C44.4237 193.093 44.909 192.64 45.389 192.032L45.229 191.872ZM50.2358 191.872C50.1291 191.883 49.6864 192.091 48.9078 192.496C48.5558 192.677 48.2891 192.768 48.1078 192.768C48.0011 192.768 47.8998 192.736 47.8038 192.672C47.5691 192.523 47.4518 192.309 47.4518 192.032C47.4518 191.701 47.5744 191.483 47.8198 191.376C48.0758 191.259 48.4544 191.136 48.9557 191.008C49.4678 190.88 49.8411 190.789 50.0758 190.736C50.8971 190.523 51.3504 189.893 51.4358 188.848C51.4571 188.293 51.4838 187.739 51.5158 187.184C51.5478 186.949 51.6171 186.656 51.7238 186.304C51.8304 185.952 51.9264 185.76 52.0118 185.728C52.2251 185.653 52.4118 185.739 52.5718 185.984C52.7318 186.229 52.8118 186.464 52.8118 186.688C52.8118 187.115 52.6571 187.829 52.3478 188.832C52.1664 189.419 52.0544 189.84 52.0118 190.096C52.1611 190.128 52.3318 190.144 52.5238 190.144C52.8011 190.144 53.0731 190.133 53.3398 190.112C54.2784 190.037 54.7904 190 54.8758 190C55.2918 190 55.6224 190.043 55.8678 190.128C56.1238 190.213 56.2891 190.363 56.3638 190.576C55.8624 190.576 55.3078 190.651 54.6998 190.8C54.1024 190.939 53.4784 191.088 52.8278 191.248C52.1878 191.397 51.7344 191.92 51.4678 192.816C51.2864 193.413 51.1958 194.256 51.1958 195.344V195.488C51.1958 195.669 51.2118 195.952 51.2438 196.336C51.2864 196.72 51.3078 196.96 51.3078 197.056C51.3078 197.269 51.2864 197.44 51.2438 197.568C51.2118 197.696 51.1264 197.797 50.9878 197.872C50.8598 197.936 50.7318 197.968 50.6038 197.968C50.4331 197.968 50.3158 197.893 50.2518 197.744C50.1984 197.584 50.1718 197.365 50.1718 197.088C50.1718 196.885 50.1771 196.725 50.1878 196.608C50.1984 196.48 50.2144 196.352 50.2358 196.224C50.2358 195.819 50.3264 195.195 50.5078 194.352C50.6891 193.509 50.7798 192.88 50.7798 192.464C50.7798 192.176 50.7584 191.925 50.7158 191.712C50.6838 191.733 50.6571 191.749 50.6358 191.76C50.4651 191.824 50.3318 191.861 50.2358 191.872ZM58.9545 191.872C58.8478 191.883 58.4052 192.091 57.6265 192.496C57.2745 192.677 57.0078 192.768 56.8265 192.768C56.7198 192.768 56.6185 192.736 56.5225 192.672C56.2878 192.523 56.1705 192.309 56.1705 192.032C56.1705 191.701 56.2932 191.483 56.5385 191.376C56.7945 191.259 57.1732 191.136 57.6745 191.008C58.1865 190.88 58.5598 190.789 58.7945 190.736C59.6158 190.523 60.0692 189.893 60.1545 188.848C60.1758 188.293 60.2025 187.739 60.2345 187.184C60.2665 186.949 60.3358 186.656 60.4425 186.304C60.5492 185.952 60.6452 185.76 60.7305 185.728C60.9438 185.653 61.1305 185.739 61.2905 185.984C61.4505 186.229 61.5305 186.464 61.5305 186.688C61.5305 187.115 61.3758 187.829 61.0665 188.832C60.8852 189.419 60.7732 189.84 60.7305 190.096C60.8798 190.128 61.0505 190.144 61.2425 190.144C61.5198 190.144 61.7918 190.133 62.0585 190.112C62.9972 190.037 63.5092 190 63.5945 190C64.0105 190 64.3412 190.043 64.5865 190.128C64.8425 190.213 65.0078 190.363 65.0825 190.576C64.5812 190.576 64.0265 190.651 63.4185 190.8C62.8212 190.939 62.1972 191.088 61.5465 191.248C60.9065 191.397 60.4532 191.92 60.1865 192.816C60.0052 193.413 59.9145 194.256 59.9145 195.344V195.488C59.9145 195.669 59.9305 195.952 59.9625 196.336C60.0052 196.72 60.0265 196.96 60.0265 197.056C60.0265 197.269 60.0052 197.44 59.9625 197.568C59.9305 197.696 59.8452 197.797 59.7065 197.872C59.5785 197.936 59.4505 197.968 59.3225 197.968C59.1518 197.968 59.0345 197.893 58.9705 197.744C58.9172 197.584 58.8905 197.365 58.8905 197.088C58.8905 196.885 58.8958 196.725 58.9065 196.608C58.9172 196.48 58.9332 196.352 58.9545 196.224C58.9545 195.819 59.0452 195.195 59.2265 194.352C59.4078 193.509 59.4985 192.88 59.4985 192.464C59.4985 192.176 59.4772 191.925 59.4345 191.712C59.4025 191.733 59.3758 191.749 59.3545 191.76C59.1838 191.824 59.0505 191.861 58.9545 191.872ZM74.9373 196.384C74.9586 196.491 74.8093 196.645 74.4893 196.848C74.3293 196.944 74.2119 197.008 74.1373 197.04C73.5399 197.253 72.9479 197.467 72.3612 197.68C71.7853 197.819 71.1346 197.909 70.4093 197.952C69.6839 197.984 68.8786 198 67.9933 198C67.2359 198 66.5746 197.829 66.0093 197.488C65.3586 197.093 65.0333 196.56 65.0333 195.888C65.0333 195.739 65.0493 195.584 65.0813 195.424C65.2093 194.837 65.5399 194.251 66.0733 193.664C66.5106 193.173 67.0439 192.736 67.6733 192.352C68.2173 192.011 68.7613 191.664 69.3053 191.312C70.0199 190.917 70.6333 190.72 71.1453 190.72C71.2519 190.72 71.4119 190.736 71.6253 190.768C71.8386 190.789 72.0253 190.885 72.1853 191.056C72.3559 191.216 72.4413 191.435 72.4413 191.712C72.4413 192.149 72.2493 192.576 71.8653 192.992C71.3959 193.525 70.9799 193.957 70.6173 194.288C70.2973 194.576 70.0146 194.795 69.7693 194.944C69.3746 195.168 69.0119 195.28 68.6813 195.28C68.4999 195.28 68.3133 195.264 68.1213 195.232C67.9293 195.189 67.7639 195.157 67.6253 195.136C67.4866 195.104 67.3533 195.088 67.2253 195.088C66.8839 195.088 66.5746 195.173 66.2973 195.344C66.0199 195.504 65.8813 195.707 65.8813 195.952C65.8813 196.208 66.0573 196.469 66.4093 196.736C66.7613 197.003 67.1826 197.205 67.6733 197.344C68.1746 197.472 68.7026 197.536 69.2573 197.536C70.2919 197.536 71.5346 197.317 72.9853 196.88C73.4759 196.731 74.1266 196.512 74.9373 196.224V196.384ZM71.3853 191.872H71.2253C71.1506 191.829 71.0599 191.808 70.9533 191.808C70.8359 191.808 70.6813 191.84 70.4893 191.904C70.3079 191.968 70.1746 192.011 70.0893 192.032C69.5666 192.203 69.0813 192.437 68.6333 192.736C68.1853 193.024 67.8119 193.381 67.5133 193.808C67.8013 193.872 68.0733 193.904 68.3293 193.904C68.9479 193.904 69.5346 193.733 70.0893 193.392C70.5799 193.093 71.0653 192.64 71.5453 192.032L71.3853 191.872Z" fill="#1D1E22"/>
</g>
<defs>
<filter id="filter0_d_2174_511" x="0" y="0" width="89" height="219" filterUnits="userSpaceOnUse" color-interpolation-filters="sRGB">
<feFlood flood-opacity="0" result="BackgroundImageFix"/>
<feColorMatrix in="SourceAlpha" type="matrix" values="0 0 0 0 0 0 0 0 0 0 0 0 0 0 0 0 0 0 127 0" result="hardAlpha"/>
<feOffset dy="4"/>
<feGaussianBlur stdDeviation="2"/>
<feComposite in2="hardAlpha" operator="out"/>
<feColorMatrix type="matrix" values="0 0 0 0 0 0 0 0 0 0 0 0 0 0 0 0 0 0 0.25 0"/>
<feBlend mode="normal" in2="BackgroundImageFix" result="effect1_dropShadow_2174_511"/>
<feBlend mode="normal" in="SourceGraphic" in2="effect1_dropShadow_2174_511" result="shape"/>
</filter>
</defs>
</svg>
