<svg width="65" height="65" viewBox="0 0 65 65" fill="none" xmlns="http://www.w3.org/2000/svg">
<g opacity="0.2">
<path d="M22.8553 53.3C21.0065 53.3 19.2315 53.0042 17.5305 52.4125C15.9035 51.7469 14.4614 50.8595 13.2041 49.7501C11.9469 48.6408 10.9485 47.3096 10.2089 45.7565C9.46939 44.1295 9.09961 42.3546 9.09961 40.4317C9.09961 38.2131 9.35845 36.0684 9.87614 33.9976C10.4678 31.9268 11.3922 29.93 12.6495 28.0072C13.0932 27.3416 13.8697 26.1213 14.9791 24.3464C16.1624 22.5715 17.4196 20.7596 18.7508 18.9107C20.082 16.9878 21.3762 15.3238 22.6335 13.9187C23.8907 12.4396 24.8521 11.7 25.5177 11.7L26.8489 12.4765C25.074 14.991 23.2251 17.4685 21.3023 19.9091C19.4534 22.2756 17.6045 24.6792 15.7556 27.1197C17.8264 24.8271 19.7492 22.4605 21.5241 20.02C23.2991 17.5055 25.2219 15.102 27.2927 12.8093L28.7348 13.9187L29.5113 12.8093L30.1769 12.6984C31.3602 12.6984 32.2847 13.0682 32.9503 13.8077C33.6159 14.5473 34.0966 15.4348 34.3924 16.4701C33.2831 17.2836 32.1368 18.393 30.9535 19.7981C29.7702 21.1293 28.6239 22.6084 27.5145 24.2355C26.4052 25.7885 25.3698 27.3786 24.4084 29.0056C23.447 30.5587 22.6705 31.9268 22.0788 33.1101C23.7798 30.2259 25.5917 27.4525 27.5145 24.7901C29.5113 22.0538 31.8779 19.6132 34.6143 17.4685L34.7252 18.5779C34.7252 19.0216 34.5403 19.5393 34.1705 20.1309C33.8008 20.7226 33.357 21.3512 32.8393 22.0168C32.3956 22.6084 31.9149 23.2001 31.3972 23.7917C30.8795 24.3094 30.4728 24.7532 30.1769 25.1229L29.1785 24.4573C28.6609 25.5667 27.9953 26.713 27.1817 27.8963C26.3682 29.0056 25.5547 30.1519 24.7412 31.3352C24.0017 32.5185 23.3361 33.7018 22.7444 34.8851C22.2267 36.0684 21.9679 37.2516 21.9679 38.4349L22.5225 38.9896C23.1142 36.4012 24.1126 33.9976 25.5177 31.7789C26.775 29.7821 28.1432 27.8223 29.6223 25.8995C29.1046 26.639 28.5129 27.4895 27.8473 28.4509C27.0338 29.7082 26.2573 31.0394 25.5177 32.4445C24.7782 33.7757 24.1496 35.1069 23.6319 36.4381C23.1142 37.7693 22.8553 38.9526 22.8553 39.988C23.1512 40.1359 23.484 40.2838 23.8537 40.4317C24.2235 40.5796 24.5933 40.6536 24.9631 40.6536L25.8505 40.5427C25.9245 40.9864 26.0354 41.4301 26.1833 41.8739C26.3313 42.3176 26.4052 42.7613 26.4052 43.2051C26.4052 43.7967 26.2203 44.2035 25.8505 44.4253C25.4808 44.5732 25.037 44.6472 24.5193 44.6472L24.6303 45.7565C25.5177 46.1263 26.3682 46.681 27.1817 47.4205C28.0692 48.0861 28.5129 48.9736 28.5129 50.0829C28.5129 50.7485 28.2911 51.3032 27.8473 51.7469C27.4776 52.1167 26.9969 52.4125 26.4052 52.6344C25.8136 52.8563 25.1849 53.0412 24.5193 53.1891C23.8537 53.263 23.2991 53.3 22.8553 53.3ZM42.9343 33.1101C45.005 30.7436 47.2607 28.4879 49.7012 26.3432C52.2157 24.1245 54.3974 21.8319 56.2463 19.4653L56.3572 20.6856C56.3572 21.2033 56.1723 21.7949 55.8025 22.4605C55.4328 23.0522 54.989 23.6438 54.4713 24.2355C53.9537 24.8271 53.399 25.3818 52.8073 25.8995C52.2897 26.4172 51.8459 26.8609 51.4761 27.2307L50.5887 26.4541C50.071 27.3416 49.3684 28.266 48.4809 29.2275C47.5935 30.1149 46.706 31.0394 45.8185 32.0008C44.9311 32.9622 44.1176 33.9236 43.378 34.8851C42.7124 35.8465 42.3057 36.8079 42.1577 37.7693L42.7124 38.2131C43.5259 36.2902 44.6353 34.5523 46.0404 32.9992C47.4456 31.4461 48.8507 29.93 50.2559 28.4509C48.9986 29.8561 47.7044 31.4461 46.3732 33.2211C44.9681 34.996 43.8957 36.734 43.1561 38.4349L44.8201 38.7677L44.7092 39.6552C44.7092 39.951 44.7092 40.2468 44.7092 40.5427C44.7832 40.7645 44.8201 41.0234 44.8201 41.3192C44.8201 42.2067 44.4504 42.6504 43.7108 42.6504L43.0452 42.5395L42.9343 43.7597C43.7478 44.2035 44.4134 44.8321 44.9311 45.6456C45.5227 46.4591 45.8185 47.3466 45.8185 48.308C45.8185 49.4913 45.3009 50.2678 44.2655 50.6376C43.2301 50.9334 42.2687 51.0813 41.3812 51.0813C39.9761 51.0813 38.5339 50.8225 37.0548 50.3048C35.6497 49.7132 34.3554 48.9366 33.1721 47.9752C31.9889 46.9398 31.0274 45.7565 30.2879 44.4253C29.5483 43.0941 29.1785 41.652 29.1785 40.0989C29.1785 37.5105 29.5853 35.07 30.3988 32.7773C31.2863 30.4847 32.6545 28.414 34.5033 26.5651C34.8731 26.1953 35.6497 25.3818 36.8329 24.1245C38.0162 22.7933 39.2735 21.4621 40.6047 20.1309C41.9359 18.7258 43.1561 17.4685 44.2655 16.3592C45.3748 15.2499 46.0404 14.6952 46.2623 14.6952C47.0018 14.6952 47.5935 14.8801 48.0372 15.2499C46.78 17.3206 45.1529 19.3174 43.1561 21.2403C41.1593 23.0892 39.2735 24.8271 37.4985 26.4541C39.5693 24.8271 41.4921 23.1261 43.2671 21.3512C45.116 19.5023 46.8909 17.5795 48.5919 15.5827L50.1449 16.4701C50.2189 15.8785 50.5887 15.5087 51.2543 15.3608C51.9938 15.2129 52.5485 15.1389 52.9183 15.1389C53.8057 15.1389 54.5083 15.4717 55.026 16.1373C55.5437 16.8029 55.8765 17.5425 56.0244 18.356C53.7318 20.6486 51.4761 23.0522 49.2575 25.5667C47.1128 28.0812 45.005 30.5956 42.9343 33.1101ZM42.1577 37.8803C42.1577 38.1761 42.2317 38.324 42.3796 38.324V38.2131L42.1577 37.8803ZM42.7124 39.7661C42.7864 39.6922 42.8233 39.6182 42.8233 39.5443C42.7494 39.6182 42.7124 39.6922 42.7124 39.7661ZM29.7332 25.7885L29.8441 25.5667L29.7332 25.7885ZM30.066 25.3448C29.9921 25.4188 29.9181 25.4927 29.8441 25.5667C29.9181 25.4927 29.9921 25.4188 30.066 25.3448Z" fill="#E4003E"/>
</g>
</svg>
