<svg width="137" height="92" viewBox="0 0 137 92" fill="none" xmlns="http://www.w3.org/2000/svg">
<g filter="url(#filter0_ddi_2031_3751)">
<g clip-path="url(#clip0_2031_3751)">
<rect width="105" height="60" rx="13.0449" transform="matrix(-1 0 0 1 120 15)" fill="url(#paint0_linear_2031_3751)"/>
<g filter="url(#filter1_di_2031_3751)">
<path d="M113.159 33.3248C113.159 27.3211 108.292 22.4541 102.288 22.4541H86.6448V67.5457H102.288C108.292 67.5457 113.159 62.6787 113.159 56.675V33.3248Z" fill="url(#paint1_linear_2031_3751)"/>
</g>
<g filter="url(#filter2_d_2031_3751)">
<path d="M97.2988 33.227C97.2988 27.0357 92.1356 22.0946 85.9503 22.3667L32.2337 24.7299C26.4214 24.9856 21.8408 29.7722 21.8408 35.5901V55.09C21.8408 60.952 26.4886 65.7582 32.3472 65.9547L86.0638 67.7558C92.2069 67.9618 97.2988 63.0377 97.2988 56.8911V33.227Z" fill="url(#paint2_linear_2031_3751)"/>
<path d="M97.2988 33.227C97.2988 27.0357 92.1356 22.0946 85.9503 22.3667L32.2337 24.7299C26.4214 24.9856 21.8408 29.7722 21.8408 35.5901V55.09C21.8408 60.952 26.4886 65.7582 32.3472 65.9547L86.0638 67.7558C92.2069 67.9618 97.2988 63.0377 97.2988 56.8911V33.227Z" fill="url(#paint3_linear_2031_3751)" fill-opacity="0.2"/>
<path d="M85.9662 22.7287L32.2497 25.0919C26.6311 25.3391 22.2031 29.9661 22.2031 35.5901V55.09C22.2031 60.7566 26.696 65.4026 32.3594 65.5925L86.0759 67.3936C92.0142 67.5927 96.9365 62.8328 96.9365 56.8911V33.227C96.9365 27.2421 91.9453 22.4657 85.9662 22.7287Z" stroke="url(#paint4_linear_2031_3751)" stroke-width="0.724717"/>
</g>
<g filter="url(#filter3_d_2031_3751)">
<ellipse cx="83.1087" cy="45" rx="3.53541" ry="3.52933" fill="#E4003E"/>
</g>
<path d="M40.1259 45.4658C40.1259 45.9442 40.0651 46.3802 39.9434 46.7737C39.8245 47.1643 39.6447 47.5012 39.4041 47.7843C39.1634 48.0646 38.8619 48.2811 38.4996 48.434C38.1372 48.5869 37.7126 48.6633 37.2257 48.6633C36.7303 48.6633 36.3 48.5869 35.9348 48.434C35.5724 48.2811 35.2709 48.0631 35.0303 47.78C34.7925 47.497 34.6141 47.1587 34.4952 46.7652C34.3763 46.3717 34.3169 45.9357 34.3169 45.4573C34.3169 44.8175 34.4216 44.2598 34.6311 43.7842C34.8434 43.3058 35.1648 42.9349 35.5951 42.6716C36.0282 42.4055 36.5746 42.2725 37.2342 42.2725C37.8796 42.2725 38.4161 42.4041 38.8435 42.6674C39.271 42.9307 39.5909 43.3015 39.8032 43.7799C40.0184 44.2555 40.1259 44.8175 40.1259 45.4658ZM35.387 45.4658C35.387 45.9442 35.4521 46.3589 35.5823 46.71C35.7125 47.0582 35.9121 47.3271 36.1811 47.5168C36.4528 47.7036 36.801 47.797 37.2257 47.797C37.6531 47.797 38.0013 47.7036 38.2703 47.5168C38.5392 47.3271 38.7374 47.0582 38.8648 46.71C38.9922 46.3589 39.0559 45.9442 39.0559 45.4658C39.0559 44.7382 38.9101 44.1692 38.6185 43.7587C38.3297 43.3454 37.8683 43.1387 37.2342 43.1387C36.8095 43.1387 36.4599 43.2322 36.1853 43.419C35.9135 43.6058 35.7125 43.8734 35.5823 44.2216C35.4521 44.5669 35.387 44.9817 35.387 45.4658ZM42.47 48.5784H41.4593V42.3701H44.9668V43.2279H42.47V45.1643H44.8055V46.0178H42.47V48.5784ZM47.107 48.5784H46.0964V42.3701H49.6039V43.2279H47.107V45.1643H49.4425V46.0178H47.107V48.5784Z" fill="url(#paint5_linear_2031_3751)"/>
</g>
<rect x="-0.362359" y="0.362359" width="104.275" height="59.2753" rx="12.6826" transform="matrix(-1 0 0 1 119.275 15)" stroke="url(#paint6_linear_2031_3751)" stroke-width="0.724717"/>
</g>
<defs>
<filter id="filter0_ddi_2031_3751" x="0.505657" y="0.505657" width="136.163" height="91.1628" filterUnits="userSpaceOnUse" color-interpolation-filters="sRGB">
<feFlood flood-opacity="0" result="BackgroundImageFix"/>
<feColorMatrix in="SourceAlpha" type="matrix" values="0 0 0 0 0 0 0 0 0 0 0 0 0 0 0 0 0 0 127 0" result="hardAlpha"/>
<feOffset dx="5.07302" dy="5.07302"/>
<feGaussianBlur stdDeviation="5.79774"/>
<feComposite in2="hardAlpha" operator="out"/>
<feColorMatrix type="matrix" values="0 0 0 0 0 0 0 0 0 0 0 0 0 0 0 0 0 0 0.25 0"/>
<feBlend mode="normal" in2="BackgroundImageFix" result="effect1_dropShadow_2031_3751"/>
<feColorMatrix in="SourceAlpha" type="matrix" values="0 0 0 0 0 0 0 0 0 0 0 0 0 0 0 0 0 0 127 0" result="hardAlpha"/>
<feOffset dx="-2.89887" dy="-2.89887"/>
<feGaussianBlur stdDeviation="5.79774"/>
<feComposite in2="hardAlpha" operator="out"/>
<feColorMatrix type="matrix" values="0 0 0 0 0 0 0 0 0 0 0 0 0 0 0 0 0 0 0.5 0"/>
<feBlend mode="normal" in2="effect1_dropShadow_2031_3751" result="effect2_dropShadow_2031_3751"/>
<feBlend mode="normal" in="SourceGraphic" in2="effect2_dropShadow_2031_3751" result="shape"/>
<feColorMatrix in="SourceAlpha" type="matrix" values="0 0 0 0 0 0 0 0 0 0 0 0 0 0 0 0 0 0 127 0" result="hardAlpha"/>
<feOffset dx="2.89887" dy="2.89887"/>
<feGaussianBlur stdDeviation="1.44943"/>
<feComposite in2="hardAlpha" operator="arithmetic" k2="-1" k3="1"/>
<feColorMatrix type="matrix" values="0 0 0 0 0.133197 0 0 0 0 0.1477 0 0 0 0 0.164274 0 0 0 1 0"/>
<feBlend mode="normal" in2="shape" result="effect3_innerShadow_2031_3751"/>
</filter>
<filter id="filter1_di_2031_3751" x="80.8468" y="18.1058" width="33.7618" height="50.8893" filterUnits="userSpaceOnUse" color-interpolation-filters="sRGB">
<feFlood flood-opacity="0" result="BackgroundImageFix"/>
<feColorMatrix in="SourceAlpha" type="matrix" values="0 0 0 0 0 0 0 0 0 0 0 0 0 0 0 0 0 0 127 0" result="hardAlpha"/>
<feOffset dx="-2.89887" dy="-1.44943"/>
<feGaussianBlur stdDeviation="1.44943"/>
<feComposite in2="hardAlpha" operator="out"/>
<feColorMatrix type="matrix" values="0 0 0 0 0 0 0 0 0 0 0 0 0 0 0 0 0 0 0.25 0"/>
<feBlend mode="normal" in2="BackgroundImageFix" result="effect1_dropShadow_2031_3751"/>
<feBlend mode="normal" in="SourceGraphic" in2="effect1_dropShadow_2031_3751" result="shape"/>
<feColorMatrix in="SourceAlpha" type="matrix" values="0 0 0 0 0 0 0 0 0 0 0 0 0 0 0 0 0 0 127 0" result="hardAlpha"/>
<feOffset dx="1.44943"/>
<feGaussianBlur stdDeviation="0.724717"/>
<feComposite in2="hardAlpha" operator="arithmetic" k2="-1" k3="1"/>
<feColorMatrix type="matrix" values="0 0 0 0 0 0 0 0 0 0 0 0 0 0 0 0 0 0 0.2 0"/>
<feBlend mode="normal" in2="shape" result="effect2_innerShadow_2031_3751"/>
</filter>
<filter id="filter2_d_2031_3751" x="18.2172" y="18.7324" width="87.0535" height="57.0015" filterUnits="userSpaceOnUse" color-interpolation-filters="sRGB">
<feFlood flood-opacity="0" result="BackgroundImageFix"/>
<feColorMatrix in="SourceAlpha" type="matrix" values="0 0 0 0 0 0 0 0 0 0 0 0 0 0 0 0 0 0 127 0" result="hardAlpha"/>
<feOffset dx="2.17415" dy="2.17415"/>
<feGaussianBlur stdDeviation="2.89887"/>
<feComposite in2="hardAlpha" operator="out"/>
<feColorMatrix type="matrix" values="0 0 0 0 0 0 0 0 0 0 0 0 0 0 0 0 0 0 0.35 0"/>
<feBlend mode="normal" in2="BackgroundImageFix" result="effect1_dropShadow_2031_3751"/>
<feBlend mode="normal" in="SourceGraphic" in2="effect1_dropShadow_2031_3751" result="shape"/>
</filter>
<filter id="filter3_d_2031_3751" x="72.3261" y="34.2235" width="21.5656" height="21.5529" filterUnits="userSpaceOnUse" color-interpolation-filters="sRGB">
<feFlood flood-opacity="0" result="BackgroundImageFix"/>
<feColorMatrix in="SourceAlpha" type="matrix" values="0 0 0 0 0 0 0 0 0 0 0 0 0 0 0 0 0 0 127 0" result="hardAlpha"/>
<feOffset/>
<feGaussianBlur stdDeviation="3.62359"/>
<feComposite in2="hardAlpha" operator="out"/>
<feColorMatrix type="matrix" values="0 0 0 0 0.952941 0 0 0 0 0.172549 0 0 0 0 0.219608 0 0 0 1 0"/>
<feBlend mode="normal" in2="BackgroundImageFix" result="effect1_dropShadow_2031_3751"/>
<feBlend mode="normal" in="SourceGraphic" in2="effect1_dropShadow_2031_3751" result="shape"/>
</filter>
<linearGradient id="paint0_linear_2031_3751" x1="105" y1="60" x2="-5.89111" y2="14.2924" gradientUnits="userSpaceOnUse">
<stop stop-color="#141516"/>
<stop offset="1" stop-color="#362E2E"/>
</linearGradient>
<linearGradient id="paint1_linear_2031_3751" x1="99.902" y1="22.4541" x2="99.902" y2="67.5457" gradientUnits="userSpaceOnUse">
<stop stop-color="#141516"/>
<stop offset="0.0953539" stop-color="#3F3F3F"/>
<stop offset="0.176803" stop-color="#3F3F3F"/>
<stop offset="1" stop-color="#141516"/>
</linearGradient>
<linearGradient id="paint2_linear_2031_3751" x1="21.2644" y1="67.2186" x2="102.178" y2="34.7487" gradientUnits="userSpaceOnUse">
<stop offset="0.366957" stop-color="#3F3E3E"/>
<stop offset="0.722363" stop-color="#141516"/>
</linearGradient>
<linearGradient id="paint3_linear_2031_3751" x1="97.2988" y1="67.2186" x2="25.8549" y2="16.1668" gradientUnits="userSpaceOnUse">
<stop stop-color="#3B3B3B"/>
<stop offset="0.53062" stop-color="#141516"/>
</linearGradient>
<linearGradient id="paint4_linear_2031_3751" x1="18.8875" y1="55.5383" x2="115.981" y2="46.3464" gradientUnits="userSpaceOnUse">
<stop stop-color="#1D1114" stop-opacity="0.0784314"/>
<stop offset="0.764212" stop-color="#695C5F"/>
<stop offset="0.91473" stop-color="#7E6A6E"/>
</linearGradient>
<linearGradient id="paint5_linear_2031_3751" x1="35.2943" y1="45.5784" x2="55.2272" y2="46.8839" gradientUnits="userSpaceOnUse">
<stop stop-color="#2C171D"/>
<stop offset="1" stop-color="#A79898"/>
</linearGradient>
<linearGradient id="paint6_linear_2031_3751" x1="0" y1="0" x2="104.911" y2="60.1558" gradientUnits="userSpaceOnUse">
<stop stop-color="#1D1114" stop-opacity="0.9"/>
<stop offset="1" stop-color="#695C5F"/>
</linearGradient>
<clipPath id="clip0_2031_3751">
<rect width="105" height="60" rx="13.0449" transform="matrix(-1 0 0 1 120 15)" fill="white"/>
</clipPath>
</defs>
</svg>
