<svg width="63" height="248" viewBox="0 0 63 248" fill="none" xmlns="http://www.w3.org/2000/svg">
<g filter="url(#filter0_d_2174_525)">
<rect x="4" y="0.000244141" width="55" height="240" rx="10" fill="white" shape-rendering="crispEdges"/>
<g clip-path="url(#clip0_2174_525)">
<path fill-rule="evenodd" clip-rule="evenodd" d="M46.3925 25.577C46.2269 20.5477 46.5072 20.422 42.0734 21.1512C41.9697 21.1765 41.8791 21.2386 41.819 21.3257C41.7589 21.4128 41.7335 21.5187 41.7478 21.6232C41.762 21.7276 41.8148 21.8232 41.896 21.8916C41.9773 21.9599 42.0813 21.9963 42.188 21.9936C43.1013 21.798 44.0441 21.7767 44.9655 21.9308C44.9655 22.0313 45.0547 22.2954 45.0675 22.396C45.1312 23.339 45.0675 24.546 44.991 25.577C44.991 25.6399 45.0675 25.9291 45.0802 26.1428C43.9861 26.225 42.8872 26.225 41.7931 26.1428C41.6402 26.1428 41.2834 25.9291 41.1688 26.1428C40.9901 25.1443 40.8668 24.137 40.7993 23.1252C40.7228 22.4463 40.7993 21.3775 40.7228 21.2895C40.6464 21.2015 40.0221 21.0255 39.9711 21.5913C39.9711 21.9433 39.8947 22.9241 39.9074 23.3013C35.8813 23.1252 39.9074 22.7732 30.5939 22.7732C23.2297 23.339 23.1277 23.339 22.8219 23.339C22.8219 22.4966 22.72 21.3901 22.1594 21.1261C20.9771 20.8414 19.7381 20.8849 18.5792 21.2518C18.4687 21.2704 18.3697 21.3305 18.3032 21.4197C18.2366 21.5088 18.2077 21.6199 18.2225 21.7296C18.2989 22.396 19.0889 21.9182 20.6305 21.9182C20.9182 21.9254 21.2025 21.9807 21.4714 22.0816C21.4714 22.1822 21.5606 22.4463 21.5733 22.5469C21.5733 23.4899 21.5733 24.6969 21.4969 25.7153C21.4969 25.7908 21.5733 26.0799 21.5861 26.2937C20.492 26.3759 19.3931 26.3759 18.2989 26.2937C18.1461 26.2937 17.7893 26.0925 17.6746 26.2937C17.4945 25.2743 17.3711 24.246 17.3052 23.2132C17.2287 22.5343 17.2669 21.4656 17.2287 21.3775C17.1905 21.2895 16.528 21.1009 16.477 21.6793C16.3878 22.66 16.3878 25.137 16.4006 25.5644C16.4006 26.7212 16.4006 27.5384 18.2989 27.6265C19.9935 27.6265 22.4397 28.1545 22.8347 26.8846C22.9468 25.9912 22.9468 25.0874 22.8347 24.194C28.0712 24.0431 26.2365 24.3951 30.6703 24.194C32.0591 24.0934 39.7673 24.194 39.8692 24.194C39.8692 27.5762 39.8692 27.4379 42.7996 27.639C42.7344 27.712 42.6982 27.8058 42.6977 27.9031C42.5957 32.8318 41.5255 38.2383 42.5448 44.4244L41.7676 44.5753C41.7115 44.5797 41.657 44.5956 41.6074 44.6219C41.5579 44.6482 41.5144 44.6844 41.4797 44.7281C41.445 44.7718 41.4198 44.8221 41.4058 44.8758C41.3917 44.9296 41.3891 44.9857 41.3981 45.0405C41.4873 45.7069 42.2772 45.2291 43.8061 45.2291C44.095 45.2199 44.3835 45.2581 44.6598 45.3422C44.5961 45.4554 44.7362 45.7069 44.7489 45.8074C44.8126 46.7504 44.7489 47.9575 44.6725 48.9885C44.6725 48.9885 44.7489 49.3405 44.7617 49.5543C43.672 49.6426 42.5769 49.6426 41.4873 49.5543C41.3344 49.5543 40.9649 49.3405 40.8502 49.4914C40.6336 48.561 40.6209 47.4923 40.4935 46.4738C40.4043 45.7949 40.4935 44.7387 40.4043 44.6507C40.3151 44.5627 39.7036 44.3741 39.6526 44.9399C39.5762 45.9332 39.5762 48.3975 39.5889 48.825C39.5889 50.0069 39.5889 50.8116 41.4873 50.887C43.1691 50.887 45.6153 51.4277 46.0103 50.1452C46.1654 48.3545 46.0625 46.5512 45.7045 44.789C45.335 44.0975 44.1629 44.1352 43.3857 44.2358C43.2708 42.4511 43.2964 40.6603 43.4621 38.8796C43.7076 35.2087 43.7331 31.5267 43.5386 27.8528C43.5386 27.4882 43.1054 27.7019 44.4049 27.6516C46.418 27.5762 46.4053 27.0229 46.3925 25.577Z" fill="#1D1E22"/>
<path fill-rule="evenodd" clip-rule="evenodd" d="M28.6329 37.9616C26.037 37.5584 23.4125 37.3608 20.7846 37.3707C19.8035 37.773 19.88 38.1125 20.7846 38.3765C22.8995 38.6406 26.7855 39.0429 26.6963 39.0429C28.7858 39.3447 28.1105 39.0429 28.2889 40.3002C28.5422 41.9896 28.6403 43.6982 28.582 45.405C28.8623 46.3606 29.219 46.084 29.614 45.405C29.7541 43.2172 30.0471 39.6213 29.27 38.5023C31.9694 36.2055 34.3932 33.6111 36.494 30.7697C36.7234 33.9885 36.494 34.089 36.494 35.5978C36.5115 35.6971 36.5638 35.787 36.6419 35.8519C36.72 35.9167 36.8188 35.9523 36.9208 35.9523C37.0229 35.9523 37.1217 35.9167 37.1998 35.8519C37.2778 35.787 37.3302 35.6971 37.3477 35.5978C37.4241 34.2399 37.8318 33.1586 37.8318 31.6498C37.8318 28.1042 38.5198 28.7328 31.5888 29.4746C31.3977 29.4746 30.9645 29.3992 30.8243 29.4746C30.7561 29.504 30.6981 29.5523 30.6573 29.6137C30.6166 29.6752 30.5949 29.747 30.5949 29.8204C30.5949 29.8938 30.6166 29.9656 30.6573 30.0271C30.6981 30.0885 30.7561 30.1368 30.8243 30.1662C31.0537 30.2793 30.8243 30.3548 35.6022 30.3548C32.1239 33.6615 33.2451 32.3413 28.6329 37.9616Z" fill="#1D1E22"/>
<path fill-rule="evenodd" clip-rule="evenodd" d="M37.6656 47.2282C36.1367 47.2282 20.2362 46.4109 19.9304 45.9709C19.4462 45.2542 19.7138 43.8711 19.701 42.8904C19.4972 33.385 19.7775 29.2358 19.701 28.7957C19.6472 28.726 19.5729 28.6743 19.4882 28.6477C19.4035 28.621 19.3126 28.6207 19.2277 28.6468C19.1429 28.6729 19.0682 28.7241 19.0139 28.7935C18.9595 28.8628 18.9281 28.947 18.9239 29.0346C18.3633 34.7303 18.3505 41.5073 18.325 42.8653C18.2996 44.2232 17.8027 46.6372 19.5991 47.3539C21.0261 47.9449 34.9646 48.1838 37.7676 48.1335C37.8892 48.1201 38.0005 48.0596 38.077 47.9653C38.1534 47.871 38.1888 47.7506 38.1753 47.6305C38.1618 47.5105 38.1005 47.4007 38.0049 47.3252C37.9093 47.2497 37.7873 47.2148 37.6656 47.2282Z" fill="#1D1E22"/>
</g>
<g clip-path="url(#clip1_2174_525)">
<path fill-rule="evenodd" clip-rule="evenodd" d="M46.4323 86.0654C43.9131 81.3504 37.1217 83.5507 36.5763 81.715C36.0309 79.8793 37.4074 77.7922 38.1346 75.969C40.7317 69.368 37.5502 64.0873 33.4857 63.8484C29.1875 63.5969 25.7334 65.5709 24.8634 70.2356C23.5648 77.0252 28.9019 78.1065 27.7721 81.3378C27.3238 82.1806 26.6222 82.872 25.7598 83.3209C24.8974 83.7698 23.9148 83.9552 22.9415 83.8525C21.5404 83.5147 20.0845 83.4463 18.6563 83.6513C16.6175 84.2925 16.5656 86.166 17.0071 88.1903C17.0257 88.3026 17.0812 88.4061 17.1655 88.4854C17.2497 88.5647 17.3581 88.6155 17.4746 88.6303C17.534 88.6247 17.5911 88.605 17.6408 88.5729C17.6905 88.5408 17.7313 88.4974 17.7595 88.4464C17.7878 88.3954 17.8026 88.3385 17.8027 88.2807C17.8029 88.2229 17.7883 88.1659 17.7603 88.1148C17.5135 86.5054 17.2538 84.9212 18.916 84.4308C21.0586 83.7896 22.9285 85.6882 26.2658 84.1039C27.3956 83.6055 28.2837 82.705 28.746 81.5893C30.2004 77.7041 24.8504 76.7863 26.1489 70.3991C26.8372 66.9414 28.9798 65.2189 33.0832 65.2063C36.4594 65.2063 39.0695 69.695 36.81 75.4661C36.0699 77.3395 34.4726 79.6781 35.2258 82.1174C36.3036 85.5247 42.9132 82.2808 45.3156 86.6563C45.6532 87.2598 45.6012 87.5616 45.0039 87.8508C41.9004 89.2841 33.1741 87.8508 31.5639 87.7628C27.6033 87.5742 22.2533 88.2531 18.3576 88.2908C18.2439 88.2908 18.135 88.3346 18.0546 88.4124C17.9742 88.4902 17.9291 88.5957 17.9291 88.7058C17.9291 88.8158 17.9742 88.9213 18.0546 88.9992C18.135 89.077 18.2439 89.1207 18.3576 89.1207H19.0199C18.6952 90.9564 19.2276 92.8927 21.1495 93.1693C25.1602 93.6914 29.2057 93.9226 33.252 93.8608C38.9397 93.9488 40.0954 94.1751 41.6666 93.7225C42.3969 93.5604 43.0634 93.1977 43.5862 92.6781C44.109 92.1585 44.466 91.504 44.6143 90.7929C44.6192 90.2694 44.567 89.7468 44.4585 89.2338C46.7829 88.7561 47.1985 87.5113 46.4323 86.0654ZM43.6664 90.466C43.6664 91.5473 42.3679 92.4023 41.342 92.6538C39.4331 93.119 39.0436 92.4903 29.4472 92.4149C27.3566 92.4149 24.253 92.4149 21.2534 92.176C19.8639 92.0628 19.5653 90.4157 19.76 89.1081C36.3685 88.6932 40.3941 89.7619 43.5625 89.3722C43.6015 89.7493 43.6664 90.114 43.6664 90.466Z" fill="#1D1E22"/>
<path fill-rule="evenodd" clip-rule="evenodd" d="M32.3436 67.1803C31.7852 68.1736 34.9407 67.6707 34.9407 72.4234C34.9407 73.3035 36.5769 73.9448 36.6158 72.0839C36.6234 70.8236 36.2037 69.5957 35.4212 68.5886C34.616 67.4192 32.6682 66.6145 32.3436 67.1803Z" fill="#1D1E22"/>
</g>
<g clip-path="url(#clip2_2174_525)">
<path fill-rule="evenodd" clip-rule="evenodd" d="M44.9123 111.638C44.8097 110.671 44.5434 109.728 44.1248 108.851C43.8415 108.296 43.5199 107.761 43.1623 107.251C43.0883 107.15 42.9951 107.066 42.8881 107.002C42.7811 106.938 42.6625 106.896 42.5391 106.879C42.4157 106.861 42.2901 106.869 42.1696 106.9C42.0491 106.932 41.9361 106.987 41.8373 107.063C41.2373 107.576 40.7498 108.088 40.1623 108.513C39.8189 108.777 39.4402 108.992 39.0373 109.151C37.2998 109.876 34.6248 110.401 32.9748 111.576C32.2821 112.031 31.7556 112.699 31.4739 113.478C31.1923 114.258 31.1706 115.108 31.4123 115.901C31.4877 116.204 31.5881 116.501 31.7123 116.788L31.8998 117.113C28.4277 119.387 25.0889 121.857 21.8998 124.513C20.3626 125.712 19.0252 127.146 17.9373 128.763C17.582 129.413 17.325 130.113 17.1748 130.838C17.0746 131.371 17.0746 131.918 17.1748 132.451C17.297 133.074 17.5523 133.664 17.9234 134.179C18.2944 134.695 18.7725 135.124 19.3248 135.438C19.8878 135.768 20.5203 135.961 21.1715 136.003C21.8228 136.044 22.4746 135.932 23.0748 135.676C24.8257 134.533 26.3652 133.095 27.6248 131.426C30.9123 127.563 34.7498 122.163 36.0748 120.513C36.1555 120.411 36.194 120.281 36.1824 120.151C36.1708 120.021 36.1099 119.9 36.0123 119.813C35.9356 119.77 35.8502 119.744 35.7623 119.738C35.4873 119.376 35.2373 119.001 34.9373 118.651C34.8043 118.489 34.6579 118.338 34.4998 118.201C34.3466 118.055 34.1791 117.925 33.9998 117.813C33.5896 117.619 33.2349 117.325 32.9684 116.958C32.7019 116.591 32.5321 116.163 32.4748 115.713C32.3302 115.12 32.3797 114.497 32.616 113.934C32.8522 113.372 33.2628 112.9 33.7873 112.588C34.5954 112.111 35.4724 111.761 36.3873 111.551C36.4073 111.741 36.458 111.927 36.5373 112.101C36.83 112.559 37.2712 112.903 37.7873 113.076C38.2516 113.198 38.6801 113.43 39.0373 113.751C39.3344 114.132 39.4892 114.605 39.4748 115.088C39.4783 115.843 39.6672 116.586 40.0248 117.251C40.247 117.522 40.5238 117.743 40.8373 117.901C40.3245 118.324 39.7719 118.696 39.1873 119.013C38.3938 119.452 37.5061 119.692 36.5998 119.713C36.5347 119.708 36.4693 119.716 36.4074 119.737C36.3455 119.757 36.2884 119.79 36.2394 119.833C36.1905 119.877 36.1507 119.929 36.1224 119.988C36.0941 120.047 36.0779 120.111 36.0748 120.176C36.0697 120.241 36.0777 120.306 36.0983 120.368C36.119 120.43 36.1518 120.487 36.195 120.536C36.2381 120.585 36.2906 120.625 36.3494 120.653C36.4082 120.681 36.4721 120.698 36.5373 120.701C37.3922 120.734 38.2446 120.585 39.0373 120.263C40.2276 119.823 41.3349 119.185 42.3123 118.376C42.8961 117.877 43.3944 117.286 43.7873 116.626C44.1637 115.97 44.4537 115.268 44.6498 114.538C44.9137 113.596 45.0026 112.613 44.9123 111.638ZM33.7873 119.826C34.1123 120.038 34.4373 120.213 34.7623 120.401C33.1123 122.401 29.5123 127.026 26.3998 130.401C25.257 131.866 23.8802 133.133 22.3248 134.151C21.964 134.298 21.5738 134.359 21.1853 134.328C20.7968 134.298 20.4208 134.177 20.0873 133.976C19.7447 133.784 19.4477 133.521 19.2168 133.204C18.9859 132.887 18.8265 132.523 18.7498 132.138C18.6888 131.721 18.7143 131.295 18.8248 130.888C18.9528 130.417 19.1287 129.961 19.3498 129.526C20.6772 127.566 22.3055 125.828 24.1748 124.376C27.1248 121.788 30.5373 119.213 32.1623 118.038C32.3641 118.383 32.5897 118.713 32.8373 119.026C33.1179 119.336 33.4372 119.609 33.7873 119.838V119.826ZM43.1998 114.176C43.0746 114.811 42.86 115.426 42.5623 116.001C42.327 116.421 42.037 116.807 41.6998 117.151C41.4515 117.052 41.2412 116.877 41.0998 116.651C40.9365 116.099 40.9023 115.518 40.9998 114.951C41.022 114.085 40.7187 113.242 40.1498 112.588C39.666 112.185 39.0836 111.917 38.4623 111.813C38.0623 111.726 37.6498 111.813 37.4373 111.488C37.3595 111.438 37.2952 111.369 37.2498 111.288C38.0748 111.088 38.8998 110.901 39.5748 110.663C40.1215 110.472 40.6358 110.198 41.0998 109.851C41.5344 109.536 41.9517 109.198 42.3498 108.838C42.4873 109.163 42.5998 109.526 42.6123 109.551C42.9657 110.262 43.2021 111.026 43.3123 111.813C43.4048 112.602 43.3668 113.4 43.1998 114.176Z" fill="#1D1E22"/>
<path fill-rule="evenodd" clip-rule="evenodd" d="M17.5868 111.626C18.1618 112.688 17.0118 110.376 22.8243 121.076C22.8776 121.178 22.9693 121.255 23.0794 121.291C23.1895 121.326 23.309 121.316 23.4118 121.263C23.5142 121.21 23.5921 121.119 23.6293 121.009C23.6665 120.9 23.6603 120.781 23.6118 120.676L22.2493 117.538C22.6516 117.435 23.0414 117.289 23.4118 117.101C23.748 116.919 24.0661 116.705 24.3618 116.463C24.8118 116.101 25.1868 115.701 25.6118 115.338C25.6684 115.307 25.7184 115.265 25.7588 115.215C25.7992 115.164 25.8292 115.106 25.8472 115.044C25.8652 114.982 25.8708 114.917 25.8636 114.853C25.8565 114.788 25.8367 114.726 25.8056 114.669C25.7744 114.613 25.7323 114.563 25.6818 114.523C25.6314 114.482 25.5734 114.452 25.5113 114.434C25.4492 114.416 25.3842 114.411 25.3199 114.418C25.2557 114.425 25.1934 114.445 25.1368 114.476C24.5769 114.65 24.0298 114.863 23.4993 115.113C23.0516 115.307 22.6314 115.56 22.2493 115.863C22.0368 116.038 21.8368 116.226 21.6368 116.413L20.5368 113.913L21.1368 113.688C21.3493 113.588 21.5618 113.476 21.7493 113.363C21.9368 113.251 22.1368 113.101 22.3243 112.963C22.7618 112.613 23.1618 112.251 23.5743 111.888C23.687 111.822 23.7688 111.714 23.8016 111.587C23.8344 111.46 23.8156 111.326 23.7493 111.213C23.683 111.101 23.5746 111.019 23.4481 110.986C23.3215 110.953 23.187 110.972 23.0743 111.038C22.5493 111.226 22.0368 111.388 21.5118 111.613C21.2951 111.7 21.086 111.804 20.8868 111.926C20.6796 112.042 20.483 112.175 20.2993 112.326C20.1765 112.436 20.0596 112.553 19.9493 112.676C19.6493 112.076 19.2743 111.426 18.9743 110.838C18.9025 110.695 18.8358 110.549 18.7743 110.401C19.0929 110.278 19.4185 110.173 19.7493 110.088C20.4118 109.751 21.1243 109.376 21.8368 109.038C22.5493 108.701 23.2743 108.388 23.9993 108.088C24.3125 108.013 24.618 107.908 24.9118 107.776V107.876C25.1993 108.301 25.4618 108.813 25.6743 109.126C26.3368 110.051 26.9243 111.026 27.5618 112.013C28.1993 113.001 28.7118 114.026 29.2118 115.051C29.2388 115.111 29.2774 115.165 29.3253 115.21C29.3733 115.255 29.4296 115.29 29.4912 115.313C29.5527 115.336 29.6182 115.347 29.684 115.345C29.7497 115.343 29.8144 115.328 29.8743 115.301C29.9932 115.244 30.0849 115.142 30.1294 115.018C30.1738 114.894 30.1675 114.758 30.1118 114.638C29.6618 113.563 29.1368 112.488 28.5868 111.438C28.0368 110.388 27.4493 109.351 26.8368 108.351C26.5993 107.988 26.3368 107.338 26.0118 106.863C25.8322 106.572 25.5989 106.317 25.3243 106.113C25.1949 106.054 25.0542 106.023 24.9118 106.023C24.7694 106.023 24.6287 106.054 24.4993 106.113C24.2493 106.176 23.4993 106.563 23.4118 106.601C22.6493 106.888 21.8868 107.201 21.1493 107.526C20.4118 107.851 19.6618 108.226 18.9493 108.601C18.4115 108.882 17.901 109.213 17.4243 109.588C17.2946 109.703 17.1982 109.851 17.1454 110.016C17.0926 110.181 17.0853 110.357 17.1243 110.526C17.2386 110.908 17.3936 111.277 17.5868 111.626Z" fill="#1D1E22"/>
<path fill-rule="evenodd" clip-rule="evenodd" d="M38.1125 128.501C37.5875 127.501 36.9875 126.538 36.45 125.551C36.225 125.138 36 124.713 35.8125 124.301C35.7576 124.186 35.6609 124.096 35.5422 124.05C35.4234 124.004 35.2917 124.005 35.1737 124.053C35.0557 124.101 34.9604 124.192 34.9072 124.308C34.8541 124.423 34.847 124.555 34.8875 124.676L36.825 129.126C36.9125 129.338 37.0875 129.688 37.225 130.051C37.2948 130.206 37.3411 130.37 37.3625 130.538C36.9559 130.708 36.5383 130.85 36.1125 130.963L32.25 133.251C32.075 133.351 31.8 133.526 31.5125 133.663L31.2125 133.826C31.1758 133.746 31.1506 133.662 31.1375 133.576L30.5125 132.438C30.8338 132.39 31.1513 132.319 31.4625 132.226C31.6174 132.161 31.7677 132.086 31.9125 132.001C32.0564 131.921 32.1907 131.824 32.3125 131.713C32.625 131.451 32.875 131.176 33.175 130.888C33.2885 130.823 33.3717 130.715 33.4068 130.589C33.4418 130.463 33.4259 130.328 33.3625 130.213C33.297 130.1 33.1896 130.017 33.0634 129.981C32.9371 129.946 32.8022 129.962 32.6875 130.026C32.2875 130.138 31.9125 130.213 31.525 130.351C31.3653 130.409 31.2106 130.48 31.0625 130.563C30.9146 130.643 30.7762 130.74 30.65 130.851C30.4255 131.065 30.2166 131.294 30.025 131.538V131.438C29.967 131.337 29.873 131.262 29.7618 131.227C29.6505 131.192 29.5303 131.201 29.425 131.251C29.3225 131.304 29.2453 131.396 29.2102 131.506C29.175 131.616 29.1849 131.735 29.2375 131.838L30.1625 134.076C30.2326 134.307 30.3203 134.533 30.425 134.751C30.4728 134.832 30.5378 134.903 30.6155 134.957C30.6932 135.011 30.7818 135.047 30.875 135.063C31.1418 135.13 31.4208 135.13 31.6875 135.063C32.1181 134.944 32.5366 134.785 32.9375 134.588C33.5125 134.351 34.0875 134.088 34.65 133.801C35.475 133.388 36.2625 132.913 37.0625 132.463C37.6216 132.202 38.157 131.892 38.6625 131.538C38.8527 131.377 38.9845 131.157 39.0375 130.913C39.0592 130.582 39.0124 130.25 38.9 129.938C38.6748 129.44 38.4115 128.959 38.1125 128.501Z" fill="#1D1E22"/>
</g>
<g clip-path="url(#clip3_2174_525)">
<path fill-rule="evenodd" clip-rule="evenodd" d="M37.1508 174.451C36.3744 174.929 35.5321 175.291 34.6508 175.526C34.9757 173.682 34.9757 171.795 34.6508 169.951C34.6508 169.861 34.6152 169.775 34.5519 169.712C34.4886 169.649 34.4028 169.613 34.3133 169.613C34.2238 169.613 34.1379 169.649 34.0746 169.712C34.0113 169.775 33.9758 169.861 33.9758 169.951C33.515 171.838 33.4554 173.801 33.8008 175.713C32.7506 175.911 31.68 175.978 30.6133 175.913C30.4383 175.913 30.5508 176.651 30.4758 166.113C30.4758 166.024 30.4402 165.938 30.3769 165.875C30.3136 165.811 30.2278 165.776 30.1383 165.776C30.0488 165.776 29.9629 165.811 29.8996 165.875C29.8363 165.938 29.8008 166.024 29.8008 166.113C29.5061 169.35 29.4351 172.604 29.5883 175.851C27.6961 175.619 25.8916 174.918 24.3383 173.813C23.6738 173.216 23.1047 172.52 22.6508 171.751C19.6258 167.876 19.8383 163.001 21.8258 158.476C21.8447 158.435 21.8554 158.392 21.8575 158.348C21.8595 158.303 21.8528 158.259 21.8377 158.217C21.8226 158.175 21.7995 158.137 21.7695 158.104C21.7396 158.071 21.7035 158.045 21.6633 158.026C21.6231 158.007 21.5795 157.996 21.5351 157.994C21.4908 157.992 21.4464 157.999 21.4046 158.014C21.3628 158.029 21.3244 158.052 21.2916 158.082C21.2588 158.112 21.2322 158.148 21.2133 158.188C20.0373 160.403 19.3831 162.857 19.3008 165.363C19.3297 167.152 19.7276 168.916 20.4697 170.544C21.2117 172.173 22.2819 173.63 23.6133 174.826C25.6805 176.177 28.086 176.919 30.5551 176.968C33.0241 177.016 35.457 176.369 37.5758 175.101C37.662 175.044 37.7223 174.956 37.7433 174.855C37.7644 174.754 37.7446 174.649 37.6883 174.563C37.6319 174.477 37.5436 174.417 37.4428 174.396C37.342 174.375 37.237 174.394 37.1508 174.451Z" fill="#1D1E22"/>
<path d="M25.0003 156.825C20.8253 153.35 17.8378 149.65 17.3378 149.613C17.2713 149.597 17.2016 149.599 17.1364 149.62C17.0712 149.641 17.0129 149.679 16.9678 149.731C16.9227 149.782 16.8926 149.845 16.8807 149.912C16.8688 149.98 16.8756 150.049 16.9003 150.113C17.1774 150.423 17.4739 150.715 17.7878 150.988C27.4878 161.275 21.2253 154.413 30.0878 163.213C43.0378 176.063 44.4503 177.763 44.5753 178C44.617 178.025 44.6632 178.041 44.7111 178.047C44.759 178.053 44.8077 178.05 44.8543 178.037C44.9008 178.024 44.9444 178.002 44.9823 177.972C45.0203 177.942 45.0519 177.905 45.0753 177.863C45.6128 177.063 31.3878 162.25 25.0003 156.825Z" fill="#1D1E22"/>
<path d="M24.5629 154.113C25.4879 153.226 28.9379 149.663 30.8129 148.863C30.459 152.314 30.3087 155.782 30.3629 159.251C30.4754 161.251 30.8379 161.213 31.3129 160.226C31.6629 153.188 31.5629 148.976 31.5629 148.851C32.7165 149.886 33.7826 151.015 34.7504 152.226C33.5004 151.776 33.7004 155.201 33.9629 162.913C34.1504 165.263 34.5129 164.926 34.9379 163.913C35.1109 161.505 35.1527 159.089 35.0629 156.676C34.9879 155.763 35.0629 152.926 35.0629 152.601C35.5504 153.201 36.0254 153.851 36.4879 154.451C38.4879 157.176 37.7379 154.926 37.5004 162.888L37.4379 166.463C37.3629 168.626 37.8004 168.351 38.3879 167.426C38.6629 164.251 39.0754 158.951 38.9379 158.338C41.4379 163.138 40.1879 167.951 40.3504 169.426L40.8004 169.888C41.1504 169.776 41.3254 169.076 41.6254 165.651C42.0379 161.138 40.2254 157.188 37.4754 153.701C31.8379 146.613 30.2754 147.638 28.3129 148.938C26.6591 150.281 25.2031 151.851 23.9879 153.601C23.9473 153.637 23.9149 153.682 23.8928 153.731C23.8707 153.781 23.8593 153.835 23.8594 153.89C23.8595 153.944 23.8711 153.998 23.8934 154.048C23.9158 154.097 23.9484 154.142 23.989 154.178C24.0297 154.214 24.0776 154.242 24.1296 154.258C24.1815 154.275 24.2363 154.28 24.2905 154.274C24.3447 154.268 24.3969 154.25 24.4438 154.223C24.4908 154.195 24.5313 154.158 24.5629 154.113Z" fill="#1D1E22"/>
</g>
<g clip-path="url(#clip4_2174_525)">
<path fill-rule="evenodd" clip-rule="evenodd" d="M24.3251 195.876C26.2795 195.742 28.1835 195.196 29.9126 194.276C29.9918 194.238 30.0559 194.175 30.0944 194.096C30.1329 194.017 30.1436 193.928 30.1248 193.842C30.1059 193.757 30.0586 193.68 29.9906 193.625C29.9225 193.569 29.8378 193.539 29.7501 193.538C27.7669 193.551 25.8174 194.053 24.0751 195.001C24.0177 195.017 23.964 195.045 23.9172 195.082C23.8704 195.119 23.8314 195.165 23.8024 195.217C23.7734 195.269 23.7549 195.327 23.7481 195.386C23.7413 195.446 23.7462 195.506 23.7626 195.563C23.779 195.621 23.8066 195.674 23.8438 195.721C23.8809 195.768 23.9269 195.807 23.9792 195.836C24.0314 195.865 24.0888 195.883 24.1482 195.89C24.2075 195.897 24.2677 195.892 24.3251 195.876Z" fill="#1D1E22"/>
<path fill-rule="evenodd" clip-rule="evenodd" d="M19.7499 197.501C19.8411 197.458 19.9114 197.38 19.9454 197.285C19.9794 197.19 19.9743 197.086 19.9312 196.995C19.8881 196.903 19.8105 196.833 19.7156 196.799C19.6206 196.765 19.5161 196.77 19.4249 196.813C16.6749 197.613 17.2874 199.063 19.4249 199.713C20.2129 199.921 21.0151 200.072 21.8249 200.163C21.9343 200.196 22.0524 200.185 22.1532 200.131C22.254 200.077 22.3293 199.985 22.3624 199.876C22.3956 199.766 22.3839 199.648 22.33 199.548C22.2761 199.447 22.1843 199.371 22.0749 199.338C21.4624 199.076 19.2874 198.088 19.0624 198.013C19.2756 197.822 19.5057 197.65 19.7499 197.501Z" fill="#1D1E22"/>
<path fill-rule="evenodd" clip-rule="evenodd" d="M31.7621 194.463C34.8746 195.476 39.0621 196.451 43.4621 198.213C42.0871 198.663 35.1371 201.476 32.2121 202.326C32.1637 202.338 32.1181 202.36 32.0781 202.39C32.0381 202.42 32.0043 202.457 31.9788 202.5C31.9533 202.543 31.9364 202.59 31.9293 202.64C31.9221 202.689 31.9248 202.74 31.9371 202.788C31.9494 202.837 31.9711 202.882 32.001 202.922C32.0309 202.962 32.0684 202.996 32.1114 203.021C32.1543 203.047 32.2019 203.064 32.2513 203.071C32.3008 203.078 32.3512 203.075 32.3996 203.063C36.9746 201.963 42.1621 200.063 43.8621 199.601C44.4381 199.463 44.993 199.248 45.5121 198.963C47.8871 196.801 37.0871 195.001 32.0121 193.638C31.9027 193.605 31.7846 193.617 31.6838 193.671C31.583 193.724 31.5077 193.816 31.4746 193.926C31.4414 194.035 31.4531 194.153 31.507 194.254C31.5609 194.355 31.6527 194.43 31.7621 194.463Z" fill="#1D1E22"/>
<path fill-rule="evenodd" clip-rule="evenodd" d="M29.4747 208.175C29.5797 208.189 29.6862 208.164 29.7742 208.105C29.8622 208.046 29.9259 207.957 29.9534 207.855C29.9809 207.753 29.9703 207.644 29.9236 207.549C29.877 207.454 29.7974 207.379 29.6997 207.338C27.8747 206.825 25.2622 205.863 22.8622 205.063C21.0872 204.463 18.4997 203.75 17.9122 203.425C18.539 203.079 19.1859 202.77 19.8497 202.5C19.9442 202.467 20.0216 202.398 20.065 202.308C20.1083 202.217 20.1141 202.114 20.0809 202.019C20.0478 201.925 19.9784 201.847 19.8882 201.804C19.7979 201.76 19.6942 201.755 19.5997 201.788C18.7428 202.007 17.9064 202.3 17.0997 202.663C13.3372 204.588 25.3497 207.2 29.4747 208.175Z" fill="#1D1E22"/>
<path fill-rule="evenodd" clip-rule="evenodd" d="M36.3003 206.601C36.2527 206.615 36.2084 206.639 36.1701 206.671C36.1318 206.703 36.1001 206.742 36.0769 206.786C36.03 206.875 36.0204 206.979 36.0503 207.076C36.0801 207.172 36.1469 207.252 36.236 207.299C36.3251 207.346 36.4291 207.355 36.5253 207.326C38.0003 206.976 46.2253 205.051 46.0003 203.576C45.8003 202.326 44.3628 202.526 42.1378 201.801C42.0332 201.772 41.9218 201.783 41.8251 201.832C41.7284 201.881 41.6533 201.964 41.6144 202.066C41.5755 202.167 41.5755 202.279 41.6145 202.38C41.6534 202.481 41.7285 202.564 41.8253 202.613C42.5878 202.951 43.2753 203.388 43.8128 203.651C43.1003 203.913 42.1378 204.251 41.0753 204.663C39.5878 205.238 37.9128 205.988 36.3003 206.601Z" fill="#1D1E22"/>
<path fill-rule="evenodd" clip-rule="evenodd" d="M16.537 209.888C19.2745 211.363 30.612 213.751 31.6995 213.538L34.3995 212.913C34.5106 212.887 34.6066 212.817 34.6663 212.72C34.7261 212.623 34.7448 212.506 34.7183 212.395C34.6917 212.284 34.6222 212.188 34.5249 212.128C34.4276 212.068 34.3106 212.049 34.1995 212.076C30.8495 212.651 32.087 212.713 28.737 211.901C27.0495 211.501 18.0745 209.201 17.487 209.038C20.587 207.876 21.1745 208.188 21.0745 207.588C21.0534 207.489 20.995 207.401 20.9114 207.343C20.8278 207.285 20.7252 207.261 20.6245 207.276C19.3003 207.475 17.9984 207.801 16.737 208.251C15.9245 208.651 15.687 209.413 16.537 209.888Z" fill="#1D1E22"/>
<path fill-rule="evenodd" clip-rule="evenodd" d="M44.7503 208.101C43.8378 207.801 42.2503 207.588 41.0003 207.276C40.8892 207.244 40.7702 207.256 40.6678 207.309C40.5654 207.363 40.4875 207.454 40.4503 207.563C40.2503 208.201 41.1378 208.163 43.7128 209.188C42.4628 209.676 41.7753 209.988 40.5503 210.438C40.4672 210.477 40.4003 210.543 40.3616 210.626C40.3228 210.709 40.3147 210.803 40.3387 210.891C40.3627 210.98 40.4172 211.057 40.4925 211.109C40.5678 211.161 40.6592 211.185 40.7503 211.176C42.2239 210.955 43.6782 210.621 45.1003 210.176C46.5128 209.651 46.0003 208.526 44.7503 208.101Z" fill="#1D1E22"/>
<path fill-rule="evenodd" clip-rule="evenodd" d="M38.4124 216.163C36.5624 216.625 33.4124 217.413 31.4874 217.6C31.2624 217.6 19.0749 214.788 17.3999 214.225C20.5374 213.05 21.1499 213.4 21.0749 212.775C21.0646 212.728 21.045 212.684 21.0174 212.645C20.9897 212.605 20.9545 212.572 20.9138 212.546C20.873 212.521 20.8276 212.503 20.7802 212.496C20.7327 212.488 20.6842 212.489 20.6374 212.5C19.316 212.699 18.0178 213.03 16.7624 213.488C15.8999 213.9 15.6999 214.638 16.5124 215.075C19.0124 216.325 30.4499 219.088 31.6749 218.825C33.5624 218.488 36.7999 217.575 38.6374 217C38.7351 216.96 38.8147 216.885 38.8614 216.79C38.908 216.694 38.9186 216.586 38.8911 216.483C38.8636 216.381 38.8 216.292 38.7119 216.233C38.6239 216.174 38.5175 216.149 38.4124 216.163Z" fill="#1D1E22"/>
<path fill-rule="evenodd" clip-rule="evenodd" d="M42.2504 213.3C42.2195 213.411 42.2337 213.53 42.2899 213.631C42.346 213.731 42.4396 213.806 42.5504 213.838C43.3876 214.392 44.3599 214.707 45.3629 214.75C45.4123 214.744 45.46 214.728 45.5032 214.704C45.5464 214.679 45.5842 214.646 45.6145 214.606C45.6448 214.566 45.6668 214.521 45.6794 214.473C45.692 214.425 45.6949 214.375 45.6879 214.325C45.9254 213.125 42.5004 212.5 42.2504 213.3Z" fill="#1D1E22"/>
<path fill-rule="evenodd" clip-rule="evenodd" d="M41.7125 214.863C32.9625 205.463 35.125 208.301 27.8125 201.451C25.825 199.651 24.0625 197.576 22.125 195.701C20.4 194.013 18.425 192.576 17.25 191.251C17.1805 191.191 17.0924 191.159 17.0012 191.158C16.91 191.158 16.8216 191.189 16.7514 191.247C16.6812 191.306 16.6338 191.387 16.6175 191.477C16.6013 191.566 16.6172 191.659 16.6625 191.738C17.6989 192.888 18.8008 193.977 19.9625 195.001C22.3125 197.238 24.45 200.126 26.85 202.501C31.0125 206.451 32.7625 207.751 36.325 211.013C41.95 216.563 40.075 214.826 44.45 218.776C44.5342 218.839 44.6384 218.869 44.7435 218.862C44.8485 218.855 44.9474 218.809 45.0218 218.735C45.0963 218.66 45.1414 218.562 45.1489 218.457C45.1563 218.352 45.1257 218.247 45.0625 218.163L41.7125 214.863Z" fill="#1D1E22"/>
</g>
</g>
<defs>
<filter id="filter0_d_2174_525" x="0" y="0.000244141" width="63" height="248" filterUnits="userSpaceOnUse" color-interpolation-filters="sRGB">
<feFlood flood-opacity="0" result="BackgroundImageFix"/>
<feColorMatrix in="SourceAlpha" type="matrix" values="0 0 0 0 0 0 0 0 0 0 0 0 0 0 0 0 0 0 127 0" result="hardAlpha"/>
<feOffset dy="4"/>
<feGaussianBlur stdDeviation="2"/>
<feComposite in2="hardAlpha" operator="out"/>
<feColorMatrix type="matrix" values="0 0 0 0 0 0 0 0 0 0 0 0 0 0 0 0 0 0 0.25 0"/>
<feBlend mode="normal" in2="BackgroundImageFix" result="effect1_dropShadow_2174_525"/>
<feBlend mode="normal" in="SourceGraphic" in2="effect1_dropShadow_2174_525" result="shape"/>
</filter>
<clipPath id="clip0_2174_525">
<rect width="31" height="31" fill="white" transform="translate(16 20.0002)"/>
</clipPath>
<clipPath id="clip1_2174_525">
<rect width="31" height="31" fill="white" transform="translate(16 63.0005)"/>
</clipPath>
<clipPath id="clip2_2174_525">
<rect width="30" height="30" fill="white" transform="translate(16 106)"/>
</clipPath>
<clipPath id="clip3_2174_525">
<rect width="30" height="30" fill="white" transform="translate(16 148)"/>
</clipPath>
<clipPath id="clip4_2174_525">
<rect width="30" height="30" fill="white" transform="translate(16 190)"/>
</clipPath>
</defs>
</svg>
