<svg viewBox="0 0 419 20" fill="none" xmlns="http://www.w3.org/2000/svg">
<path d="M18.1913 11.4994C23.5897 11.2289 29.4257 11.1206 34.97 11.0124C38.1798 10.9583 41.2437 10.9312 44.4535 10.9042C48.9765 10.8501 53.4994 10.823 58.1682 10.823C66.9223 10.7959 75.5305 10.7689 84.2845 10.7689C101.647 10.7689 119.009 10.7418 136.517 10.5795C154.609 10.4171 172.555 10.2548 190.646 10.0924C207.717 9.9301 224.787 9.76776 242.004 9.65953C259.074 9.52424 276.29 9.41601 293.361 9.22661C310.869 9.01015 328.377 8.90192 345.885 8.82074C354.202 8.76663 362.518 8.71251 370.834 8.55017C375.211 8.469 379.443 8.36077 383.82 8.25254C388.051 8.14431 392.282 8.09019 396.513 8.00902C400.452 7.92785 404.246 7.9549 408.185 8.00902C410.957 7.9549 413.146 7.68433 414.605 7.22435C415.334 6.92672 416.21 6.65614 416.939 6.35851C418.398 5.6009 419.128 4.81623 418.982 4.00451C418.982 3.19278 418.398 2.40812 416.939 1.65051C416.21 1.35287 415.334 1.0823 414.605 0.784667C413.146 0.32469 411.103 0.0811725 408.185 0C405.997 0.0270575 403.954 0.0811725 401.765 0.10823C399.869 0.135287 397.826 0.135287 395.929 0.135287C391.698 0.135287 387.613 0.162345 383.382 0.189403C374.628 0.243518 366.02 0.351747 357.266 0.405862C340.341 0.487035 323.416 0.514092 306.638 0.703495C297.592 0.811725 288.546 0.919955 279.5 1.00113C271.33 1.0823 263.013 1.13641 254.843 1.19053C237.335 1.29876 219.827 1.4611 202.319 1.62345C185.102 1.78579 167.74 1.94814 150.524 2.11048C141.04 2.19166 131.411 2.29989 121.927 2.38106C113.319 2.46223 104.857 2.46223 96.2484 2.48929C78.7403 2.51635 61.2322 2.5434 43.724 2.73281C39.347 2.78692 35.1159 2.84104 30.8847 2.94927C27.3831 3.03044 23.8815 3.13867 20.5258 3.27396C17.8995 3.38219 15.2733 3.54453 12.793 3.70688C11.334 3.78805 9.87497 3.95039 8.56186 4.11274C5.93564 4.49154 4.18483 4.97858 3.16352 5.57384C0.8291 6.71026 0.537298 8.06313 1.55861 9.25366C2.14221 9.95716 3.45532 10.6336 5.49794 11.2289C6.51924 11.4183 7.54055 11.6077 8.56186 11.7971C10.8963 12.0676 13.2307 12.0676 15.4192 11.7971C16.0028 11.6888 17.17 11.5806 18.1913 11.4994Z"/>
</svg>
