<svg width="115" height="20" viewBox="0 0 115 20" fill="none" xmlns="http://www.w3.org/2000/svg">
<g clip-path="url(#clip0_2239_879)">
<path d="M4.96014 11.4994C6.44533 11.2289 8.05094 11.1206 9.57627 11.0124C10.4594 10.9583 11.3023 10.9312 12.1854 10.9042C13.4297 10.8501 14.6741 10.823 15.9586 10.823C18.367 10.7959 20.7353 10.7689 23.1437 10.7689C27.9204 10.7689 32.6971 10.7418 37.5139 10.5795C42.4913 10.4171 47.4285 10.2548 52.4059 10.0924C57.1023 9.9301 61.7987 9.76776 66.5353 9.65953C71.2317 9.52424 75.9683 9.41601 80.6647 9.22661C85.4815 9.01015 90.2983 8.90192 95.1152 8.82074C97.4032 8.76663 99.6912 8.71251 101.979 8.55017C103.183 8.469 104.347 8.36077 105.552 8.25254C106.716 8.14431 107.88 8.09019 109.044 8.00902C110.128 7.92785 111.171 7.9549 112.255 8.00902C113.018 7.9549 113.62 7.68433 114.021 7.22435C114.222 6.92672 114.463 6.65614 114.663 6.35851C115.065 5.6009 115.266 4.81624 115.225 4.00451C115.225 3.19278 115.065 2.40812 114.663 1.65051C114.463 1.35287 114.222 1.0823 114.021 0.784667C113.62 0.32469 113.058 0.0811725 112.255 0C111.653 0.0270575 111.091 0.0811725 110.489 0.10823C109.967 0.135287 109.405 0.135287 108.883 0.135287C107.719 0.135287 106.595 0.162345 105.431 0.189403C103.023 0.243518 100.655 0.351748 98.2461 0.405863C93.5898 0.487035 88.9336 0.514092 84.3174 0.703495C81.8287 0.811725 79.34 0.919955 76.8513 1.00113C74.6035 1.0823 72.3155 1.13642 70.0676 1.19053C65.2508 1.29876 60.434 1.46111 55.6171 1.62345C50.8806 1.7858 46.1039 1.94814 41.3674 2.11048C38.7582 2.19166 36.109 2.29989 33.4999 2.38106C31.1316 2.46223 28.8035 2.46223 26.4352 2.48929C21.6183 2.51635 16.8015 2.54341 11.9847 2.73281C10.7805 2.78692 9.61641 2.84104 8.45234 2.94927C7.48898 3.03044 6.52561 3.13867 5.60239 3.27396C4.87986 3.38219 4.15734 3.54453 3.47495 3.70688C3.07355 3.78805 2.67215 3.9504 2.31088 4.11274C1.58836 4.49155 1.10668 4.97858 0.825695 5.57384C0.183451 6.71026 0.10317 8.06313 0.384152 9.25366C0.544713 9.95716 0.905975 10.6336 1.46794 11.2289C1.74892 11.4183 2.0299 11.6077 2.31088 11.7971C2.95313 12.0676 3.59537 12.0676 4.19748 11.7971C4.35804 11.6888 4.67916 11.5806 4.96014 11.4994Z" fill="white"/>
</g>
<defs>
<clipPath id="clip0_2239_879">
<rect width="115" height="20" fill="white"/>
</clipPath>
</defs>
</svg>
