<svg width="16" height="16" viewBox="0 0 16 16" fill="none" xmlns="http://www.w3.org/2000/svg">
<path fill-rule="evenodd" clip-rule="evenodd" d="M0.453619 0.459485C0.972416 -0.0569753 1.81345 -0.0568723 2.33212 0.459715L7.52854 5.63187L12.7315 0.450316C13.25 -0.0664417 14.0911 -0.0668201 14.61 0.449471C15.129 0.965761 15.1294 1.80321 14.6109 2.31997L9.40681 7.5026L14.6755 12.8047C15.1942 13.3213 15.1941 14.1588 14.6753 14.6752C14.1565 15.1917 13.3155 15.1916 12.7968 14.675L7.52916 9.37395L2.37633 14.6348C1.85784 15.1515 1.0168 15.1519 0.497835 14.6356C-0.0211324 14.1193 -0.0215124 13.2819 0.496986 12.7651L5.65089 7.50322L0.453388 2.32998C-0.0652819 1.8134 -0.0651785 0.975946 0.453619 0.459485Z" fill="#E4003E"/>
</svg>
