<svg width="29" height="29" viewBox="0 0 29 29" fill="none" xmlns="http://www.w3.org/2000/svg">
<path d="M21.1462 15.7084C22.1472 15.7084 22.9587 14.8969 22.9587 13.8959C22.9587 12.8949 22.1472 12.0834 21.1462 12.0834C20.1451 12.0834 19.3337 12.8949 19.3337 13.8959C19.3337 14.8969 20.1451 15.7084 21.1462 15.7084Z" fill="#E4003E"/>
<path d="M18.2063 6.87287C19.0732 7.37338 19.3702 8.48189 18.8697 9.34879C18.3692 10.2157 17.2607 10.5127 16.3938 10.0122C15.5269 9.51171 15.2298 8.4032 15.7303 7.53629C16.2308 6.66939 17.3394 6.37237 18.2063 6.87287Z" fill="#E4003E"/>
<path d="M12.2239 8.14046C11.7233 7.27356 10.6148 6.97653 9.74793 7.47704C8.88102 7.97755 8.584 9.08606 9.08451 9.95296C9.58502 10.8199 10.6935 11.1169 11.5604 10.6164C12.4273 10.1159 12.7244 9.00737 12.2239 8.14046Z" fill="#E4003E"/>
<path d="M6.04199 15.1042C6.04199 14.1032 6.85348 13.2917 7.85449 13.2917C8.85551 13.2917 9.66699 14.1032 9.66699 15.1042C9.66699 16.1053 8.85551 16.9167 7.85449 16.9167C6.85348 16.9167 6.04199 16.1053 6.04199 15.1042Z" fill="#E4003E"/>
<path d="M10.131 19.6514C9.63046 20.5183 9.92748 21.6268 10.7944 22.1273C11.6613 22.6278 12.7698 22.3308 13.2703 21.4639C13.7708 20.597 13.4738 19.4885 12.6069 18.9879C11.74 18.4874 10.6315 18.7845 10.131 19.6514Z" fill="#E4003E"/>
<path fill-rule="evenodd" clip-rule="evenodd" d="M2.41699 14.5001C2.41699 7.82664 7.82689 2.41675 14.5003 2.41675C21.1738 2.41675 26.5837 7.82664 26.5837 14.5001C26.5837 17.8368 23.8787 20.5417 20.542 20.5417C19.2073 20.5417 18.1253 21.6237 18.1253 22.9584V24.1667C18.1253 25.5014 17.0433 26.5834 15.7087 26.5834H14.5003C7.82689 26.5834 2.41699 21.1735 2.41699 14.5001ZM16.3128 22.9584V24.1667C16.3128 24.5004 16.0423 24.7709 15.7087 24.7709H14.5003C8.8279 24.7709 4.22949 20.1725 4.22949 14.5001C4.22949 8.82766 8.8279 4.22925 14.5003 4.22925C20.1728 4.22925 24.7712 8.82766 24.7712 14.5001C24.7712 16.8358 22.8777 18.7292 20.542 18.7292C18.2063 18.7292 16.3128 20.6227 16.3128 22.9584Z" fill="#E4003E"/>
</svg>
