<svg width="20" height="20" viewBox="0 0 20 20" fill="none" xmlns="http://www.w3.org/2000/svg">
<path d="M7.01434 10.2776C7.4554 10.2776 7.81295 9.92008 7.81295 9.47902C7.81295 9.03796 7.4554 8.68041 7.01434 8.68041C6.57328 8.68041 6.21573 9.03796 6.21573 9.47902C6.21573 9.92008 6.57328 10.2776 7.01434 10.2776Z" fill="#EEFF04"/>
<path d="M10.717 10.2684C11.0251 9.74011 11.7885 9.74011 12.0966 10.2684L14.1966 13.8683C14.5071 14.4007 14.1231 15.0693 13.5067 15.0693L6.92747 15.0693C6.30381 15.0693 5.92082 14.3864 6.24603 13.8543L7.73022 11.4256C8.04163 10.916 8.7817 10.916 9.0931 11.4256L9.57857 12.22L10.717 10.2684Z" fill="#EEFF04"/>
<path fill-rule="evenodd" clip-rule="evenodd" d="M3.33301 1.6665C1.9523 1.6665 0.833008 2.78579 0.833008 4.1665V15.8332C0.833008 17.2139 1.9523 18.3332 3.33301 18.3332H16.6663C18.0471 18.3332 19.1663 17.2139 19.1663 15.8332V4.1665C19.1663 2.78579 18.0471 1.6665 16.6663 1.6665H3.33301ZM2.49967 15.8332V7.50319H17.4997V15.8332C17.4997 16.2934 17.1266 16.6665 16.6663 16.6665H3.33301C2.87277 16.6665 2.49967 16.2934 2.49967 15.8332ZM5.00456 4.63818C5.00456 5.09842 4.63146 5.47152 4.17122 5.47152C3.71099 5.47152 3.33789 5.09842 3.33789 4.63818C3.33789 4.17795 3.71099 3.80485 4.17122 3.80485C4.63146 3.80485 5.00456 4.17795 5.00456 4.63818ZM7.50456 4.63818C7.50456 5.09842 7.13146 5.47152 6.67122 5.47152C6.21099 5.47152 5.83789 5.09842 5.83789 4.63818C5.83789 4.17795 6.21099 3.80485 6.67122 3.80485C7.13146 3.80485 7.50456 4.17795 7.50456 4.63818ZM9.17122 5.47152C9.63146 5.47152 10.0046 5.09842 10.0046 4.63818C10.0046 4.17795 9.63146 3.80485 9.17122 3.80485C8.71099 3.80485 8.33789 4.17795 8.33789 4.63818C8.33789 5.09842 8.71099 5.47152 9.17122 5.47152Z" fill="#EEFF04"/>
</svg>
