<?xml version="1.0" encoding="UTF-8"?><svg id="Ebene_1" xmlns="http://www.w3.org/2000/svg" viewBox="0 0 40 39.65"><defs><style>.cls-1{fill:#e8e11b;}</style></defs><path class="cls-1" d="m39.54,1C38.98.27,38.22,0,37.32,0c-4.82,0-9.63,0-14.45,0C16.15,0,9.42,0,2.69,0,1.63,0,.78.37.27,1.34.1,1.66,0,2.01,0,2.39c0,7.11,0,14.22,0,21.32,0,.25.06.37.32.33.1-.01.21,0,.31,0,12.95,0,25.9,0,38.86,0,.17,0,.34,0,.51,0V1.94c-.17-.3-.24-.65-.46-.93Z"/><path class="cls-1" d="m.37,28.41c-.41,0-.41.14-.33.87.11.95.06,1.91-.03,2.86-.04.48.02.94.24,1.36.51.96,1.33,1.34,2.41,1.34,3.98,0,7.95,0,11.93,0v1.46c0,.5-.21.97-.59,1.29-.1.08-.19.16-.27.22-.22.16-.44.25-.72.23-.35-.02-.7-.02-1.05,0-.42.02-.73.35-.76.76-.02.37.25.7.65.81.17.05.33.05.5.05,2.55,0,5.1,0,7.65,0s5.1,0,7.65,0c.27,0,.53-.02.77-.14.27-.13.42-.51.36-.81-.1-.47-.39-.75-.96-.67-.66.09-1.2-.05-1.67-.34s-.78-.85-.78-1.43v-1.44c3.99,0,7.98,0,11.96,0,.1,0,.21,0,.31,0,.56,0,1.03-.21,1.47-.54.45-.35.65-.85.88-1.34v-4.53c-9.49,0-18.98,0-28.46,0-3.72,0-7.44,0-11.17,0Z"/></svg>
