<svg width="20" height="20" viewBox="0 0 20 20" fill="none" xmlns="http://www.w3.org/2000/svg">
<path d="M2.70508 5.78597C3.62555 5.78597 4.37174 5.03978 4.37174 4.1193C4.37174 3.19883 3.62555 2.45264 2.70508 2.45264C1.7846 2.45264 1.03841 3.19883 1.03841 4.1193C1.03841 5.03978 1.7846 5.78597 2.70508 5.78597Z" fill="#EEFF04"/>
<path d="M10.4323 5.7667C11.0755 4.66419 12.6685 4.66419 13.3116 5.7667L15.5459 9.5969C15.2126 9.78503 14.8923 9.90598 14.5763 10.0253C13.9443 10.264 13.3291 10.4964 12.6598 11.2469C11.2272 12.8534 11.2534 14.53 11.494 15.786L2.52377 15.786C1.22222 15.786 0.422945 14.3608 1.10164 13.2502L4.19909 8.18166C4.84897 7.11821 6.39348 7.11821 7.04336 8.18166L8.05651 9.83953L10.4323 5.7667Z" fill="#EEFF04"/>
<path d="M12.9997 15.8869C12.7704 15.0319 12.6198 13.7514 13.743 12.2039C14.165 11.6225 14.8 11.3607 15.4912 11.0756C16.3273 10.7308 17.2457 10.3521 17.9687 9.33279C18.1771 9.03901 18.6559 9.04996 18.7847 9.38633C20.0218 12.6178 20.3349 16.1403 15.822 17.5437L12.9997 15.8869Z" fill="#EEFF04"/>
<path d="M11.675 16.8256C11.8569 16.5106 12.2598 16.4026 12.5749 16.5845L15.4719 18.257C15.787 18.4389 15.8949 18.8418 15.713 19.1569L15.4793 19.5617C15.2974 19.8768 14.8945 19.9847 14.5795 19.8028L11.6824 18.1303C11.3674 17.9484 11.2594 17.5455 11.4413 17.2305L11.675 16.8256Z" fill="#EEFF04"/>
</svg>
