<?xml version="1.0" encoding="UTF-8"?><svg id="Ebene_1" xmlns="http://www.w3.org/2000/svg" viewBox="0 0 36.45 40"><defs><style>.cls-1{fill:#e8e11b;}</style></defs><path class="cls-1" d="m17.79,32.03c-1.21,0-2.42,0-3.63,0-1.06,0-1.51-.42-1.47-1.48.09-1.97-.69-3.53-1.96-4.98-2.48-2.83-3.1-6.11-1.77-9.62,1.34-3.53,4.01-5.59,7.76-6.06,5.11-.64,9.75,2.94,10.48,8.04.44,3.07-.48,5.73-2.59,8-1.13,1.21-1.72,2.64-1.67,4.32,0,.08,0,.17,0,.25,0,1.13-.4,1.53-1.53,1.54-1.21,0-2.42,0-3.63,0Z"/><path class="cls-1" d="m17.78,36.98c-.94,0-1.89.01-2.83,0-.52-.01-.91-.39-.96-.87-.05-.49.22-.92.69-1.06.14-.04.29-.05.43-.05,1.8,0,3.61,0,5.41,0,.69,0,1.13.41,1.13,1.01,0,.6-.45.99-1.15.99-.91,0-1.82,0-2.72,0,0,0,0,0,0,0Z"/><path class="cls-1" d="m17.8,39.99c-.62,0-1.25,0-1.87,0-.34,0-.6-.26-.63-.58-.03-.32.15-.61.46-.7.09-.03.19-.04.28-.04,1.19,0,2.38,0,3.58,0,.46,0,.75.27.75.67,0,.39-.3.65-.76.66-.6,0-1.2,0-1.8,0,0,0,0,0,0,0Z"/><path class="cls-1" d="m19.42,3.25c0,.54.02,1.09,0,1.63-.05.94-.71,1.59-1.59,1.59-.88,0-1.57-.65-1.6-1.58-.03-1.1-.03-2.21,0-3.32C16.26.65,16.97-.01,17.85,0c.85.01,1.52.66,1.57,1.56.03.56,0,1.12,0,1.69,0,0,0,0,0,0Z"/><path class="cls-1" d="m3.03,15.7c.5,0,1-.02,1.5,0,.84.05,1.42.66,1.43,1.45,0,.79-.56,1.44-1.4,1.48-1.05.05-2.11.04-3.16,0C.57,18.6,0,17.95,0,17.16c0-.8.62-1.42,1.48-1.46.52-.02,1.04,0,1.55,0,0,0,0,0,0,0Z"/><path class="cls-1" d="m33.06,15.5c.59,0,1.18-.03,1.77,0,.94.05,1.61.77,1.62,1.65,0,.89-.65,1.63-1.59,1.67-1.2.05-2.4.05-3.59,0-.95-.04-1.59-.78-1.59-1.68,0-.89.67-1.59,1.62-1.65.59-.03,1.18,0,1.77,0Z"/><path class="cls-1" d="m10.54,8.54c0,.43-.24.9-.78,1.18-.56.29-1.16.28-1.64-.12-.93-.78-1.79-1.65-2.58-2.58-.5-.58-.38-1.46.16-2,.53-.53,1.43-.63,2-.11.89.81,1.71,1.68,2.55,2.53.25.25.3.6.3,1.1Z"/><path class="cls-1" d="m30.98,5.72c-.03.5-.2.91-.54,1.25-.79.79-1.57,1.6-2.38,2.37-.76.73-1.85.74-2.51.07-.65-.67-.61-1.76.12-2.51.8-.81,1.6-1.63,2.43-2.41.55-.52,1.21-.62,1.9-.29.64.31.93.86.98,1.52Z"/></svg>
