<svg width="20" height="20" viewBox="0 0 20 20" fill="none" xmlns="http://www.w3.org/2000/svg">
<path d="M6.43021 16.1294H3.76407V7.31949H6.54613V16.1294H6.43021ZM5.1551 6.1603C4.22774 6.1603 3.53223 5.34886 3.53223 4.53742C3.53223 3.61007 4.22774 2.91455 5.1551 2.91455C6.08246 2.91455 6.77797 3.61007 6.77797 4.53742C6.66205 5.34886 5.96654 6.1603 5.1551 6.1603ZM16.7471 16.1294H13.965V11.8404C13.965 10.7971 13.965 9.52196 12.5739 9.52196C11.1829 9.52196 10.9511 10.6812 10.9511 11.8404V16.2453H8.16901V7.31949H10.8352V8.47869C11.1829 7.78317 12.1103 7.08765 13.3854 7.08765C16.1675 7.08765 16.6311 8.94237 16.6311 11.2608V16.1294H16.7471Z" fill="#F5FF00"/>
</svg>
