<?xml version="1.0" encoding="UTF-8"?><svg id="Ebene_1" xmlns="http://www.w3.org/2000/svg" viewBox="0 0 40 39.89"><defs><style>.cls-1{fill:#e8e11b;}</style></defs><path class="cls-1" d="m34.05,9.99c1.06,0,1.81-.22,2.52-.63.58-.34.99-.23,1.33.34.89,1.51,1.54,3.12,2.01,4.8.06.21.13.43.05.65-.11.32-.33.51-.66.59-.78.18-1.46.54-2.04,1.09-1.95,1.83-1.76,5,.39,6.59.49.36,1.03.59,1.61.74.6.15.85.55.68,1.15-.47,1.73-1.15,3.39-2.06,4.94-.31.53-.76.63-1.28.31-2.65-1.63-6.1-.11-6.58,3.08-.15.96.05,1.9.55,2.75.02.04.05.08.07.13.32.57.23.95-.34,1.29-.43.26-.87.48-1.32.69-1.17.55-2.37,1.01-3.61,1.34-.61.16-1.03-.19-1.15-.69-.49-2.07-2.48-3.57-4.7-3.3-1.78.22-3.21,1.43-3.68,3.15-.02.06-.04.13-.05.19-.19.6-.55.81-1.16.64-1.75-.47-3.41-1.16-4.97-2.07-.48-.28-.59-.73-.3-1.24.31-.53.54-1.09.64-1.7.27-1.73-.67-3.6-2.23-4.4-1.48-.76-2.93-.71-4.36.12-.54.31-.99.22-1.28-.31-.88-1.57-1.6-3.2-2.05-4.94-.16-.63.08-1.01.71-1.15,2.06-.46,3.53-2.5,3.32-4.6-.19-1.83-1.43-3.3-3.21-3.77-.06-.02-.13-.03-.19-.05-.55-.16-.79-.56-.64-1.1.48-1.71,1.14-3.35,2.02-4.9.31-.55.85-.75,1.37-.36.05.04.12.06.17.09,2.55,1.41,5.78-.05,6.35-2.99.19-1,.04-1.96-.47-2.86-.07-.13-.15-.25-.21-.39-.18-.4-.09-.76.27-1.01.6-.42,1.27-.71,1.92-1.01,1.04-.48,2.11-.86,3.22-1.15.57-.14.97.1,1.1.67.19.81.57,1.5,1.16,2.08.9.89,1.97,1.33,3.24,1.27,1.69-.08,2.88-.93,3.69-2.36.18-.31.26-.67.35-1.01.17-.59.54-.8,1.13-.64,1.67.43,3.24,1.1,4.74,1.92.13.07.25.15.37.24.37.28.46.67.22,1.07-.32.54-.57,1.11-.66,1.74-.21,1.52.25,2.8,1.36,3.84.81.76,1.79,1.11,2.66,1.12Zm-14.02,20.03c5.52.07,10.17-4.36,10.08-10.21-.08-5.5-4.59-10.06-10.35-9.96-5.44.1-10.06,4.54-9.87,10.48.17,5.24,4.61,9.76,10.14,9.69Z"/></svg>
