<svg width="20" height="20" viewBox="0 0 20 20" fill="none" xmlns="http://www.w3.org/2000/svg">
<path d="M17.114 1.99781C17.2694 1.84113 17.24 1.5784 17.0386 1.48978C15.9942 1.03023 14.7327 1.23124 13.8782 2.0928C13.1467 2.83037 12.8953 3.86873 13.124 4.81302L11.2328 6.72344C11.1268 6.83043 11.1367 7.00637 11.253 7.10173C11.8559 7.59589 12.6434 8.28178 13.1784 8.84123C13.2788 8.94628 13.4461 8.95014 13.5477 8.84621L15.3916 6.95993C16.2794 7.11993 17.228 6.85402 17.9141 6.16221C18.7689 5.30038 18.9681 4.02787 18.5118 2.97461C18.4238 2.77161 18.1633 2.74202 18.008 2.89866L16.4634 4.45603C16.3965 4.52349 16.288 4.52349 16.2211 4.45603L15.5697 3.79923C15.5028 3.73177 15.5028 3.62239 15.5697 3.55493L17.114 1.99781Z" fill="#EEFF04"/>
<path d="M6.40107 11.6478L5.03683 13.0656C4.11373 12.8559 3.10729 13.1133 2.38871 13.8378C1.53397 14.6996 1.33475 15.9721 1.79108 17.0254C1.87903 17.2284 2.13953 17.258 2.29489 17.1013L3.83945 15.544C3.90636 15.4765 4.01484 15.4765 4.08175 15.544L4.73314 16.2008C4.80005 16.2682 4.80005 16.3776 4.73314 16.4451L3.18883 18.0022C3.03344 18.1589 3.06284 18.4216 3.26425 18.5102C4.30866 18.9698 5.57018 18.7688 6.42466 17.9072C7.1188 17.2073 7.38061 16.2366 7.21009 15.3324L8.52056 14.0341C8.62184 13.9329 8.61934 13.7673 8.51759 13.6665C7.93088 13.0856 7.26786 12.3064 6.78426 11.673C6.69012 11.5497 6.50936 11.537 6.40107 11.6478Z" fill="#EEFF04"/>
<path d="M1.35249 1.86307C1.30669 1.8169 1.23092 1.86677 1.25441 1.92762L2.50305 5.16171C2.56022 5.33925 2.6828 5.48788 2.8455 5.57693C3.05051 5.68915 3.31371 5.80854 3.5638 5.922C3.86059 6.05663 4.13895 6.1829 4.27971 6.27886L5.03818 6.81146C5.14345 6.88538 5.28635 6.87143 5.37561 6.77853L6.49674 5.6116C6.58442 5.52034 6.59511 5.37902 6.52219 5.2754L6.03203 4.57895C5.98812 4.51657 5.94969 4.45045 5.91715 4.38136L5.32055 3.11443C5.23399 2.93987 5.08158 2.80764 4.89749 2.74738L1.64918 1.51693C1.58892 1.4941 1.5403 1.57017 1.58582 1.61607L3.49709 3.54319C3.67883 3.42711 4.04142 3.43603 4.2564 3.65279C4.51121 3.90972 4.53452 4.30281 4.27971 4.55973C4.0249 4.81666 3.63461 4.79366 3.3798 4.53674C3.16482 4.31997 3.14502 4.01215 3.25798 3.78436L1.35249 1.86307Z" fill="#EEFF04"/>
<path d="M7.60531 6.09179C7.51023 6.04293 7.39721 6.06622 7.32286 6.1434C7.13888 6.33437 6.90928 6.58158 6.67135 6.83777C6.399 7.13102 6.11559 7.43617 5.87735 7.682C5.80086 7.76093 5.77893 7.87829 5.82927 7.97627C6.39736 9.08216 8.03355 11.2023 9.50251 12.6834C11.0477 14.2415 16.8791 18.4088 16.8791 18.4088C17.2577 18.7015 17.7163 18.7356 18.0404 18.4088C18.3646 18.0819 18.316 17.5973 18.0367 17.2416C18.0367 17.2416 13.9774 11.6344 12.3894 10.0333C10.8811 8.5124 8.66944 6.63872 7.60531 6.09179Z" fill="#EEFF04"/>
</svg>
