<svg width="49" height="49" viewBox="0 0 49 49" fill="none" xmlns="http://www.w3.org/2000/svg">
<g filter="url(#filter0_d_2033_2857)">
<rect x="4" width="41" height="41" rx="10" fill="white" fill-opacity="0.2" shape-rendering="crispEdges"/>
<path d="M17.8542 10.8335C17.8542 10.333 17.4484 9.92725 16.9479 9.92725C16.4474 9.92725 16.0417 10.333 16.0417 10.8335V15.9689C16.0417 16.4694 16.4474 16.8752 16.9479 16.8752H22.0833C22.5838 16.8752 22.9896 16.4694 22.9896 15.9689C22.9896 15.4684 22.5838 15.0627 22.0833 15.0627H18.8324C19.7954 14.0589 21.0117 13.325 22.3599 12.9432C23.9803 12.4843 25.7053 12.5584 27.2804 13.1546C28.8555 13.7508 30.1972 14.8375 31.1077 16.2544C32.0181 17.6713 32.4489 19.3432 32.3367 21.0237C32.2244 22.7041 31.575 24.3039 30.4842 25.5871C29.3934 26.8703 27.9191 27.7689 26.2787 28.1503C24.6383 28.5317 22.9187 28.3757 21.3737 27.7053C19.8288 27.035 18.5401 25.8858 17.6981 24.4272C17.4478 23.9938 16.8936 23.8453 16.4601 24.0955C16.0267 24.3458 15.8781 24.9 16.1284 25.3335C17.1648 27.1286 18.7508 28.543 20.6523 29.3681C22.5538 30.1931 24.6702 30.3851 26.6892 29.9157C28.7081 29.4463 30.5227 28.3403 31.8652 26.761C33.2077 25.1817 34.007 23.2127 34.1452 21.1445C34.2833 19.0763 33.753 17.0184 32.6325 15.2746C31.512 13.5308 29.8606 12.1933 27.922 11.4595C25.9835 10.7257 23.8604 10.6345 21.866 11.1993C20.3571 11.6266 18.9823 12.4123 17.8542 13.4804V10.8335Z" fill="white"/>
</g>
<defs>
<filter id="filter0_d_2033_2857" x="0" y="0" width="49" height="49" filterUnits="userSpaceOnUse" color-interpolation-filters="sRGB">
<feFlood flood-opacity="0" result="BackgroundImageFix"/>
<feColorMatrix in="SourceAlpha" type="matrix" values="0 0 0 0 0 0 0 0 0 0 0 0 0 0 0 0 0 0 127 0" result="hardAlpha"/>
<feOffset dy="4"/>
<feGaussianBlur stdDeviation="2"/>
<feComposite in2="hardAlpha" operator="out"/>
<feColorMatrix type="matrix" values="0 0 0 0 0 0 0 0 0 0 0 0 0 0 0 0 0 0 0.25 0"/>
<feBlend mode="normal" in2="BackgroundImageFix" result="effect1_dropShadow_2033_2857"/>
<feBlend mode="normal" in="SourceGraphic" in2="effect1_dropShadow_2033_2857" result="shape"/>
</filter>
</defs>
</svg>
