<svg width="29" height="29" viewBox="0 0 29 29" fill="none" xmlns="http://www.w3.org/2000/svg">
<path d="M7.85415 4.8335C7.85415 4.33299 7.44841 3.92725 6.9479 3.92725C6.44739 3.92725 6.04165 4.33299 6.04165 4.8335V9.96891C6.04165 10.4694 6.44739 10.8752 6.9479 10.8752H12.0833C12.5838 10.8752 12.9896 10.4694 12.9896 9.96891C12.9896 9.4684 12.5838 9.06266 12.0833 9.06266H8.83238C9.79541 8.05887 11.0117 7.32498 12.3599 6.94319C13.9803 6.48429 15.7053 6.55841 17.2804 7.15461C18.8555 7.75081 20.1972 8.83752 21.1077 10.2544C22.0181 11.6713 22.4489 13.3432 22.3367 15.0237C22.2244 16.7041 21.575 18.3039 20.4842 19.5871C19.3934 20.8703 17.9191 21.7689 16.2787 22.1503C14.6383 22.5317 12.9187 22.3757 11.3737 21.7053C9.82875 21.035 8.54015 19.8858 7.69807 18.4272C7.44782 17.9938 6.89356 17.8453 6.46011 18.0955C6.02666 18.3458 5.87815 18.9 6.1284 19.3335C7.1648 21.1286 8.75077 22.543 10.6523 23.3681C12.5538 24.1931 14.6702 24.3851 16.6892 23.9157C18.7081 23.4463 20.5227 22.3403 21.8652 20.761C23.2077 19.1817 24.007 17.2127 24.1452 15.1445C24.2833 13.0763 23.753 11.0184 22.6325 9.27459C21.512 7.53075 19.8606 6.19327 17.922 5.45948C15.9835 4.72569 13.8604 4.63447 11.866 5.19927C10.3571 5.6266 8.98229 6.41233 7.85415 7.48036V4.8335Z" fill="white"/>
</svg>
