<svg width="29" height="29" viewBox="0 0 29 29" fill="none" xmlns="http://www.w3.org/2000/svg">
<path d="M2.41699 3.32275C2.41699 2.82225 2.82273 2.4165 3.32324 2.4165H6.34408C6.84458 2.4165 7.25033 2.82225 7.25033 3.32275C7.25033 3.82326 6.84458 4.229 6.34408 4.229H4.22949V6.34359C4.22949 6.8441 3.82375 7.24984 3.32324 7.24984C2.82273 7.24984 2.41699 6.8441 2.41699 6.34359V3.32275Z" fill="#8AA8BB"/>
<path d="M2.41699 25.6769V22.6561C2.41699 22.1556 2.82273 21.7498 3.32324 21.7498C3.82375 21.7498 4.22949 22.1556 4.22949 22.6561L4.22949 24.7707H6.34408C6.84458 24.7707 7.25033 25.1764 7.25033 25.6769C7.25033 26.1774 6.84458 26.5832 6.34408 26.5832H3.32324C3.08289 26.5832 2.85238 26.4877 2.68243 26.3177C2.51247 26.1478 2.41699 25.9173 2.41699 25.6769Z" fill="#8AA8BB"/>
<path d="M21.7503 25.6769C21.7503 26.1774 22.1561 26.5832 22.6566 26.5832H25.6774C25.9178 26.5832 26.1483 26.4877 26.3182 26.3177C26.4882 26.1478 26.5837 25.9173 26.5837 25.6769V22.6561C26.5837 22.1556 26.1779 21.7498 25.6774 21.7498C25.1769 21.7498 24.7712 22.1556 24.7712 22.6561V24.7707H22.6566C22.1561 24.7707 21.7503 25.1764 21.7503 25.6769Z" fill="#8AA8BB"/>
<path d="M26.5837 3.32275V6.34359C26.5837 6.8441 26.1779 7.24984 25.6774 7.24984C25.1769 7.24984 24.7712 6.8441 24.7712 6.34359V4.229L22.6566 4.229C22.1561 4.229 21.7503 3.82326 21.7503 3.32275C21.7503 2.82225 22.1561 2.4165 22.6566 2.4165H25.6774C26.1779 2.4165 26.5837 2.82225 26.5837 3.32275Z" fill="#8AA8BB"/>
<path d="M16.3128 14.4998C16.3128 13.4988 15.5013 12.6873 14.5003 12.6873C13.4993 12.6873 12.6878 13.4988 12.6878 14.4998C12.6878 15.5009 13.4993 16.3123 14.5003 16.3123C15.5013 16.3123 16.3128 15.5009 16.3128 14.4998Z" fill="#8AA8BB"/>
<path fill-rule="evenodd" clip-rule="evenodd" d="M9.66699 7.854L10.5166 6.57957C10.7407 6.24342 11.118 6.0415 11.522 6.0415H17.4786C17.8827 6.0415 18.2599 6.24342 18.484 6.57957L19.3337 7.854H21.7503C23.085 7.854 24.167 8.93598 24.167 10.2707V19.3332C24.167 20.6679 23.085 21.7498 21.7503 21.7498H7.25033C5.91564 21.7498 4.83366 20.6679 4.83366 19.3332V10.2707C4.83366 8.93598 5.91564 7.854 7.25033 7.854H9.66699ZM18.1253 14.4998C18.1253 12.4978 16.5024 10.8748 14.5003 10.8748C12.4983 10.8748 10.8753 12.4978 10.8753 14.4998C10.8753 16.5019 12.4983 18.1248 14.5003 18.1248C16.5024 18.1248 18.1253 16.5019 18.1253 14.4998Z" fill="#8AA8BB"/>
</svg>
