<svg width="49" height="49" viewBox="0 0 49 49" fill="none" xmlns="http://www.w3.org/2000/svg">
<g filter="url(#filter0_d_2033_2859)">
<rect x="4" width="41" height="41" rx="10" fill="#F5FF00" fill-opacity="0.2" shape-rendering="crispEdges"/>
<path d="M12.417 9.32275C12.417 8.82225 12.8227 8.4165 13.3232 8.4165H16.3441C16.8446 8.4165 17.2503 8.82225 17.2503 9.32275C17.2503 9.82326 16.8446 10.229 16.3441 10.229H14.2295V12.3436C14.2295 12.8441 13.8238 13.2498 13.3232 13.2498C12.8227 13.2498 12.417 12.8441 12.417 12.3436V9.32275Z" fill="#EEFF04"/>
<path d="M12.417 31.6769V28.6561C12.417 28.1556 12.8227 27.7498 13.3232 27.7498C13.8238 27.7498 14.2295 28.1556 14.2295 28.6561L14.2295 30.7707H16.3441C16.8446 30.7707 17.2503 31.1764 17.2503 31.6769C17.2503 32.1774 16.8446 32.5832 16.3441 32.5832H13.3232C13.0829 32.5832 12.8524 32.4877 12.6824 32.3177C12.5125 32.1478 12.417 31.9173 12.417 31.6769Z" fill="#EEFF04"/>
<path d="M31.7503 31.6769C31.7503 32.1774 32.1561 32.5832 32.6566 32.5832H35.6774C35.9178 32.5832 36.1483 32.4877 36.3182 32.3177C36.4882 32.1478 36.5837 31.9173 36.5837 31.6769V28.6561C36.5837 28.1556 36.1779 27.7498 35.6774 27.7498C35.1769 27.7498 34.7712 28.1556 34.7712 28.6561V30.7707H32.6566C32.1561 30.7707 31.7503 31.1764 31.7503 31.6769Z" fill="#EEFF04"/>
<path d="M36.5837 9.32275V12.3436C36.5837 12.8441 36.1779 13.2498 35.6774 13.2498C35.1769 13.2498 34.7712 12.8441 34.7712 12.3436V10.229L32.6566 10.229C32.1561 10.229 31.7503 9.82326 31.7503 9.32275C31.7503 8.82225 32.1561 8.4165 32.6566 8.4165H35.6774C36.1779 8.4165 36.5837 8.82225 36.5837 9.32275Z" fill="#EEFF04"/>
<path d="M26.3128 20.4998C26.3128 19.4988 25.5013 18.6873 24.5003 18.6873C23.4993 18.6873 22.6878 19.4988 22.6878 20.4998C22.6878 21.5009 23.4993 22.3123 24.5003 22.3123C25.5013 22.3123 26.3128 21.5009 26.3128 20.4998Z" fill="#EEFF04"/>
<path fill-rule="evenodd" clip-rule="evenodd" d="M19.667 13.854L20.5166 12.5796C20.7407 12.2434 21.118 12.0415 21.522 12.0415H27.4786C27.8827 12.0415 28.2599 12.2434 28.484 12.5796L29.3337 13.854H31.7503C33.085 13.854 34.167 14.936 34.167 16.2707V25.3332C34.167 26.6679 33.085 27.7498 31.7503 27.7498H17.2503C15.9156 27.7498 14.8337 26.6679 14.8337 25.3332V16.2707C14.8337 14.936 15.9156 13.854 17.2503 13.854H19.667ZM28.1253 20.4998C28.1253 18.4978 26.5024 16.8748 24.5003 16.8748C22.4983 16.8748 20.8753 18.4978 20.8753 20.4998C20.8753 22.5019 22.4983 24.1248 24.5003 24.1248C26.5024 24.1248 28.1253 22.5019 28.1253 20.4998Z" fill="#EEFF04"/>
</g>
<defs>
<filter id="filter0_d_2033_2859" x="0" y="0" width="49" height="49" filterUnits="userSpaceOnUse" color-interpolation-filters="sRGB">
<feFlood flood-opacity="0" result="BackgroundImageFix"/>
<feColorMatrix in="SourceAlpha" type="matrix" values="0 0 0 0 0 0 0 0 0 0 0 0 0 0 0 0 0 0 127 0" result="hardAlpha"/>
<feOffset dy="4"/>
<feGaussianBlur stdDeviation="2"/>
<feComposite in2="hardAlpha" operator="out"/>
<feColorMatrix type="matrix" values="0 0 0 0 0 0 0 0 0 0 0 0 0 0 0 0 0 0 0.25 0"/>
<feBlend mode="normal" in2="BackgroundImageFix" result="effect1_dropShadow_2033_2859"/>
<feBlend mode="normal" in="SourceGraphic" in2="effect1_dropShadow_2033_2859" result="shape"/>
</filter>
</defs>
</svg>
