<svg width="20" height="20" viewBox="0 0 20 20" fill="none" xmlns="http://www.w3.org/2000/svg">
<rect width="17.8737" height="16.1691" transform="translate(1.06445 0.288086)" fill="#1D1E22"/>
<path d="M5.09542 14.4419C5.09542 15.555 4.19305 16.4574 3.07993 16.4574C1.96682 16.4574 1.06445 15.555 1.06445 14.4419C1.06445 13.3288 1.96682 12.4264 3.07993 12.4264C4.19305 12.4264 5.09542 13.3288 5.09542 14.4419Z" fill="#F5FF00"/>
<path d="M18.9382 9.10604C18.9382 10.2192 18.0358 11.1215 16.9227 11.1215C15.8096 11.1215 14.9072 10.2192 14.9072 9.10604C14.9072 7.99292 15.8096 7.09056 16.9227 7.09056C18.0358 7.09056 18.9382 7.99292 18.9382 9.10604Z" fill="#F5FF00"/>
<path d="M3.07943 12.2224V10.6719C3.07943 5.91337 9.93681 5.87964 9.93681 10.6719L9.93697 13.0152C9.93697 17.5441 16.9216 17.4493 16.9216 13.0152C16.9216 12.2349 16.9215 12.9864 16.9215 11.3891M5.09542 14.4419C5.09542 15.555 4.19305 16.4574 3.07993 16.4574C1.96682 16.4574 1.06445 15.555 1.06445 14.4419C1.06445 13.3288 1.96682 12.4264 3.07993 12.4264C4.19305 12.4264 5.09542 13.3288 5.09542 14.4419ZM18.9382 9.10604C18.9382 10.2192 18.0358 11.1215 16.9227 11.1215C15.8096 11.1215 14.9072 10.2192 14.9072 9.10604C14.9072 7.99292 15.8096 7.09056 16.9227 7.09056C18.0358 7.09056 18.9382 7.99292 18.9382 9.10604Z" stroke="#F5FF00" stroke-width="2" stroke-linecap="round"/>
<path d="M12.5767 0.288086C11.9436 0.288086 11.4304 0.840572 11.4304 1.5221L11.4135 7.14093C11.4122 7.56537 11.7554 7.91038 12.1798 7.91131V7.91131C12.6047 7.91225 12.9497 7.568 12.9496 7.14308L12.9492 5.22413H16.1571C16.7979 5.22413 17.1541 4.4262 16.7538 3.88754L15.913 2.75611L16.7538 1.62468C17.1541 1.08602 16.7979 0.288086 16.1571 0.288086H12.5767Z" fill="#F5FF00"/>
</svg>
