<?xml version="1.0" encoding="UTF-8"?><svg id="Ebene_1" xmlns="http://www.w3.org/2000/svg" viewBox="0 0 39.73 39.41"><defs><style>.cls-1{fill:#e4df1e;fill-rule:evenodd;}</style></defs><path class="cls-1" d="m13.11,28.44L5.05,6.3H1.66c-.44,0-.86-.17-1.17-.49-.31-.31-.49-.73-.49-1.17,0-.91.74-1.66,1.66-1.66h5.71l9.05,24.87c1.39.17,2.63.83,3.54,1.8l18.64-6.78,1.13,3.11-18.29,6.66c.05.31.08.64.08.97,0,3.2-2.6,5.79-5.79,5.79s-5.79-2.6-5.79-5.79c0-2.26,1.29-4.21,3.18-5.17Zm2.62,3c1.2,0,2.17.97,2.17,2.17s-.97,2.17-2.17,2.17-2.17-.98-2.17-2.17.97-2.17,2.17-2.17Zm9.42-20l6.8-2.47,3.9,10.72-16.26,5.92-3.9-10.72,6.78-2.47,1.89,5.19,2.68-.98-1.89-5.19Zm.12-3.41l-10.72,3.9-2.93-8.04L22.35,0l2.93,8.04Z"/></svg>
