<svg width="20" height="20" viewBox="0 0 20 20" fill="none" xmlns="http://www.w3.org/2000/svg">
<path d="M2.48215 3.9865C2.92656 3.58088 3.51789 3.3335 4.16699 3.3335H15.8337C16.4828 3.3335 17.0741 3.58088 17.5185 3.9865L10.0003 8.99862L2.48215 3.9865Z" fill="#EEFF04"/>
<path d="M1.69408 5.46421C1.67624 5.58471 1.66699 5.70803 1.66699 5.8335V14.1668C1.66699 15.5475 2.78628 16.6668 4.16699 16.6668H15.8337C17.2144 16.6668 18.3337 15.5475 18.3337 14.1668V5.8335C18.3337 5.70803 18.3244 5.58471 18.3066 5.46421L10.4626 10.6935C10.1827 10.8801 9.81799 10.8801 9.53808 10.6935L1.69408 5.46421Z" fill="#EEFF04"/>
</svg>
