<svg width="45" height="30" viewBox="0 0 45 30" fill="none" xmlns="http://www.w3.org/2000/svg">
<path d="M29.1262 19.6769L19.9766 3.77552L26.5497 0L37.9272 19.6769H29.1262Z" fill="#E4003E"/>
<path d="M4.75391 17.449L11.327 13.6479L14.8049 19.6769H6.02942L4.75391 17.449Z" fill="#E4003E"/>
<path d="M17.6543 29.8217H19.525V22.2537H17.6543V29.8217Z" fill="#E4003E"/>
<path d="M41.0961 30.0001C39.0043 30.0001 37.7458 28.9202 37.6777 27.3981H39.6505C39.6505 27.8743 39.9481 28.5716 41.2237 28.5971C42.074 28.5971 42.4737 28.0954 42.4737 27.7212C42.4226 27.126 41.6743 27.075 40.875 26.9474C40.0757 26.8199 39.3954 26.6753 38.9022 26.4202C38.273 26.0971 37.8478 25.3998 37.8478 24.6005C37.8478 23.2484 39.0213 22.177 40.9771 22.177C42.8733 22.177 44.0723 23.1719 44.1999 24.6515H42.2951C42.2781 24.2518 42.2015 23.6226 41.0791 23.6226C40.3223 23.6226 39.8206 23.7756 39.7781 24.3029C39.7781 25.0767 41.3512 25.0256 42.5757 25.3488C43.7492 25.6464 44.4975 26.3777 44.4975 27.3981C44.4975 29.2773 42.9754 30.0001 41.0961 30.0001Z" fill="#E4003E"/>
<path d="M12.459 10.6975L19.0321 6.90503L26.4046 19.6771H19.5253V21.5479H17.6546V19.6686L12.459 10.6975Z" fill="#E4003E"/>
<path d="M12.6272 30.0001C10.4503 30.0001 8.68164 28.2229 8.68164 26.0716C8.68164 23.8947 10.4503 22.177 12.6272 22.177C13.4521 22.177 14.2004 22.3981 14.8551 22.8488V19.677H16.7259V29.8216H14.8551V29.3199C14.2004 29.745 13.4521 30.0001 12.6272 30.0001ZM10.4759 26.0716C10.4759 27.245 11.4793 28.2229 12.6782 28.2229C13.8517 28.2229 14.8551 27.245 14.8551 26.0716C14.8551 24.8981 13.8517 23.8947 12.6782 23.8947C11.4793 23.8947 10.4759 24.8981 10.4759 26.0716Z" fill="#E4003E"/>
<path d="M26.4547 19.677H28.3V29.8216H26.4547V29.3199C25.8255 29.745 25.0517 30.0001 24.2013 30.0001C22.05 30.0001 20.2812 28.2229 20.2812 26.0716C20.2812 23.8947 22.05 22.177 24.2013 22.177C25.0517 22.177 25.8 22.3981 26.4547 22.8488V19.677ZM22.101 26.0716C22.101 27.245 23.1044 28.2229 24.2523 28.2229C25.4513 28.2229 26.4547 27.245 26.4547 26.0716C26.4547 24.8981 25.4513 23.8947 24.2523 23.8947C23.1044 23.8947 22.101 24.8981 22.101 26.0716Z" fill="#E4003E"/>
<path d="M32.8498 30.0001C30.7069 30.0001 28.9297 28.2229 28.9297 26.0716C28.9297 23.8947 30.7069 22.177 32.8498 22.177C33.6746 22.177 34.4484 22.3981 35.0777 22.8488V22.245H36.9484V29.8216H35.0777V29.3199C34.4484 29.745 33.7001 30.0001 32.8498 30.0001ZM30.7494 26.0716C30.7494 27.245 31.7528 28.2229 32.9263 28.2229C34.0998 28.2229 35.0777 27.245 35.0777 26.0716C35.0777 24.8981 34.0998 23.8947 32.9263 23.8947C31.7528 23.8947 30.7494 24.8981 30.7494 26.0716Z" fill="#E4003E"/>
<path d="M1.80272 26.0716C1.80272 27.245 2.80612 28.2229 3.97959 28.2229C5.17857 28.2229 6.18197 27.245 6.18197 26.0716C6.18197 24.8981 5.17857 23.8947 3.97959 23.8947C2.80612 23.8947 1.80272 24.8981 1.80272 26.0716ZM3.92857 30.0001C1.77721 30.0001 0 28.2229 0 26.0716C0 23.8947 1.77721 22.177 3.92857 22.177C4.7534 22.177 5.52721 22.3981 6.18197 22.8488V22.245H8.02721V29.8216H6.18197V29.3199C5.55272 29.745 4.77891 30.0001 3.92857 30.0001Z" fill="#E4003E"/>
</svg>
