<svg width="55" height="31" viewBox="0 0 55 31" fill="none" xmlns="http://www.w3.org/2000/svg">
<path d="M35.7221 2.29347C34.6278 1.09782 32.9307 0.5 30.6316 0.5H22.0781V4.47325H30.7972C31.5699 4.47325 32.1306 4.69892 32.4806 5.14948C32.8298 5.60043 33.0049 6.11985 33.0049 6.70849C33.0049 7.29714 32.8206 7.83988 32.453 8.28127C32.0847 8.72266 31.5331 8.94335 30.7976 8.94335H22.0785V19.8147H26.2725V12.8891H30.632C31.7722 12.8891 32.7934 12.7055 33.695 12.3371C34.5961 11.9696 35.3044 11.4819 35.8197 10.8749C36.3345 10.2679 36.7208 9.6104 36.9786 8.90204C37.236 8.19406 37.3649 7.46314 37.3649 6.70849C37.3649 4.9613 36.8172 3.48988 35.7233 2.29385L35.7221 2.29347Z" fill="#E4003E"/>
<path d="M44.0137 4.47593V4.47325H53.6982V0.5H39.8193V4.47593H44.0137Z" fill="#E4003E"/>
<path d="M47.7658 11.8401V7.86682L39.8193 7.86912V11.8401H47.7658Z" fill="#E4003E"/>
<path d="M44.0137 15.8133V15.8094H39.8193V19.8144H54.2501V15.8133H44.0137Z" fill="#E4003E"/>
<path d="M12.4664 13.6896H16.922L11.7026 0.5H7.67425L0.0585938 19.8147H4.63885L5.6662 17.1278L7.45317 12.1991L9.10857 8.03265C9.42106 7.26004 9.61421 6.71767 9.68803 6.4048C9.81654 6.86493 10.0097 7.40767 10.2675 8.03265L11.9229 12.1991L12.466 13.6896H12.4664Z" fill="#E4003E"/>
<path d="M13.6211 16.8207L14.7659 19.8148H19.3461L18.1612 16.8207H13.6211Z" fill="#E4003E"/>
<path d="M0.0585938 30.3395V20.9778H5.52851V21.8739H0.994916V25.057H4.05747V25.9398H0.994916V30.3399H0.0585938V30.3395Z" fill="#E4003E"/>
<path d="M17.5913 30.5002C16.9227 30.5002 16.3318 30.364 15.8192 30.0925C15.3063 29.8205 14.9009 29.453 14.6022 28.989C14.3034 28.5254 14.0805 28.0129 13.9336 27.451C13.7863 26.8892 13.7129 26.2921 13.7129 25.6591C13.7129 24.7675 13.8445 23.9674 14.1076 23.2586C14.3704 22.5499 14.8007 21.9658 15.3981 21.5068C15.9952 21.0479 16.7265 20.818 17.5913 20.818C18.3582 20.818 18.9556 20.9542 19.3832 21.2257C19.8112 21.4977 20.1677 21.8656 20.453 22.3292L19.6238 22.8107C19.374 22.4543 19.0956 22.1735 18.7881 21.9681C18.4806 21.7631 18.0812 21.6606 17.5913 21.6606C17.1013 21.6606 16.6328 21.7788 16.2403 22.0152C15.8479 22.2515 15.545 22.5682 15.3308 22.9649C15.117 23.3615 14.9563 23.7872 14.8493 24.242C14.7422 24.6968 14.6886 25.1695 14.6886 25.6595C14.6886 26.3816 14.7842 27.0349 14.9762 27.6186C15.1679 28.2026 15.4888 28.6884 15.939 29.0762C16.3891 29.4641 16.9395 29.658 17.5905 29.658C18.5536 29.658 19.2758 29.2613 19.7569 28.4677L20.5861 28.7886C20.3456 29.2789 19.973 29.687 19.4693 30.0122C18.9656 30.3377 18.3394 30.5002 17.5901 30.5002H17.5913Z" fill="#E4003E"/>
<path d="M25.5625 21.8739V30.3395H24.6262V21.8739H22.0586V20.9778H28.1435V21.8739H25.5625Z" fill="#E4003E"/>
<path d="M34.9106 30.0791C34.3935 30.3598 33.7872 30.5002 33.0919 30.5002C32.3965 30.5002 31.7899 30.3598 31.2732 30.0791C30.756 29.7984 30.3525 29.4193 30.063 28.9424C29.7731 28.4654 29.5593 27.9529 29.4212 27.4044C29.2827 26.8559 29.2139 26.2741 29.2139 25.6591C29.2139 25.0441 29.2827 24.4623 29.4212 23.9138C29.5593 23.3653 29.7734 22.8528 30.063 22.3759C30.3525 21.8989 30.756 21.5199 31.2732 21.2391C31.7903 20.9584 32.3965 20.818 33.0919 20.818C33.7872 20.818 34.3935 20.9584 34.9106 21.2391C35.4277 21.5199 35.8312 21.8989 36.1208 22.3759C36.4103 22.8528 36.6245 23.3653 36.7626 23.9138C36.9007 24.4623 36.9699 25.0441 36.9699 25.6591C36.9699 26.2741 36.9007 26.8559 36.7626 27.4044C36.6241 27.9529 36.4103 28.4654 36.1208 28.9424C35.8309 29.4193 35.4273 29.7984 34.9106 30.0791ZM33.0919 29.6576C33.609 29.6576 34.0615 29.5394 34.4493 29.303C34.8372 29.067 35.1401 28.7503 35.3589 28.3533C35.5773 27.9567 35.7375 27.531 35.8404 27.0762C35.9429 26.6214 35.9942 26.1491 35.9942 25.6587C35.9942 24.9366 35.9073 24.2879 35.7333 23.713C35.5597 23.1378 35.2472 22.652 34.797 22.2554C34.3468 21.8587 33.7784 21.6602 33.0919 21.6602C32.5748 21.6602 32.1223 21.7784 31.7344 22.0148C31.3466 22.2512 31.0433 22.5679 30.8249 22.9645C30.6065 23.3611 30.4458 23.7868 30.3433 24.2416C30.2408 24.6964 30.1896 25.1691 30.1896 25.6591C30.1896 26.3812 30.2764 27.0299 30.4504 27.6048C30.6241 28.1801 30.9362 28.6658 31.3868 29.0625C31.8369 29.4595 32.4053 29.6576 33.0919 29.6576Z" fill="#E4003E"/>
<path d="M50.3038 30.3396V26.662L47.2412 20.9783H48.2709L50.7582 25.793L53.3124 20.9783H54.2755L51.2397 26.6218V30.3396H50.3034H50.3038Z" fill="#E4003E"/>
<path d="M9.23285 20.9783H8.51072L5.26074 30.34H6.23684L7.05268 27.9192L7.33343 27.09L8.61743 23.3455C8.653 23.2564 8.70196 23.0915 8.76469 22.8505L8.87178 22.5029C8.90735 22.6635 8.99647 22.9442 9.13914 23.3455L10.4231 27.09L10.7039 27.9192L11.5599 30.34H12.5096L9.23285 20.9783Z" fill="#E4003E"/>
<path d="M45.0746 25.2107C45.449 24.7338 45.6361 24.1788 45.6361 23.5458C45.6361 22.8237 45.4089 22.2151 44.9541 21.7202C44.4993 21.2253 43.7638 20.9778 42.7476 20.9778H39.3105V21.8204H42.7743C43.4697 21.8204 43.9711 22.0009 44.279 22.362C44.5865 22.7231 44.7403 23.1312 44.7403 23.5856C44.7403 24.0671 44.582 24.4748 44.2656 24.8091C43.9489 25.1434 43.4521 25.3106 42.7743 25.3106H39.3105V26.1532H42.3597L44.3659 30.3391H45.3955L43.3224 26.113C44.1157 25.9883 44.6998 25.6873 45.0742 25.2104L45.0746 25.2107Z" fill="#E4003E"/>
</svg>
