<svg width="107" height="31" viewBox="0 0 107 31" fill="none" xmlns="http://www.w3.org/2000/svg">
<path d="M103.377 2.58361V1.78161H103.902C104.168 1.78161 104.454 1.84058 104.454 2.15902C104.454 2.55609 104.161 2.57968 103.836 2.57968H103.373L103.377 2.58361ZM103.377 2.91777H103.821L104.493 4.0382H104.925L104.199 2.89811C104.574 2.85094 104.86 2.64651 104.86 2.18654C104.86 1.67547 104.562 1.45138 103.96 1.45138H102.991V4.04213H103.377V2.9217V2.91777ZM103.844 4.98958C105.045 4.98958 106.072 4.0382 106.072 2.74086C106.072 1.44352 105.045 0.5 103.844 0.5C102.643 0.5 101.601 1.45138 101.601 2.74086C101.601 4.03034 102.628 4.98958 103.844 4.98958ZM102.048 2.73693C102.048 1.67547 102.836 0.869545 103.844 0.869545C104.852 0.869545 105.628 1.67154 105.628 2.73693C105.628 3.80232 104.84 4.61611 103.844 4.61611C102.848 4.61611 102.048 3.81805 102.048 2.73693Z" fill="#E4003E"/>
<path d="M13.4491 1.01953H91.2716C98.0154 1.01953 103.391 5.52945 103.391 12.2978V18.7216C103.391 25.4938 98.0156 29.9999 91.2716 29.9999H13.4491C6.70515 29.9999 1.33008 25.4938 1.33008 18.7216V12.2978C1.33008 5.52945 6.70527 1.01953 13.4491 1.01953Z" fill="black" stroke="#E4003E"/>
<path d="M88.4367 19.4412H89.5758H92.9275L92.9352 19.4491V23.9819H92.9275H79.957V23.978L84.5868 16.1468L84.7452 15.8794H84.4362H83.2817H80.2775V11.3191H93.1051L88.2899 19.1621L88.1239 19.4412H88.4367Z" fill="#E4003E"/>
<path d="M79.0276 15.8834V15.8873H77.3092H77.1316V16.0642V23.9819H77.1239H71.2391V23.978V16.0603V15.8795H71.0615H69.5479V11.3113H71.0615H71.2391V11.1343V7.1637H77.1316V11.1343V11.3113H77.3092H79.016H79.0276V15.8834Z" fill="#E4003E"/>
<path d="M65.4308 10.0806C64.562 10.0806 63.7396 9.73467 63.1217 9.10565C62.5078 8.48057 62.168 7.6432 62.168 6.75472C62.168 5.86623 62.5078 5.03279 63.1217 4.40771C63.7396 3.7787 64.562 3.43274 65.4308 3.43274C66.2997 3.43274 67.1221 3.7787 67.7361 4.40771C68.3539 5.03279 68.6937 5.87017 68.6937 6.75472C68.6937 8.58672 67.2303 10.0767 65.4308 10.0767" fill="#E4003E"/>
<path d="M68.3979 23.9817H68.394H62.5479V11.3071H68.394H68.3979V23.9817Z" fill="#E4003E"/>
<path d="M60.7777 23.9857L54.9277 23.9817V23.9778V4.49805H60.7739H60.7777V23.9857H60.7816H60.7777Z" fill="#E4003E"/>
<path d="M54.0547 15.8871H52.3364C50.5486 15.8871 49.7338 17.5933 49.7338 19.1698V23.9817H43.8838V11.3071H49.672V13.7131C50.3246 11.9126 51.9193 11.26 54.0547 11.3111V15.8871Z" fill="#E4003E"/>
<path d="M42.7686 18.5566H33.7561V18.7335C33.7561 19.4058 33.8179 20.2353 34.3006 20.7267C34.567 20.998 34.9377 21.1395 35.3972 21.1395C36.1039 21.1395 36.629 20.7935 36.7719 20.0623H42.4404C41.645 23.1169 38.3126 24.2845 35.4938 24.2845C33.0534 24.2845 30.9682 23.5258 29.6167 22.1498C28.5317 21.0451 27.9795 19.6063 27.9795 17.8804C27.9795 16.0012 28.6166 14.3619 29.8175 13.1353C31.1304 11.7986 33.0186 11.0635 35.1308 11.0635C37.5403 11.0635 39.637 11.9009 41.0387 13.4262C42.3053 14.8022 42.8999 16.4651 42.7686 18.5645M35.3277 14.1732C34.3894 14.1732 33.76 14.924 33.76 16.0366V16.2175H37.0151V16.0366C37.0151 15.5137 36.8144 15.0145 36.4668 14.6567C36.1579 14.3422 35.7563 14.1732 35.3277 14.1732Z" fill="#E4003E"/>
<path d="M20.6772 23.9977H11.8926V5.89783H19.3798C22.1446 5.89783 24.0212 6.44035 25.1256 7.56864C25.8978 8.35884 26.2917 9.45568 26.2917 10.8356C26.2917 12.5496 25.4036 13.9413 24.0328 14.3856C24.0328 14.3856 23.6351 14.5428 23.2296 14.6097L24.0289 14.8691C25.4461 15.3802 27.1296 16.5242 27.1296 19.0874C27.1296 22.7121 23.7972 23.9977 20.6734 23.9977M18.4183 12.9939C19.125 12.9939 19.8355 12.9349 20.2641 12.5025C20.5112 12.2469 20.6386 11.8931 20.6386 11.4449C20.6386 10.9968 20.5189 10.6665 20.2834 10.4307C19.847 9.98641 19.1095 9.99035 18.4569 9.99428H17.6461V12.9939H18.4222H18.4183ZM18.5149 16.5321H17.6422V19.9484H18.5612C19.2833 19.9484 20.3799 19.9484 20.9668 19.3508C21.241 19.0717 21.3762 18.6943 21.3762 18.2304C21.3762 17.7665 21.241 17.4048 20.9707 17.1336C20.3838 16.5321 19.3026 16.5321 18.511 16.5321" fill="#E4003E"/>
</svg>
