<svg width="138" height="25" viewBox="0 0 138 25" fill="none" xmlns="http://www.w3.org/2000/svg">
<path d="M130.482 21.3866C130.482 19.3954 132.141 17.8467 134.102 17.8467C136.138 17.8467 137.722 19.4691 137.722 21.3866C137.722 23.304 136.063 24.9264 134.102 24.9264C132.141 24.9264 130.482 23.3777 130.482 21.3866Z" fill="#E4003E"/>
<path d="M21.7382 11.8727C21.7382 16.0026 20.6825 19.1 18.4201 21.3124C16.1578 23.5248 12.9906 24.631 8.91837 24.631H0.924805V0.0731201H9.37083C13.3676 0.0731201 16.384 1.03184 18.4956 3.09677C20.6825 5.08795 21.7382 8.03785 21.7382 11.8727ZM14.8004 12.094C14.8004 9.80779 14.348 8.18534 13.443 7.07913C12.6135 6.04667 11.1807 5.45669 9.37083 5.45669H7.56097V19.1737H9.06919C11.1053 19.1737 12.5381 18.5837 13.5184 17.4038C14.348 16.2238 14.8004 14.4539 14.8004 12.094Z" fill="#E4003E"/>
<path d="M49.9427 -0.00012207H43.6836V24.6315H49.9427V-0.00012207Z" fill="#E4003E"/>
<path d="M70.6042 15.4129C70.6042 18.3628 69.85 20.7228 68.191 22.419C66.532 24.1151 64.2696 24.9264 61.404 24.9264C58.6138 24.9264 56.4269 24.1151 54.7679 22.3452C53.1088 20.5753 52.2793 18.2891 52.2793 15.4129C52.2793 12.463 53.0334 10.1031 54.6925 8.48068C56.3515 6.78449 58.6138 5.97327 61.4794 5.97327C63.2893 5.97327 64.8729 6.342 66.2303 7.07948C67.6631 7.81695 68.6435 8.92317 69.3976 10.3244C70.3025 11.8731 70.6042 13.4955 70.6042 15.4129ZM58.7646 15.4129C58.7646 17.0354 58.9909 18.1416 59.3679 18.9528C59.745 19.764 60.4237 20.1328 61.4794 20.1328C62.5352 20.1328 63.1385 19.764 63.5909 18.9528C63.968 18.1416 64.1942 16.8879 64.1942 15.4129C64.1942 13.7905 63.968 12.6843 63.5909 11.8731C63.2139 11.1356 62.5352 10.6931 61.4794 10.6931C60.5745 10.6931 59.8204 11.0618 59.3679 11.8731C58.9909 12.6843 58.7646 13.7905 58.7646 15.4129Z" fill="#E4003E"/>
<path d="M79.4261 6.26868H73.167V24.5581H79.4261V6.26868Z" fill="#E4003E"/>
<path d="M79.4261 -0.00012207H73.167V4.12974H79.4261V-0.00012207Z" fill="#E4003E"/>
<path d="M92.1731 19.9115C93.0026 19.9115 94.0584 19.6903 95.1895 19.3216V23.9677C94.36 24.3364 93.5305 24.5576 92.7764 24.7051C92.0223 24.8526 91.1173 24.9264 90.0616 24.9264C87.9501 24.9264 86.4419 24.4101 85.4615 23.3039C84.5566 22.2715 84.0287 20.649 84.0287 18.5103V10.9881H81.8418V6.26826H84.0287V1.69592L90.3632 0.663452V6.41576H94.4354V11.0618H90.3632V18.1416C90.5141 19.3953 91.0419 19.9115 92.1731 19.9115Z" fill="#E4003E"/>
<path d="M106.802 19.9115C107.632 19.9115 108.687 19.6903 109.818 19.3216V23.9677C108.989 24.3364 108.159 24.5576 107.405 24.7051C106.651 24.8526 105.746 24.9264 104.691 24.9264C102.579 24.9264 101.071 24.4101 100.09 23.3039C99.1855 22.2715 98.6576 20.649 98.6576 18.5103V10.9881H96.4707V6.26826H98.6576V1.62217L104.992 0.663452V6.41576H109.064V11.0618H104.992V18.1416C105.068 19.3953 105.671 19.9115 106.802 19.9115Z" fill="#E4003E"/>
<path d="M126.709 8.11194C125.201 6.63699 123.089 5.97327 120.375 5.97327C117.509 5.97327 115.247 6.78449 113.663 8.48068C112.079 10.1769 111.325 12.5368 111.325 15.6342C111.325 18.5841 112.155 20.944 113.814 22.5664C115.548 24.1889 117.886 25.0001 120.902 25.0001C122.411 25.0001 123.617 24.9264 124.673 24.7051C125.653 24.4839 126.784 24.1889 127.689 23.6727L126.784 19.5428C126.106 19.8378 125.352 20.059 124.748 20.2065C123.843 20.4278 122.788 20.5015 121.732 20.5015C120.525 20.5015 119.545 20.2065 118.866 19.6903C118.188 19.1003 117.811 18.2891 117.811 17.2566H129.047V14.3805C128.971 11.6518 128.142 9.58689 126.709 8.11194ZM117.811 13.2005C117.886 12.2418 118.188 11.4306 118.64 10.9881C119.093 10.5456 119.696 10.3244 120.525 10.3244C121.279 10.3244 122.034 10.5456 122.486 11.0618C122.938 11.5781 123.165 12.2418 123.24 13.2005H117.811Z" fill="#E4003E"/>
<path d="M39.0088 8.11194C37.4252 6.63699 35.3891 5.97327 32.6743 5.97327C29.8087 5.97327 27.5464 6.78449 25.9627 8.48068C24.3791 10.1769 23.625 12.5368 23.625 15.6342C23.625 18.5841 24.4545 20.944 26.1136 22.5664C27.848 24.1889 30.1858 25.0001 33.2022 25.0001C34.7104 25.0001 35.917 24.9264 36.9727 24.7051C37.9531 24.4839 39.0842 24.1889 39.9892 23.6727L39.0842 19.4691C38.4055 19.764 37.6514 19.9853 37.0482 20.1328C36.1432 20.354 35.0875 20.4278 34.0317 20.4278C32.8251 20.4278 31.8448 20.1328 31.1661 19.6165C30.4874 19.0266 30.1103 18.2153 30.1103 17.1829H41.3466V14.3805C41.2712 11.6518 40.4416 9.58689 39.0088 8.11194ZM30.0349 13.2005C30.1103 12.2418 30.412 11.4306 30.8645 10.9881C31.3169 10.5456 31.9202 10.3244 32.7497 10.3244C33.5792 10.3244 34.2579 10.5456 34.7104 11.0618C35.1629 11.5781 35.3891 12.2418 35.4645 13.2005H30.0349Z" fill="#E4003E"/>
</svg>
