<svg width="35" height="35" viewBox="0 0 35 35" fill="none" xmlns="http://www.w3.org/2000/svg">
<path d="M22.4336 23.2048C22.3565 23.3205 21.5856 24.7852 21.123 24.631C21.3158 23.783 20.1208 22.4339 20.0052 21.9713C20.2365 23.1663 19.7354 25.6718 18.4248 25.6718C18.3092 25.6718 18.2706 25.5947 18.2706 25.479C18.2706 24.9394 19.0416 24.1685 19.0416 22.3568C19.0416 21.7401 18.5404 20.6993 18.5404 20.6993C18.1164 22.3953 17.4997 23.0121 17.1528 22.9735C17.0372 22.9735 16.112 21.7786 16.3048 19.5429C16.3433 19.2731 16.2662 18.9647 16.2277 18.6949C16.112 18.2324 15.8808 17.8469 15.8808 17.8469C15.8808 17.8469 15.7266 18.3094 15.5338 18.8876C15.3411 19.5429 15.1484 20.3138 15.1484 20.6993C15.1484 21.6244 15.688 22.8964 15.688 23.2434C15.688 23.3975 15.6495 23.4746 15.5338 23.4746C14.7629 23.5903 13.8764 21.239 13.8764 21.239C13.8764 21.239 13.3367 22.9735 14.0305 24.0528C14.0691 24.1299 13.9534 24.2456 13.8378 24.2456C12.8356 24.3227 12.3345 23.0892 12.2574 22.9735C12.2574 22.9735 12.2574 22.9735 12.2574 23.0121C12.2189 23.2434 12.2189 23.4746 12.2189 23.7445C12.2189 26.5583 14.4931 28.8711 17.3455 28.8711C20.1594 28.8711 22.4722 26.5969 22.4722 23.7445C22.4722 23.5517 22.4722 23.3975 22.4336 23.2048Z" fill="#F5FF00"/>
<path d="M18.3092 19.4659C18.3092 19.4659 18.2706 19.1189 18.2321 18.6949C18.1935 18.0396 18.1935 17.1145 18.4634 16.7676C19.3114 15.7654 18.4248 13.0672 18.0008 12.7588C18.6561 15.1872 17.6924 15.1872 17.5768 16.8447C17.5383 17.5771 17.6539 18.1938 17.8466 18.6178C18.0394 19.1575 18.3092 19.4659 18.3092 19.4659Z" fill="#F5FF00"/>
<path d="M17.5 0C7.86344 0 0 7.82489 0 17.5C0 27.1751 7.82489 35 17.5 35C27.1366 35 35 27.1751 35 17.5C35 7.82489 27.1751 0 17.5 0ZM25.402 20.1211C25.3634 20.4681 25.3634 20.5451 25.3634 20.9692C25.3634 21.8557 25.3634 23.2819 25.2863 23.5903C25.2478 23.8987 25.1707 24.1685 25.0551 24.4769C24.2841 26.5198 22.7037 28.1388 20.6993 29.0253C19.6971 29.4493 18.5793 29.6806 17.3844 29.6806C14.9945 29.6806 12.4504 28.4086 10.8315 26.2885C9.79075 24.9394 9.13546 23.2819 9.13546 21.3546C9.13546 20.044 9.44384 19.7742 9.44384 19.7742C9.44384 19.7742 9.86784 19.8899 9.98348 20.0055L9.94493 19.8899C9.90639 19.62 9.86785 19.2731 9.8293 18.8877C9.79075 18.5407 9.79075 18.2324 9.79075 17.9625C9.79075 16.4592 11.2941 14.3007 11.2941 14.3007C11.2941 14.3007 11.4868 15.457 11.7566 16.1509C11.8723 16.4592 11.9879 16.6905 12.1035 16.6905C12.2963 16.6905 12.3348 16.228 12.3733 15.6112C12.4504 14.8018 12.489 13.6839 12.7974 12.913C13.761 10.446 15.2643 9.86783 15.2643 9.86783C15.2643 9.86783 14.8403 10.7929 15.2643 11.8722C18.2709 8.98127 18.1167 6.55286 18.1167 6.55286C18.1167 6.55286 20.1211 8.36453 19.5815 9.94493C19.3888 10.9471 19.4273 11.7566 19.6586 11.7566C20.7764 11.7952 20.8921 9.52092 20.8921 9.52092C20.8921 9.52092 22.3183 12.4504 21.9714 15.033C23.3976 13.7225 24.4769 13.6454 24.4769 13.6454C24.4769 13.6454 23.783 14.8018 23.783 16.4207C23.783 16.6134 23.783 16.8447 23.8216 17.0374C23.8987 18.0782 24.1685 18.7335 24.3998 18.7335C24.4769 18.7335 24.6311 18.6564 24.8623 18.5022C25.3634 18.1553 26.0187 17.5385 26.0187 17.5385C26.0187 17.5385 25.5562 18.4251 25.402 20.1211Z" fill="#F5FF00"/>
</svg>
