<svg width="189" height="21" viewBox="0 0 189 21" fill="none" xmlns="http://www.w3.org/2000/svg">
<path d="M62.7453 2.30723C57.8055 2.30723 53.8296 6.34337 53.8296 11.3434C53.8296 16.3434 57.8055 20.3795 62.7453 20.3795C64.7935 20.3795 66.7212 19.6566 68.2272 18.4518C68.5284 18.2108 68.7091 17.5482 68.2272 16.9458C67.7453 16.3434 66.9621 16.6446 66.6609 16.8855C65.5766 17.6687 64.1911 18.1506 62.7453 18.1506C59.0706 18.1506 56.0585 15.1386 56.0585 11.3434C56.0585 7.60843 59.0706 4.59639 62.7453 4.59639C66.0585 4.59639 68.7694 7.06626 69.3115 10.259H62.7453C62.1429 10.259 61.6609 10.741 61.6609 11.4036C61.6609 12.006 62.1429 12.5482 62.7453 12.5482H70.5164C71.1188 12.5482 71.6609 12.0663 71.6609 11.4036C71.6007 6.34337 67.6248 2.30723 62.7453 2.30723ZM179.914 2.30723C174.974 2.30723 170.998 6.34337 170.998 11.3434C170.998 16.3434 174.974 20.3795 179.914 20.3795C181.962 20.3795 183.89 19.6566 185.396 18.4518C185.697 18.2108 185.878 17.5482 185.396 16.9458C184.914 16.3434 184.131 16.6446 183.83 16.8855C182.745 17.6687 181.36 18.1506 179.914 18.1506C176.239 18.1506 173.227 15.1386 173.227 11.3434C173.227 7.60843 176.239 4.59639 179.914 4.59639C183.227 4.59639 185.938 7.06626 186.48 10.259H179.914C179.312 10.259 178.83 10.741 178.83 11.4036C178.83 12.006 179.312 12.5482 179.914 12.5482H187.685C188.287 12.5482 188.83 12.0663 188.83 11.4036C188.83 6.34337 184.854 2.30723 179.914 2.30723ZM94.0706 0.5C93.4682 0.5 92.9862 0.981928 92.9862 1.64458V5.37952C91.3597 3.51205 88.9501 2.30723 86.2995 2.30723C81.3597 2.30723 77.3838 6.34337 77.3838 11.3434C77.3838 16.3434 81.3597 20.3795 86.2995 20.3795C91.2393 20.3795 95.2152 16.3434 95.2152 11.3434V1.64458C95.2152 0.981928 94.673 0.5 94.0706 0.5ZM86.2995 18.1506C82.6248 18.1506 79.6127 15.1386 79.6127 11.3434C79.6127 7.60843 82.6248 4.59639 86.2995 4.59639C89.9742 4.59639 92.9862 7.60843 92.9862 11.3434C92.9862 15.0783 89.9742 18.1506 86.2995 18.1506ZM149.733 2.30723C144.793 2.30723 140.818 6.34337 140.818 11.3434C140.818 16.3434 144.793 20.3795 149.733 20.3795C152.384 20.3795 154.793 19.1747 156.42 17.3072V18.994C156.42 19.5964 156.902 20.1386 157.504 20.1386C158.107 20.1386 158.589 19.6566 158.589 18.994V11.3434C158.589 6.34337 154.613 2.30723 149.733 2.30723ZM149.733 18.1506C146.059 18.1506 143.046 15.1386 143.046 11.3434C143.046 7.60843 145.998 4.59639 149.733 4.59639C153.408 4.59639 156.42 7.60843 156.42 11.3434C156.36 15.0783 153.408 18.1506 149.733 18.1506ZM37.6248 2.30723C32.685 2.30723 28.7091 6.34337 28.7091 11.3434C28.7091 16.3434 32.685 20.3795 37.6248 20.3795C39.673 20.3795 41.6007 19.6566 43.1067 18.4518C43.4079 18.2108 43.5886 17.5482 43.1067 16.9458C42.6248 16.3434 41.8417 16.6446 41.5405 16.8855C40.4561 17.6687 39.0706 18.1506 37.6248 18.1506C33.9501 18.1506 30.938 15.1386 30.938 11.3434C30.938 7.60843 33.9501 4.59639 37.6248 4.59639C40.938 4.59639 43.6489 7.06626 44.1911 10.259H37.6248C37.0224 10.259 36.4802 10.741 36.4802 11.4036C36.4802 12.006 36.9621 12.5482 37.6248 12.5482H45.3959C45.9983 12.5482 46.4802 12.0663 46.4802 11.4036C46.4802 6.34337 42.5043 2.30723 37.6248 2.30723ZM50.0947 2.30723C49.4923 2.30723 49.0103 2.78916 49.0103 3.45181V11.1627V11.6446V19.3554C49.0103 19.9578 49.4923 20.5 50.0947 20.5C50.6971 20.5 51.179 20.0181 51.179 19.3554V11.5843V11.1024V3.45181C51.179 2.78916 50.6971 2.30723 50.0947 2.30723ZM123.89 2.30723C123.287 2.30723 122.745 2.78916 122.745 3.45181V11.1627V11.6446V19.3554C122.745 19.9578 123.227 20.5 123.89 20.5C124.492 20.5 124.974 20.0181 124.974 19.3554V11.5843V11.1024V3.45181C124.974 2.78916 124.492 2.30723 123.89 2.30723ZM99.1911 2.30723C98.5886 2.30723 98.1067 2.78916 98.1067 3.45181V11.1627V11.6446V19.3554C98.1067 19.9578 98.5886 20.5 99.1911 20.5C99.7935 20.5 100.336 20.0181 100.336 19.3554V11.5843V11.1024V3.45181C100.336 2.78916 99.7935 2.30723 99.1911 2.30723ZM30.5164 3.45181C30.5164 2.8494 30.0344 2.30723 29.3718 2.30723H27.3838C22.5645 2.30723 18.5886 6.22289 18.5284 11.1024V19.2349C18.5284 19.8373 19.0103 20.3795 19.673 20.3795C20.2754 20.3795 20.7573 19.8976 20.7573 19.2349V11.3434C20.7573 7.60843 23.7694 4.59639 27.4441 4.59639H29.432C30.0344 4.53614 30.5164 4.05422 30.5164 3.45181ZM171.48 18.1506H169.492C165.818 18.1506 162.806 15.1386 162.806 11.3434V3.45181C162.806 2.8494 162.324 2.30723 161.661 2.30723C161.059 2.30723 160.577 2.78916 160.577 3.45181V11.5843C160.697 16.4639 164.613 20.3795 169.432 20.3795H171.42C172.022 20.3795 172.504 19.8976 172.504 19.2349C172.625 18.6325 172.083 18.1506 171.48 18.1506ZM17.1429 2.30723H13.5886C9.07057 2.30723 5.33563 5.74096 4.79346 10.1988H1.35973C0.757318 10.1988 0.275391 10.741 0.275391 11.3434C0.275391 11.9458 0.757318 12.488 1.35973 12.488H4.67298V19.2952C4.67298 19.8976 5.15491 20.4398 5.75732 20.4398C6.35973 20.4398 6.9019 19.9578 6.9019 19.2952V12.488H15.5766C16.179 12.488 16.6609 12.006 16.6609 11.3434C16.6609 10.741 16.179 10.1988 15.5766 10.1988H7.08262C7.62479 7.00602 10.3356 4.53614 13.6489 4.53614H17.1429C17.7453 4.53614 18.2874 4.05422 18.2874 3.39157C18.2874 2.78916 17.8055 2.30723 17.1429 2.30723ZM140.396 18.1506H136.842C133.528 18.1506 130.818 15.6807 130.275 12.488H138.83C139.432 12.488 139.914 12.006 139.914 11.3434C139.914 10.741 139.432 10.1988 138.83 10.1988H130.155V3.45181C130.155 2.8494 129.673 2.30723 129.071 2.30723C128.468 2.30723 127.986 2.78916 127.986 3.45181V11.3434C127.986 16.2831 131.842 20.259 136.661 20.3795H140.456C141.059 20.3795 141.54 19.8976 141.54 19.2349C141.48 18.6325 140.998 18.1506 140.396 18.1506ZM119.432 10.1988H111.661C111.059 10.1988 110.516 10.6807 110.516 11.3434C110.516 11.9458 110.998 12.488 111.661 12.488H118.227C117.685 15.6807 114.974 18.1506 111.661 18.1506C107.986 18.1506 104.974 15.1386 104.974 11.3434C104.974 7.60843 107.926 4.59639 111.661 4.59639C113.107 4.59639 114.432 5.07831 115.577 5.86145C115.878 6.04217 116.661 6.40361 117.143 5.8012C117.625 5.1988 117.444 4.4759 117.143 4.29518C115.637 3.09036 113.709 2.36747 111.661 2.36747C106.721 2.36747 102.745 6.40361 102.745 11.4036C102.745 16.4036 106.721 20.4398 111.661 20.4398C116.54 20.4398 120.577 16.4036 120.577 11.4036C120.516 10.741 120.034 10.1988 119.432 10.1988Z" fill="#E4003E"/>
</svg>
