<svg width="141" height="31" viewBox="0 0 141 31" fill="none" xmlns="http://www.w3.org/2000/svg">
<g clip-path="url(#clip0_1923_2103)">
<path d="M42.069 29.3053L41.9834 29.3892V30.2297L42.069 30.3136H42.9266L43.0109 30.2297V29.3892L42.9266 29.3053H42.069Z" fill="#E4003E"/>
<path d="M10.0627 30.3988C11.0902 30.3988 11.6895 29.8101 11.7752 29.1361L11.6895 29.0522H11.0045L10.9189 29.1361C10.7477 29.557 10.4051 29.6436 10.0613 29.6436C9.0324 29.6436 8.94677 28.8005 8.94677 28.6313L9.0324 28.5474H11.8594L11.9464 28.4635V28.2105C11.9464 27.0317 11.347 26.0221 9.97563 26.0221C8.60425 26.0221 8.00488 27.0304 8.00488 28.2105C8.00763 29.4731 8.69127 30.3988 10.0627 30.3988ZM10.9203 27.8735H9.03375L8.94812 27.7896C8.94812 27.5365 9.03375 26.7773 9.97703 26.7773C10.9189 26.7773 11.0045 27.5365 11.0045 27.7896L10.9203 27.8735Z" fill="#E4003E"/>
<path d="M15.342 26.7787V26.19L15.2563 26.1061H14.9138C14.3144 26.1061 14.0562 26.2753 13.8007 26.5256H13.7137L13.628 26.19L13.5424 26.1061H12.9431L12.8574 26.19V30.2297L12.9431 30.3136H13.628L13.7137 30.2297V28.1253C13.7137 27.1143 14.1418 26.8626 14.8282 26.8626H15.2563L15.342 26.7787Z" fill="#E4003E"/>
<path d="M22.3944 24.4225L22.3087 24.5064L20.5949 29.1348H20.5093L18.7953 24.5064L18.7084 24.4225H18.196L18.1104 24.5064V25.0951L20.0811 30.231L20.1667 30.3149H20.9374L21.023 30.231L22.9937 25.0951V24.5064L22.9082 24.4225H22.3944Z" fill="#E4003E"/>
<path d="M25.05 30.3988C26.0775 30.3988 26.6768 29.8101 26.7625 29.1361L26.6768 29.0522H25.9918L25.9062 29.1361C25.735 29.557 25.3925 29.6436 25.0486 29.6436C24.0197 29.6436 23.9341 28.8005 23.9341 28.6313L24.0197 28.5474H26.8467L26.9337 28.4635V28.2105C26.9337 27.0317 26.3344 26.0221 24.963 26.0221C23.5916 26.0221 22.9922 27.0304 22.9922 28.2105C22.995 29.4731 23.6786 30.3988 25.05 30.3988ZM25.9076 27.8735H24.0211L23.9355 27.7896C23.9355 27.5365 24.0211 26.7773 24.9643 26.7773C25.9062 26.7773 25.9918 27.5365 25.9918 27.7896L25.9076 27.8735Z" fill="#E4003E"/>
<path d="M30.3293 26.7787V26.19L30.2436 26.1061H29.9012C29.3017 26.1061 29.0435 26.2753 28.788 26.5256H28.701L28.6154 26.19L28.5298 26.1061H27.9304L27.8447 26.19V30.2297L27.9304 30.3136H28.6154L28.701 30.2297V28.1253C28.701 27.1143 29.1291 26.8626 29.8155 26.8626H30.2436L30.3293 26.7787Z" fill="#E4003E"/>
<path d="M32.8253 30.3988C33.8528 30.3988 34.4522 29.8101 34.5378 29.1361L34.4522 29.0522H33.7672L33.6816 29.1361C33.5103 29.557 33.1678 29.6436 32.824 29.6436C31.7951 29.6436 31.7094 28.8005 31.7094 28.6313L31.795 28.5474H34.6221L34.7091 28.4635V28.2105C34.7091 27.0317 34.1097 26.0221 32.7383 26.0221C31.3669 26.0221 30.7676 27.0304 30.7676 28.2105C30.7689 29.4731 31.4539 30.3988 32.8253 30.3988ZM33.6816 27.8735H31.795L31.7094 27.7896C31.7094 27.5365 31.795 26.7773 32.7383 26.7773C33.6802 26.7773 33.7658 27.5365 33.7658 27.7896L33.6816 27.8735Z" fill="#E4003E"/>
<path d="M35.7077 26.1061L35.6221 26.1913V30.2311L35.7077 30.315H36.3927L36.4783 30.2311V26.1913L36.3927 26.1061H35.7077ZM35.7077 24.5917L35.6221 24.6756V25.3495L35.7077 25.4334H36.3927L36.4783 25.3495V24.6756L36.3927 24.5917H35.7077Z" fill="#E4003E"/>
<path d="M41.0719 30.2296V27.7882C41.0719 26.7773 40.6438 26.0221 39.4451 26.0221C38.6731 26.0221 38.3306 26.5256 38.3306 26.5256H38.2449L38.1593 26.1899L38.0737 26.106H37.4743L37.3887 26.1899V30.2296L37.4743 30.3135H38.1593L38.2449 30.2296V28.2105C38.2449 27.1995 38.5874 26.7786 39.3594 26.7786C40.1314 26.7786 40.2171 27.3673 40.2171 27.7896V30.231L40.3027 30.3149H40.9877L41.0719 30.2296Z" fill="#E4003E"/>
<path d="M6.36025 27.4107C6.36025 28.8614 5.92522 29.6315 4.26797 29.6315H3.39652L3.30952 29.5462V25.2764L3.39652 25.1911H4.26797C5.92522 25.1898 6.36025 25.9599 6.36025 27.4107ZM7.23033 27.4107C7.23033 25.6161 6.53426 24.4225 4.35497 24.4225H2.52646L2.43945 24.5077V30.3136L2.52646 30.3988H4.35497C6.53426 30.3988 7.23033 29.2052 7.23033 27.4107Z" fill="#E4003E"/>
<path d="M17.1296 18.702H14.808L14.5498 18.4489L14.2916 17.1848H14.0319C13.5167 17.6923 12.2269 18.955 9.38881 18.955C4.22918 18.955 0.875977 15.1629 0.875977 9.85514C0.875977 4.54598 4.23056 0.752563 9.64706 0.752563C14.808 0.752563 16.8714 3.53503 17.3865 6.06173L17.1282 6.31479H14.0319L13.7736 6.06173C13.2585 5.04941 12.4851 3.78676 9.64566 3.78676C6.29249 3.78676 4.48605 6.31479 4.48605 9.85378C4.48605 13.3914 6.29249 15.9208 9.64566 15.9208C12.4851 15.9208 13.7736 14.4037 13.7736 12.3805L13.5154 12.1274H9.13193L8.87368 11.8743V9.34766L9.13193 9.09455H17.1296L17.3879 9.34766V18.4502L17.1296 18.702Z" fill="#E4003E"/>
<path d="M21.5144 11.6483H19.708V1.2587L19.9662 1.00427H28.4791C32.0919 1.00427 34.6703 2.77444 34.6703 6.31342C34.6703 9.09318 32.8639 10.8634 30.8007 11.3695V11.6239L34.1552 15.9222V18.4502L33.897 18.7033H32.3488L31.8309 18.4502L26.6713 11.8771L26.1561 11.6483H23.2932V13.3941H21.513V11.6483H21.5144ZM19.7094 13.4185H21.4896V15.1629H19.7094V13.4185ZM19.7094 16.9575H21.4896V18.7019H19.7094V16.9575ZM21.5144 15.1873H23.2946V16.9317H21.5144V15.1873ZM28.4804 4.03847H23.5791L23.3195 4.29154V8.3367L23.5791 8.58976H28.4804C30.0286 8.58976 31.0603 8.08496 31.0603 6.31479C31.0603 4.54462 30.0286 4.03847 28.4804 4.03847Z" fill="#E4003E"/>
<path d="M48.8603 18.7019H36.7348L36.4766 18.4489V1.25735L36.7348 1.00427H48.8603L49.1173 1.25735V3.78675L48.8603 4.03982H40.3463L40.088 4.29154V7.8319L40.3463 8.08359H48.3439L48.6023 8.3367V10.8647L48.3439 11.1178H40.3463L40.088 11.3695V15.4147L40.3463 15.6691H48.8603L49.1173 15.9222V18.4489L48.8603 18.7019Z" fill="#E4003E"/>
<path d="M51.4395 1.00562H52.6271L51.4395 2.16678V1.00562ZM51.4395 2.19385H52.6271L51.4395 3.35772V2.19385ZM51.4395 3.38073H52.6271L51.4395 4.54461V3.38073ZM51.4395 4.57032H52.6271L51.4395 5.73419V4.57032ZM51.4395 5.75722H52.6271L51.4395 6.89673V5.75722ZM51.4395 6.92109H52.6271L51.4395 8.08495V6.92109ZM51.4395 8.10931H52.6271L51.4395 9.27317V8.10931ZM51.4395 9.29753H52.6271L51.4395 10.4357V9.29753ZM51.4395 10.4601H52.6271L51.4395 11.6239V10.4601ZM51.4395 11.6483H52.6271L51.4395 12.8122V11.6483ZM51.4395 12.8365H52.6271L51.4395 13.9747V12.8365ZM51.4395 14.0004H52.6271L51.4395 15.1616V14.0004ZM51.4395 15.1873H52.6271L51.4395 16.3511V15.1873ZM51.4395 16.3769H52.6271L51.4395 17.5151V16.3769ZM51.4395 17.5394H52.6271L51.4395 18.7006V17.5394ZM52.6505 1.00562H53.8121L52.6505 2.16678V1.00562ZM52.6505 2.19385H53.8121L52.6505 3.35772V2.19385ZM52.6505 3.38073H53.8121L52.6505 4.54461V3.38073ZM52.6505 4.57032H53.8121L52.6505 5.73419V4.57032ZM52.6505 5.75722H53.8121L52.6505 6.89673V5.75722ZM52.6505 6.92109H53.8121L52.6505 8.08495V6.92109ZM52.6505 8.10931H53.8121L52.6505 9.27317V8.10931ZM52.6505 9.29753H53.8121L52.6505 10.4357V9.29753ZM52.6505 10.4601H53.8121L52.6505 11.6239V10.4601ZM52.6505 11.6483H53.8121L52.6505 12.8122V11.6483ZM52.6505 12.8365H53.8121L52.6505 13.9747V12.8365ZM52.6505 14.0004H53.8121L52.6505 15.1616V14.0004ZM52.6505 15.1873H53.8121L52.6505 16.3511V15.1873ZM52.6505 16.3769H53.8121L52.6505 17.5151V16.3769ZM52.6505 17.5394H53.8121L52.6505 18.7006V17.5394ZM53.8382 1.00562H55.0258L53.8382 2.16678V1.00562ZM53.8382 2.19385H55.0258L53.8382 3.35772V2.19385ZM53.8382 3.38073H55.0258L53.8382 4.54461V3.38073ZM53.8382 4.57032H55.0258L53.8382 5.73419V4.57032ZM53.8382 5.75722H55.0258L53.8382 6.89673V5.75722ZM53.8382 6.92109H55.0258L53.8382 8.08495V6.92109ZM53.8382 8.10931H55.0258L53.8382 9.27317V8.10931ZM53.8382 9.29753H55.0258L53.8382 10.4357V9.29753ZM53.8382 10.4601H55.0258L53.8382 11.6239V10.4601ZM53.8382 11.6483H55.0258L53.8382 12.8122V11.6483ZM53.8382 12.8365H55.0258L53.8382 13.9747V12.8365ZM53.8382 14.0004H55.0258L53.8382 15.1616V14.0004ZM53.8382 15.1873H55.0258L53.8382 16.3511V15.1873ZM53.8382 16.3769H55.0258L53.8382 17.5151V16.3769ZM53.8382 17.5394H55.0258L53.8382 18.7006V17.5394ZM55.0258 4.03845V1.00562H63.8234L64.0814 1.25869V3.78673L63.8234 4.03981H55.0258V4.03845ZM63.8234 18.7019H55.0258V15.6691H63.8234L64.0814 15.9221V18.4502L63.8234 18.7019ZM55.0497 8.10931H56.2373L55.0497 9.27317V8.10931ZM55.0497 9.29753H56.2373L55.0497 10.4357V9.29753ZM55.0497 10.4601H56.2373L55.0497 11.6239V10.4601ZM56.2635 8.10931H57.425L56.2635 9.27317V8.10931ZM56.2635 9.29753H57.425L56.2635 10.4357V9.29753ZM56.2635 10.4601H57.425L56.2635 11.6239V10.4601ZM57.4511 8.10931H58.6388L57.4511 9.27317V8.10931ZM57.4511 9.29753H58.6388L57.4511 10.4357V9.29753ZM57.4511 10.4601H58.6388L57.4511 11.6239V10.4601ZM58.6622 8.10931H59.8498L58.6622 9.27317V8.10931ZM58.6622 9.29753H59.8498L58.6622 10.4357V9.29753ZM58.6622 10.4601H59.8498L58.6622 11.6239V10.4601ZM59.8764 8.10931H61.0379L59.8764 9.27317V8.10931ZM59.8764 9.29753H61.0379L59.8764 10.4357V9.29753ZM59.8764 10.4601H61.0379L59.8764 11.6239V10.4601ZM61.0627 8.10931H62.2477L61.0627 9.27317V8.10931ZM61.0627 9.29753H62.2477L61.0627 10.4357V9.29753ZM61.0627 10.4601H62.2477L61.0627 11.6239V10.4601ZM62.2751 8.10931H63.4628L62.2751 9.27317V8.10931ZM62.2751 9.29753H63.4628L62.2751 10.4357V9.29753ZM62.2751 10.4601H63.4628L62.2751 11.6239V10.4601Z" fill="#E4003E"/>
<path d="M66.4004 1.00563H66.9154V18.7033H66.4004V1.00563ZM67.9487 1.00563H68.4637V18.7033H67.9487V1.00563ZM69.4965 1.00563H70.2699L70.7881 1.2587L77.7524 12.888H78.0109V1.25735L78.2693 1.00427H81.3654L81.6238 1.25735V18.4489L81.3654 18.7019H77.7524L77.2374 18.4489L70.0133 6.38921V18.7006H69.4978V1.00563H69.4965Z" fill="#E4003E"/>
<path d="M100.197 13.3928L100.455 13.1397H103.551L103.809 13.3928C103.294 16.9331 100.455 18.955 96.3267 18.955C90.6509 18.955 87.5557 15.1629 87.5557 9.85245C87.5557 4.54463 90.6509 0.752563 96.3267 0.752563C100.455 0.752563 103.294 2.77446 103.809 6.06036L103.551 6.31347H100.455L100.197 6.06036C99.6812 4.54463 98.39 3.78541 96.3267 3.78541C92.7137 3.78541 91.1673 6.31347 91.1673 9.85245C91.1673 13.3914 92.7137 15.9195 96.3267 15.9195C98.39 15.9208 99.6798 15.1629 100.197 13.3928Z" fill="#E4003E"/>
<path d="M108.966 18.7019H105.871L105.611 18.4489V1.25735L105.871 1.00427H108.966L109.224 1.25735V18.4489L108.966 18.7019Z" fill="#E4003E"/>
<path d="M110.514 1.66204L111.494 1.03003V1.33453L110.514 1.9909V1.66204ZM110.514 2.62291L111.494 2.01662V2.32112L110.514 2.95178V2.62291ZM110.514 3.6095L111.494 2.97749V3.28199L110.514 3.93837V3.6095ZM111.519 1.66204L112.475 1.03003V1.33453L111.519 1.9909V1.66204ZM111.519 2.62291L112.475 2.01662V2.32112L111.519 2.95178V2.62291ZM111.519 3.6095L112.475 2.97749V3.28199L111.519 3.93837V3.6095ZM112.498 1.66204L113.48 1.03003V1.33453L112.498 1.9909V1.66204ZM112.498 2.62291L113.48 2.01662V2.32112L112.498 2.95178V2.62291ZM112.498 3.6095L113.48 2.97749V3.28199L112.498 3.93837V3.6095ZM113.505 1.66204L114.486 1.03003V1.33453L113.505 1.9909V1.66204ZM113.505 2.62291L114.486 2.01662V2.32112L113.505 2.95178V2.62291ZM113.505 3.6095L114.486 2.97749V3.28199L113.505 3.93837V3.6095ZM114.512 1.66204L115.466 1.03003V1.33453L114.512 1.9909V1.66204ZM114.512 2.62291L115.466 2.01662V2.32112L114.512 2.95178V2.62291ZM114.512 3.6095L115.466 2.97749V3.28199L114.512 3.93837V3.6095ZM115.493 1.66204L116.473 1.03003V1.33453L115.493 1.9909V1.66204ZM115.493 2.62291L116.473 2.01662V2.32112L115.493 2.95178V2.62291ZM115.493 3.6095L116.473 2.97749V3.28199L115.493 3.93837V3.6095ZM119.8 3.93701V18.4489L119.542 18.702H116.447L116.187 18.4489V3.93701H119.8ZM116.499 1.66204L117.48 1.03003V1.33453L116.499 1.9909V1.66204ZM116.499 2.62291L117.48 2.01662V2.32112L116.499 2.95178V2.62291ZM116.499 3.6095L117.48 2.97749V3.28199L116.499 3.93837V3.6095ZM117.505 1.66204L118.459 1.03003V1.33453L117.505 1.9909V1.66204ZM117.505 2.62291L118.459 2.01662V2.32112L117.505 2.95178V2.62291ZM117.505 3.6095L118.459 2.97749V3.28199L117.505 3.93837V3.6095ZM118.485 1.66204L119.466 1.03003V1.33453L118.485 1.9909V1.66204ZM118.485 2.62291L119.466 2.01662V2.32112L118.485 2.95178V2.62291ZM118.485 3.6095L119.466 2.97749V3.28199L118.485 3.93837V3.6095ZM119.492 1.66204L120.472 1.03003V1.33453L119.492 1.9909V1.66204ZM119.492 2.62291L120.472 2.01662V2.32112L119.492 2.95178V2.62291ZM119.492 3.6095L120.472 2.97749V3.28199L119.492 3.93837V3.6095ZM120.496 1.66204L121.452 1.03003V1.33453L120.496 1.9909V1.66204ZM120.496 2.62291L121.452 2.01662V2.32112L120.496 2.95178V2.62291ZM120.496 3.6095L121.452 2.97749V3.28199L120.496 3.93837V3.6095ZM121.477 1.66204L122.459 1.03003V1.33453L121.477 1.9909V1.66204ZM121.477 2.62291L122.459 2.01662V2.32112L121.477 2.95178V2.62291ZM121.477 3.6095L122.459 2.97749V3.28199L121.477 3.93837V3.6095ZM122.483 1.66204L123.464 1.03003V1.33453L122.483 1.9909V1.66204ZM122.483 2.62291L123.464 2.01662V2.32112L122.483 2.95178V2.62291ZM122.483 3.6095L123.464 2.97749V3.28199L122.483 3.93837V3.6095ZM123.49 1.66204L124.445 1.03003V1.33453L123.49 1.9909V1.66204ZM123.49 2.62291L124.445 2.01662V2.32112L123.49 2.95178V2.62291ZM123.49 3.6095L124.445 2.97749V3.28199L123.49 3.93837V3.6095ZM124.471 1.66204L125.451 1.03003V1.33453L124.471 1.9909V1.66204ZM124.471 2.62291L125.451 2.01662V2.32112L124.471 2.95178V2.62291ZM124.471 3.6095L125.451 2.97749V3.28199L124.471 3.93837V3.6095Z" fill="#E4003E"/>
<path d="M135.279 12.1301H131.666L126.508 3.78539V1.25735L126.766 1.00427H128.572L129.088 1.25735L133.215 8.08496H133.731L137.859 1.25735L138.377 1.00427H140.183L140.441 1.25735V3.78539L135.279 12.1301ZM131.796 13.773C131.796 13.4685 132.054 13.2169 132.362 13.2169C132.673 13.2169 132.93 13.4699 132.93 13.773C132.93 14.0762 132.672 14.3279 132.362 14.3279C132.054 14.3279 131.796 14.0749 131.796 13.773ZM131.796 15.9722C131.796 15.6677 132.054 15.416 132.362 15.416C132.673 15.416 132.93 15.6691 132.93 15.9722C132.93 16.2754 132.672 16.5271 132.362 16.5271C132.054 16.5271 131.796 16.274 131.796 15.9722ZM131.796 18.1457C131.796 17.8412 132.054 17.5895 132.362 17.5895C132.673 17.5895 132.93 17.8425 132.93 18.1457C132.93 18.4489 132.672 18.7019 132.362 18.7019C132.054 18.7019 131.796 18.4502 131.796 18.1457ZM132.906 12.685C132.906 12.3818 133.165 12.1301 133.473 12.1301C133.783 12.1301 134.04 12.3832 134.04 12.685C134.04 12.9895 133.782 13.2412 133.473 13.2412C133.165 13.2412 132.906 12.9895 132.906 12.685ZM132.906 14.8598C132.906 14.5553 133.165 14.3036 133.473 14.3036C133.783 14.3036 134.04 14.5567 134.04 14.8598C134.04 15.1629 133.782 15.4147 133.473 15.4147C133.165 15.4147 132.906 15.1629 132.906 14.8598ZM132.906 17.0576C132.906 16.7545 133.165 16.5027 133.473 16.5027C133.783 16.5027 134.04 16.7558 134.04 17.0576C134.04 17.3621 133.782 17.6138 133.473 17.6138C133.165 17.6152 132.906 17.3621 132.906 17.0576ZM134.014 13.773C134.014 13.4685 134.272 13.2169 134.581 13.2169C134.891 13.2169 135.148 13.4699 135.148 13.773C135.148 14.0762 134.889 14.3279 134.581 14.3279C134.272 14.3279 134.014 14.0749 134.014 13.773ZM134.014 15.9722C134.014 15.6677 134.272 15.416 134.581 15.416C134.891 15.416 135.148 15.6691 135.148 15.9722C135.148 16.2754 134.889 16.5271 134.581 16.5271C134.272 16.5271 134.014 16.274 134.014 15.9722ZM134.014 18.1457C134.014 17.8412 134.272 17.5895 134.581 17.5895C134.891 17.5895 135.148 17.8425 135.148 18.1457C135.148 18.4489 134.889 18.7019 134.581 18.7019C134.272 18.7019 134.014 18.4502 134.014 18.1457Z" fill="#E4003E"/>
</g>
<defs>
<clipPath id="clip0_1923_2103">
<rect width="139.565" height="30" fill="white" transform="translate(0.722656 0.5)"/>
</clipPath>
</defs>
</svg>
