<svg viewBox="0 0 257 19" fill="none" xmlns="http://www.w3.org/2000/svg">
<path d="M15.5804 0.633301L12.3727 7.97997H12.4977L25.2869 0.633301H33.4937L19.8713 8.51057L26.6617 19H18.08L13.6225 11.4492L9.91481 13.5308L7.54026 19H0L7.08201 2.71486L2.41621 0.633301H7.9985H15.5804Z" fill="white"/>
<path d="M39.0369 9.49999C41.1199 4.6282 42.6719 2.72009 47.0421 2.72009C51.4122 2.72009 51.3305 4.6282 49.2476 9.49999C47.1237 14.4124 45.6126 16.2799 41.2424 16.2799C36.8314 16.2799 36.9131 14.4124 39.0369 9.49999ZM31.6035 9.49999C29.2346 15.062 28.9487 19 40.058 19C51.208 19 54.2712 15.062 56.6401 9.49999C59.009 3.93803 59.2949 0 48.1857 0C37.0764 0 33.9724 3.93803 31.6035 9.49999Z" fill="white"/>
<path d="M71.7633 3.40255H74.9436C78.7516 3.40255 79.7978 4.42066 79.0027 6.21253C78.1658 8.08585 75.7387 8.98179 72.7257 8.98179H69.3361L71.7633 3.40255ZM57.3262 19H64.9423L68.1226 11.6696H72.1817C79.3793 11.6696 84.9449 9.95917 86.577 6.13109C87.7905 3.40256 86.3259 0.633301 78.6261 0.633301H65.3189L57.3262 19Z" fill="white"/>
<path d="M92.8406 0.633301H113.363L112.06 3.65361H98.9486L97.1162 7.97997H109.454L108.151 11.0003H95.8132L92.4334 19H85.0225L92.8406 0.633301Z" fill="white"/>
<path d="M124.169 3.3679H126.975C130.802 3.3679 132.291 4.02093 131.483 5.77597C130.717 7.49019 128.464 8.18404 124.254 8.18404H122.043L124.169 3.3679ZM109.499 19H122.553C131.568 19 135.65 16.5103 136.925 13.6124C138.031 11.1635 135.947 9.61257 131.865 9.32686V9.28605C135.905 8.75545 138.541 7.24531 139.434 5.2862C141.007 1.77613 136.925 0.633301 130.59 0.633301H117.663L109.499 19ZM120.895 10.7554H124.211C127.613 10.7554 129.824 11.3676 128.889 13.5308C127.953 15.6532 125.147 16.3062 121.448 16.3062H118.429L120.895 10.7554Z" fill="white"/>
<path d="M152.538 3.3679H156.202C159.696 3.3679 161.187 4.22501 160.463 5.89842C159.568 7.89835 157.14 8.67382 153.433 8.67382H150.195L152.538 3.3679ZM137.84 19H145.594L149.045 11.2452H153.177C156.287 11.2452 157.267 12.1023 156.713 13.5716L155.35 17.0817C155.095 17.8163 154.924 18.5102 155.478 19H163.871L163.956 18.8367C162.678 18.4694 162.891 17.4898 163.701 15.5307C165.319 11.6533 165.106 10.2656 159.994 9.93909L160.037 9.89827C164.595 9.44931 167.364 7.81671 168.43 5.36782C169.836 2.22508 166.64 0.633301 160.292 0.633301H145.977L137.84 19Z" fill="white"/>
<path d="M185.897 3.81686H186.021L186.063 12.0614H178.744L185.897 3.81686ZM164.893 19H172.707L176.098 15.1226H186.021L186.063 19H193.878L191.934 0.633301H182.631L164.893 19Z" fill="white"/>
<path d="M213.149 0.633301L216.803 13.2043H216.928L222.368 0.633301H229.304L221.33 19H212.734L209.079 6.1433H208.954L203.389 19H196.454L204.428 0.633301H213.149Z" fill="white"/>
<path d="M241.505 3.40255H244.659C250.354 3.40255 250.108 5.52022 248.346 9.71482C246.216 14.6832 244.495 16.3122 239.333 16.3122H236.015L241.505 3.40255ZM227.371 19H239.129C249.002 19 253.057 16.0678 255.843 9.55193C258.137 4.17632 257.81 0.633301 247.445 0.633301H235.237L227.371 19Z" fill="white"/>
</svg>
