<svg width="66" height="65" viewBox="0 0 66 65" fill="none" xmlns="http://www.w3.org/2000/svg">
<g clip-path="url(#clip0_1923_2098)">
<path d="M1.37598 64.7373V0.262817H65.5341V64.7373H1.37598Z" stroke="#E4003E"/>
<path d="M47.1882 37.7717H19.749V36.032H25.5742V11.914H19.749V10.2007H39.307V11.914H33.4818V36.032H38.6217L47.1882 27.4128V37.7717Z" fill="#E4003E"/>
<path d="M14.1875 51.7416V50.9509H12.1315V46.8126H11.1826V51.7416H14.1875ZM17.7986 51.7416L17.7459 51.109V49.343C17.7459 48.4996 17.3241 48.1042 16.4016 48.1042C15.769 48.1042 15.2682 48.315 14.9519 48.8422L15.5581 49.2112C15.769 48.8949 16.0062 48.7368 16.3489 48.7368C16.797 48.7368 16.9815 48.9476 16.9288 49.4221C16.2962 49.5539 15.7426 49.6857 15.3736 49.8702C14.9782 50.0811 14.7937 50.3974 14.7937 50.8455C14.7937 51.4517 15.1627 51.8207 15.7426 51.8207C16.1907 51.8207 16.5597 51.6362 16.9024 51.3463L16.9551 51.7416H17.7986ZM16.9024 50.7927C16.6915 51.03 16.3752 51.1881 16.0853 51.1881C15.8217 51.1881 15.6372 51.03 15.6372 50.74C15.6372 50.5292 15.7163 50.3446 15.9008 50.2392C16.138 50.1074 16.4016 50.0547 16.9024 49.9493V50.7927ZM21.6733 51.7416V49.3957C21.6733 48.9476 21.6206 48.7368 21.5151 48.5523C21.357 48.2623 21.067 48.1042 20.6717 48.1042C20.2499 48.1042 19.8809 48.2623 19.5119 48.6313V48.1833H18.7475V51.7416H19.5646V49.2112C19.8809 48.9213 20.1181 48.8159 20.3554 48.8159C20.6717 48.8159 20.8562 49.0004 20.8562 49.3957V51.7416H21.6733ZM25.4162 49.3167C25.4162 49.1322 25.3898 48.974 25.3108 48.8159C25.4426 48.7631 25.6007 48.7368 25.7852 48.7368V48.0515C25.4689 48.0515 25.2053 48.2096 24.9945 48.4205C24.7572 48.236 24.4146 48.1042 23.9928 48.1042C23.0966 48.1042 22.5695 48.6577 22.5695 49.343C22.5695 49.7648 22.7276 50.1074 23.0439 50.3183C22.754 50.5028 22.5695 50.74 22.5695 51.0036C22.5695 51.2408 22.7013 51.4253 22.9912 51.5044V51.5308C22.6222 51.6626 22.4113 51.8734 22.4113 52.2161C22.4113 52.7696 23.0439 53.0332 23.9665 53.0332C24.9945 53.0332 25.7589 52.7169 25.7589 51.9525C25.7589 50.5028 23.3075 51.2672 23.3075 50.7664C23.3075 50.6873 23.3866 50.5819 23.4657 50.5292C23.6238 50.5555 23.782 50.5819 23.9665 50.5819C24.889 50.5555 25.4162 50.0547 25.4162 49.3167ZM24.6518 49.3694C24.6518 49.7648 24.4146 50.002 23.9928 50.002C23.5711 50.002 23.3339 49.7648 23.3339 49.3694C23.3339 48.974 23.5711 48.7368 23.9928 48.7368C24.4146 48.7368 24.6518 48.974 24.6518 49.3694ZM24.9417 52.0316C24.9417 52.3215 24.52 52.4533 24.0192 52.4533C23.492 52.4533 23.1494 52.3215 23.1494 52.0579C23.1494 51.7944 23.4393 51.6626 23.782 51.6099C24.52 51.6362 24.9417 51.6889 24.9417 52.0316ZM29.3436 50.9245L28.711 50.6082C28.5001 51.0036 28.2629 51.1618 27.8675 51.1618C27.314 51.1618 27.1031 50.7664 27.0768 50.1074H29.3436C29.3436 50.002 29.3436 49.9229 29.3436 49.8702C29.3436 48.7631 28.8428 48.0778 27.8412 48.0778C26.9186 48.0778 26.2597 48.7895 26.2597 49.9229C26.2597 51.03 26.7868 51.7944 27.8148 51.7944C28.4211 51.8207 28.9482 51.6099 29.3436 50.9245ZM27.8412 48.7368C28.2893 48.7368 28.5529 49.0531 28.5529 49.5803H27.1031C27.1559 49.0794 27.3931 48.7368 27.8412 48.7368ZM33.0865 51.7416V49.3957C33.0865 48.9476 33.0338 48.7368 32.9284 48.5523C32.7702 48.2623 32.4803 48.1042 32.0849 48.1042C31.6632 48.1042 31.2941 48.2623 30.9251 48.6313V48.1833H30.1607V51.7416H30.9778V49.2112C31.2941 48.9213 31.5314 48.8159 31.7686 48.8159C32.0849 48.8159 32.2694 49.0004 32.2694 49.3957V51.7416H33.0865ZM36.434 48.7631C36.1441 48.2887 35.7487 48.1042 35.1425 48.1042C34.4044 48.1042 33.8773 48.5259 33.8773 49.1585C33.8773 50.5292 35.7487 50.0283 35.7487 50.7927C35.7487 51.0563 35.5378 51.2145 35.1688 51.2145C34.7735 51.2145 34.5626 51.0563 34.3254 50.7137L33.7191 51.1354C34.0618 51.6362 34.4572 51.8471 35.1425 51.8471C35.9596 51.8471 36.5395 51.4517 36.5395 50.74C36.5395 49.343 34.6417 49.8175 34.6417 49.1322C34.6417 48.8949 34.8262 48.7368 35.1161 48.7368C35.4061 48.7368 35.6433 48.8422 35.8278 49.1322L36.434 48.7631ZM39.4916 50.5555C39.2808 50.9509 39.0435 51.1354 38.6745 51.1354C38.2001 51.1354 37.8574 50.7664 37.8574 49.9756C37.8574 49.1849 38.1737 48.7631 38.6482 48.7631C38.9908 48.7631 39.228 48.9477 39.3862 49.3167L40.0451 49.0531C39.8079 48.3678 39.3071 48.0778 38.6218 48.0778C37.6465 48.0778 37.0139 48.7895 37.0139 49.9493C37.0139 51.0827 37.5938 51.7944 38.5691 51.7944C39.2544 51.7944 39.7552 51.5044 40.0979 50.8718L39.4916 50.5555ZM43.6035 51.7416V49.4485C43.6035 48.974 43.5772 48.7104 43.4454 48.5259C43.2872 48.236 42.9973 48.0778 42.5756 48.0778C42.2065 48.0778 41.8639 48.2096 41.4685 48.5259V46.7863H40.6514V51.7153H41.4685V49.1585C41.7321 48.8949 41.9957 48.7631 42.2593 48.7631C42.6546 48.7631 42.7601 49.0267 42.7601 49.4221V51.7153H43.6035V51.7416ZM47.3728 50.9245L46.7402 50.6082C46.5293 51.0036 46.2921 51.1618 45.8967 51.1618C45.3432 51.1618 45.1323 50.7664 45.106 50.1074H47.3728C47.3728 50.002 47.3728 49.9229 47.3728 49.8702C47.3728 48.7631 46.872 48.0778 45.8704 48.0778C44.9478 48.0778 44.2889 48.7895 44.2889 49.9229C44.2889 51.03 44.816 51.7944 45.844 51.7944C46.4503 51.8207 47.0038 51.6099 47.3728 50.9245ZM45.8704 48.7368C46.3185 48.7368 46.5821 49.0531 46.5821 49.5803H45.1323C45.1851 49.0794 45.4223 48.7368 45.8704 48.7368ZM49.0334 46.8126H48.1636V47.6561H49.0334V46.8126ZM49.007 48.1833H48.1899V51.7416H49.007V48.1833ZM53.0135 51.7416V46.8126H52.1701V48.4996C51.9065 48.2623 51.6165 48.1305 51.2475 48.1305C50.3777 48.1305 49.7978 48.8686 49.7978 50.002C49.7978 51.0827 50.2986 51.8207 51.1421 51.8207C51.5902 51.8207 51.9065 51.6626 52.2228 51.3463L52.3282 51.7416H53.0135ZM52.1701 50.74C51.9855 50.9773 51.722 51.1354 51.4584 51.1354C50.9839 51.1354 50.6676 50.7137 50.6676 50.002C50.6676 49.2376 50.9576 48.7895 51.4584 48.7895C51.7483 48.7895 51.9855 48.9213 52.1701 49.1585V50.74ZM55.7548 51.0563C55.623 51.0827 55.4912 51.109 55.3858 51.109C55.1486 51.109 55.0431 50.9773 55.0431 50.6873V48.8159H55.7812V48.1833H55.0431V46.9971H54.1997V48.1833H53.6725V48.8159H54.1997V50.74C54.1997 51.5308 54.4632 51.7944 55.1222 51.7944C55.3594 51.7944 55.5439 51.768 55.7548 51.7416V51.0563Z" fill="#E4003E"/>
</g>
<defs>
<clipPath id="clip0_1923_2098">
<rect width="66" height="65" fill="white" transform="translate(0.928711)"/>
</clipPath>
</defs>
</svg>
