<svg width="67" height="30" viewBox="0 0 67 30" fill="none" xmlns="http://www.w3.org/2000/svg">
<path d="M39.5501 9.96953C39.5501 8.80707 39.331 8.60793 38.9153 8.44116C38.7137 8.3615 38.3926 8.25695 38.3926 8.17481C38.3926 8.07275 39.219 8.07275 39.219 8.07275L40.13 8.07773C40.4785 8.07773 40.7449 8.13498 40.9291 8.25198C41.1133 8.36897 41.2427 8.56064 41.3224 8.82698C41.3995 9.09333 41.4394 9.47418 41.4394 9.96704V17.014H46.2037V17.6686H39.5501V9.96704V9.96953Z" fill="#E4003E"/>
<path d="M47.8079 8.44105C47.544 8.35891 47.2852 8.25187 47.2852 8.1747C47.2852 8.05771 48.0867 8.07514 48.0867 8.07514L51.2081 8.08012C52.4279 8.08012 53.4484 8.24938 54.2674 8.58791C55.0863 8.92644 55.4945 9.606 55.4945 10.6216C55.4945 11.0672 55.3178 11.4853 54.9643 11.8786C54.6109 12.2719 54.1155 12.5507 53.4758 12.715C55.1137 12.8793 55.9326 13.646 55.9326 15.0101C55.9326 16.0182 55.5294 16.7127 54.7254 17.096C53.9214 17.4793 52.8958 17.671 51.6462 17.671H48.4501V10.5444C48.4501 10.5444 48.4576 10.0242 48.4501 9.70556C48.4451 9.50643 48.5223 8.66259 47.8104 8.44354L47.8079 8.44105ZM51.4272 12.4263C52.057 12.4263 52.5523 12.2794 52.9157 11.9832C53.2792 11.687 53.4609 11.2115 53.4609 10.5519C53.4609 9.89225 53.2443 9.40188 52.8137 9.10567C52.383 8.80945 51.8479 8.66259 51.2081 8.66259C50.9468 8.66259 50.3369 8.76465 50.3369 8.76465V12.4263H51.4272ZM51.4272 17.091C52.2312 17.091 52.8435 16.9168 53.2642 16.5683C53.6849 16.2198 53.8965 15.7245 53.8965 15.0872C53.8965 13.7505 53.0726 13.0809 51.4272 13.0809H50.3369V16.9467C50.444 16.9865 51.0837 17.091 51.355 17.091H51.4272Z" fill="#E4003E"/>
<path d="M58.4728 9.77532C58.3484 9.49653 58.2513 9.30486 58.1592 9.15053C58.0771 9.01114 57.8431 8.56059 57.3627 8.36643C57.2805 8.33407 57.0391 8.24446 57.0391 8.17476C57.0391 8.05279 58.1567 8.07768 58.55 8.08017C58.906 8.08017 59.135 8.19717 59.3316 8.29425C59.817 8.5357 60.2128 9.03105 60.5239 9.77532L62.819 15.2092L65.8857 8.0752H66.6275L62.4357 17.6711H61.8532L58.4753 9.77532H58.4728Z" fill="#E4003E"/>
<path d="M3.68193 18.7115C3.37327 17.5142 3.20898 16.2596 3.20898 14.9652C3.20898 9.45912 6.1786 4.64749 10.6019 2.04129C10.6019 2.04129 11.1495 1.72517 10.9404 2.46695C10.821 2.88513 10.3406 4.49316 10.5646 4.49565C10.7388 4.49565 12.7426 0.988362 13.0861 0.868881C13.4496 0.741931 12.551 3.34315 12.7899 3.34315C13.0115 3.34315 14.8435 0.343659 15.1995 0.27645C15.5853 0.204263 14.4627 2.76316 14.6817 2.76316C14.9431 2.76316 16.9469 0.0225517 17.3626 0.000148837C17.7783 -0.022254 16.4092 2.49184 16.6557 2.49184C16.9021 2.49184 19.1175 -0.00980797 19.6103 0.0424653C20.0758 0.0922493 18.4753 2.52918 18.6893 2.52918C18.9582 2.52918 21.3279 0.281429 21.8606 0.425802C22.4306 0.580133 20.5811 2.92745 20.8002 2.92745C21.1785 2.92745 23.4213 0.911197 23.9067 1.09789C24.2179 1.21986 24.0013 1.95417 23.4313 2.55407C19.8842 6.29534 17.3551 5.63819 15.2094 7.13669C13.2579 8.49829 12.8347 10.5917 12.5535 11.1095C12.3394 11.5052 11.7021 11.8064 11.7021 11.8064C6.81584 14.6516 3.68193 18.709 3.68193 18.709V18.7115Z" fill="#E4003E"/>
<path d="M0.961662 24.5486C1.25041 25.3352 1.90009 25.8032 2.83603 25.4671C3.28409 25.3078 3.46829 25.624 4.0184 25.6041C4.75521 25.5767 6.99549 24.8822 7.0154 24.9021C7.7995 25.7858 8.70059 26.5898 9.71619 27.2917C14.2465 30.4207 19.892 30.7144 24.5493 28.5562C24.5493 28.5562 25.1219 28.2849 24.39 28.036C23.9793 27.8966 22.3813 27.3789 22.5057 27.1922C22.6028 27.0478 26.6303 27.3938 26.924 27.1797C27.2352 26.9532 24.5842 26.2139 24.7211 26.0173C24.8456 25.8355 28.3553 26.0347 28.6142 25.7783C28.893 25.502 26.1499 24.9718 26.2744 24.7901C26.4237 24.5735 29.8165 24.4839 30.0729 24.1553C30.3293 23.8268 27.4816 23.5231 27.621 23.3215C27.7604 23.1198 31.0785 22.7191 31.315 22.281C31.539 21.8678 28.6242 21.8005 28.7437 21.6263C28.8955 21.4048 32.0941 20.7327 32.2758 20.2124C32.4725 19.6549 29.4904 19.844 29.6149 19.6623C29.8314 19.3512 32.7637 18.6517 32.8857 18.1464C32.9629 17.8203 32.236 17.5913 31.4195 17.7083C25.5649 18.5546 24.0664 21.2703 21.4254 21.2654C20.1335 21.2629 18.6126 20.6655 18.6151 20.322C18.6201 19.62 20.9773 19.7022 22.314 11.7367C22.3514 11.5102 30.8744 8.52065 31.0113 8.13234C31.1233 7.81621 25.2986 8.77206 23.474 8.90399C22.7596 8.95626 21.2835 8.21697 19.9966 8.10247C14.8415 7.64694 14.4731 11.9831 13.6193 12.3341C8.70308 14.3504 -0.0240626 21.8553 0.961662 24.5486Z" fill="#E4003E"/>
<path d="M41.5094 29.9376L40.0035 25.9997H39.9786C40.006 26.3108 40.0209 26.6817 40.0209 27.1124V29.9376H39.543V25.4944H40.3196L41.726 29.1585H41.7509L43.1697 25.4944H43.9414V29.9376H43.4236V27.075C43.4236 26.7465 43.4386 26.3905 43.466 26.0047H43.4411L41.9226 29.9376H41.5069H41.5094Z" fill="#E4003E"/>
<path d="M45.5591 26.6095V28.7701C45.5591 29.0415 45.6213 29.2431 45.7433 29.3775C45.8653 29.5119 46.0594 29.5791 46.3233 29.5791C46.6718 29.5791 46.9257 29.4845 47.0875 29.2929C47.2493 29.1037 47.3289 28.7925 47.3289 28.3594V26.6095H47.8342V29.9401H47.4186L47.3464 29.4945H47.319C47.2144 29.6588 47.0726 29.7832 46.8884 29.8704C46.7042 29.9575 46.4951 29.9998 46.2611 29.9998C45.8553 29.9998 45.5516 29.9027 45.35 29.7111C45.1484 29.5194 45.0488 29.2107 45.0488 28.7876V26.6095H45.5591ZM45.589 25.7059C45.589 25.6014 45.6164 25.5242 45.6686 25.4769C45.7234 25.4296 45.7856 25.4072 45.8628 25.4072C45.94 25.4072 46.0072 25.4296 46.0619 25.4769C46.1167 25.5242 46.1441 25.5989 46.1441 25.7059C46.1441 25.813 46.1167 25.8827 46.0619 25.9324C46.0072 25.9822 45.94 26.0071 45.8628 26.0071C45.7856 26.0071 45.7234 25.9822 45.6686 25.9324C45.6139 25.8827 45.589 25.808 45.589 25.7059ZM46.7465 25.7059C46.7465 25.6014 46.7738 25.5242 46.8261 25.4769C46.8784 25.4296 46.9431 25.4072 47.0178 25.4072C47.0925 25.4072 47.1572 25.4296 47.2144 25.4769C47.2692 25.5242 47.2966 25.5989 47.2966 25.7059C47.2966 25.813 47.2692 25.8827 47.2144 25.9324C47.1597 25.9822 47.0925 26.0071 47.0178 26.0071C46.9431 26.0071 46.8784 25.9822 46.8261 25.9324C46.7714 25.8827 46.7465 25.808 46.7465 25.7059Z" fill="#E4003E"/>
<path d="M51.1825 29.9377V27.782C51.1825 27.5107 51.1202 27.3091 50.9983 27.1746C50.8738 27.0402 50.6821 26.9755 50.4183 26.9755C50.0698 26.9755 49.8159 27.0701 49.6516 27.2568C49.4873 27.4435 49.4077 27.7571 49.4077 28.1902V29.9377H48.9023V26.6071H49.3131L49.3952 27.0626H49.4201C49.5246 26.8983 49.669 26.7714 49.8557 26.6818C50.0424 26.5922 50.249 26.5474 50.478 26.5474C50.8788 26.5474 51.18 26.6444 51.3841 26.8386C51.5857 27.0328 51.6878 27.3414 51.6878 27.7671V29.9401H51.1825V29.9377Z" fill="#E4003E"/>
<path d="M54.055 29.9999C53.5721 29.9999 53.1987 29.8505 52.9348 29.5543C52.671 29.2581 52.5391 28.8374 52.5391 28.2948C52.5391 27.7521 52.6735 27.3066 52.9423 27.0029C53.2111 26.6992 53.592 26.5474 54.0898 26.5474C54.2491 26.5474 54.4109 26.5648 54.5702 26.5996C54.7296 26.6345 54.8565 26.6743 54.9461 26.7216L54.7918 27.1497C54.6798 27.1049 54.5578 27.0676 54.4284 27.0377C54.2964 27.0079 54.1794 26.9929 54.0799 26.9929C53.4028 26.9929 53.0643 27.4236 53.0643 28.2873C53.0643 28.6955 53.1464 29.0092 53.3132 29.2282C53.48 29.4473 53.7239 29.5568 54.0475 29.5568C54.3238 29.5568 54.6101 29.4971 54.9013 29.3776V29.8232C54.6773 29.9377 54.3985 29.9974 54.06 29.9974L54.055 29.9999Z" fill="#E4003E"/>
<path d="M57.9651 29.9376V27.782C57.9651 27.5107 57.9029 27.309 57.7809 27.1746C57.6565 27.0402 57.4648 26.9755 57.2009 26.9755C56.85 26.9755 56.5936 27.0701 56.4343 27.2617C56.2725 27.4534 56.1928 27.7646 56.1928 28.1977V29.9401H55.6875V25.2131H56.1928V26.6444C56.1928 26.8162 56.1853 26.9606 56.1679 27.0726H56.1978C56.2974 26.9133 56.4392 26.7863 56.621 26.6942C56.8027 26.6021 57.0142 26.5548 57.2482 26.5548C57.6565 26.5548 57.9601 26.6519 58.1643 26.8461C58.3684 27.0402 58.4704 27.3464 58.4704 27.7695V29.9426H57.9651V29.9376Z" fill="#E4003E"/>
<path d="M60.9134 29.9999C60.4205 29.9999 60.0322 29.8505 59.7485 29.5493C59.4647 29.2506 59.3203 28.8325 59.3203 28.2998C59.3203 27.7671 59.4522 27.3364 59.7161 27.0203C59.98 26.7042 60.3359 26.5474 60.7815 26.5474C61.1997 26.5474 61.5282 26.6843 61.7722 26.9581C62.0161 27.2319 62.1356 27.5953 62.1356 28.0434V28.362H59.8406C59.8505 28.7528 59.9501 29.049 60.1368 29.2531C60.3235 29.4548 60.5873 29.5568 60.9283 29.5568C61.2868 29.5568 61.6403 29.4821 61.9912 29.3328V29.7833C61.812 29.8605 61.6452 29.9153 61.4859 29.9501C61.3266 29.9825 61.1349 29.9999 60.9109 29.9999H60.9134ZM60.7765 26.9705C60.5102 26.9705 60.2961 27.0576 60.1368 27.2319C59.9775 27.4061 59.8829 27.6476 59.8555 27.9538H61.5979C61.5979 27.6351 61.5257 27.3912 61.3864 27.2219C61.2445 27.0527 61.0428 26.968 60.779 26.968L60.7765 26.9705Z" fill="#E4003E"/>
<path d="M65.2762 29.9377V27.782C65.2762 27.5107 65.214 27.3091 65.092 27.1746C64.9675 27.0402 64.7759 26.9755 64.512 26.9755C64.1635 26.9755 63.9096 27.0701 63.7453 27.2568C63.5811 27.4435 63.5014 27.7571 63.5014 28.1902V29.9377H62.9961V26.6071H63.4068L63.489 27.0626H63.5138C63.6184 26.8983 63.7628 26.7714 63.9495 26.6818C64.1361 26.5922 64.3428 26.5474 64.5718 26.5474C64.9725 26.5474 65.2737 26.6444 65.4778 26.8386C65.6795 27.0328 65.7815 27.3414 65.7815 27.7671V29.9401H65.2762V29.9377Z" fill="#E4003E"/>
</svg>
