<svg width="37" height="37" viewBox="0 0 37 37" fill="none" xmlns="http://www.w3.org/2000/svg">
<path fill-rule="evenodd" clip-rule="evenodd" d="M18.5 37C28.7173 37 37 28.7173 37 18.5C37 8.28273 28.7173 0 18.5 0C8.28273 0 0 8.28273 0 18.5C0 28.7173 8.28273 37 18.5 37ZM18.5 1C8.86344 1 1 8.82489 1 18.5C1 28.1751 8.82489 36 18.5 36C28.1366 36 36 28.1751 36 18.5C36 8.82489 28.1751 1 18.5 1ZM26.402 21.1211C26.3634 21.4681 26.3634 21.5452 26.3634 21.9692C26.3634 22.8557 26.3634 24.2819 26.2863 24.5903C26.2478 24.8987 26.1707 25.1685 26.0551 25.4769C25.2841 27.5198 23.7037 29.1388 21.6993 30.0253C20.6971 30.4493 19.5793 30.6806 18.3844 30.6806C15.9945 30.6806 13.4504 29.4086 11.8315 27.2885C10.7907 25.9394 10.1355 24.2819 10.1355 22.3546C10.1355 21.044 10.4438 20.7742 10.4438 20.7742C10.4438 20.7742 10.8678 20.8899 10.9835 21.0055L10.9449 20.8899C10.9064 20.62 10.8678 20.2731 10.8293 19.8877C10.7908 19.5407 10.7908 19.2324 10.7908 18.9625C10.7908 17.4592 12.2941 15.3007 12.2941 15.3007C12.2941 15.3007 12.4868 16.457 12.7566 17.1509C12.8723 17.4592 12.9879 17.6905 13.1035 17.6905C13.2963 17.6905 13.3348 17.228 13.3733 16.6112C13.3869 16.4688 13.3993 16.3168 13.4121 16.1589C13.4724 15.4191 13.5432 14.5483 13.7974 13.913C14.761 11.446 16.2643 10.8678 16.2643 10.8678C16.2643 10.8678 15.8403 11.7929 16.2643 12.8722C19.2709 9.98127 19.1167 7.55286 19.1167 7.55286C19.1167 7.55286 21.1211 9.36453 20.5815 10.9449C20.3888 11.9471 20.4273 12.7566 20.6586 12.7566C21.7764 12.7952 21.8921 10.5209 21.8921 10.5209C21.8921 10.5209 23.3183 13.4504 22.9714 16.033C24.3976 14.7225 25.4769 14.6454 25.4769 14.6454C25.4769 14.6454 24.783 15.8018 24.783 17.4207C24.783 17.6134 24.783 17.8447 24.8216 18.0374C24.8987 19.0782 25.1685 19.7335 25.3998 19.7335C25.4769 19.7335 25.6311 19.6564 25.8623 19.5022C26.3634 19.1553 27.0187 18.5385 27.0187 18.5385C27.0187 18.5385 26.5562 19.4251 26.402 21.1211ZM19.233 19.6949C19.2715 20.1189 19.3101 20.4658 19.3101 20.4658C19.3101 20.4658 19.0403 20.1575 18.8475 19.6178C18.6548 19.1938 18.5392 18.5771 18.5777 17.8447C18.6203 17.2335 18.7783 16.8476 18.9279 16.4823C19.1839 15.857 19.4153 15.2917 19.0017 13.7588C19.4257 14.0672 20.3123 16.7654 19.4643 17.7676C19.1944 18.1145 19.1944 19.0396 19.233 19.6949ZM23.3774 24.2998L23.3775 24.2997C23.405 24.2521 23.4243 24.2187 23.4335 24.2049C23.4721 24.3976 23.4721 24.5518 23.4721 24.7445C23.4721 27.5969 21.1593 29.8712 18.3454 29.8712C15.493 29.8712 13.2188 27.5584 13.2188 24.7445C13.2188 24.4747 13.2188 24.2434 13.2573 24.0121V23.9736C13.2661 23.9868 13.2805 24.0147 13.3006 24.0537L13.3006 24.0538C13.4559 24.3548 13.9504 25.3139 14.8377 25.2456C14.9533 25.2456 15.069 25.13 15.0304 25.0529C14.3366 23.9736 14.8762 22.239 14.8762 22.239C14.8762 22.239 15.7628 24.5903 16.5337 24.4747C16.6494 24.4747 16.6879 24.3976 16.6879 24.2434C16.6879 24.1116 16.6101 23.8464 16.5135 23.5175C16.3558 22.9803 16.1483 22.2731 16.1483 21.6993C16.1483 21.3139 16.341 20.543 16.5337 19.8877L16.8806 18.8469C16.8806 18.8469 17.1119 19.2324 17.2276 19.6949C17.2363 19.7562 17.247 19.8193 17.2579 19.8836C17.2951 20.1027 17.3345 20.3343 17.3047 20.543C17.1119 22.7786 18.037 23.9736 18.1527 23.9736C18.4996 24.0121 19.1163 23.3954 19.5403 21.6993C19.5403 21.6993 20.0414 22.7401 20.0414 23.3568C20.0414 24.5289 19.7188 25.2653 19.491 25.7853C19.3666 26.0692 19.2705 26.2885 19.2705 26.4791C19.2705 26.5947 19.3091 26.6718 19.4247 26.6718C20.7353 26.6718 21.2364 24.1663 21.0051 22.9714C21.0431 23.1234 21.1976 23.3711 21.3812 23.6653L21.3812 23.6654L21.3812 23.6654C21.7562 24.2665 22.2523 25.0617 22.1229 25.6311C22.5299 25.7667 23.1756 24.6491 23.3774 24.2998Z" fill="#F5FF00"/>
</svg>
