<svg width="39" height="30" viewBox="0 0 39 30" fill="none" xmlns="http://www.w3.org/2000/svg">
<path d="M38.4929 14.0221C38.4822 14.0597 38.4645 14.0966 38.4616 14.135C38.4211 14.7676 38.1805 15.3235 37.7807 15.8042C37.0672 16.6633 36.1385 17.0524 35.0288 16.9572C33.5747 16.833 32.4046 15.6948 32.2044 14.25C31.968 12.5396 33.1288 10.9733 34.8165 10.6971C36.5822 10.4082 38.162 11.6059 38.4481 13.2936C38.4652 13.3959 38.4779 13.4981 38.4929 13.601V14.0221ZM35.3291 16.5262C36.8251 16.527 38.0427 15.3157 38.0456 13.8247C38.0484 12.3209 36.835 11.1011 35.3362 11.0997C33.8409 11.099 32.624 12.3103 32.6212 13.8027C32.6176 15.3072 33.8289 16.5248 35.3291 16.5262Z" fill="#E4003E"/>
<path d="M9.76562 30C9.76918 29.9354 9.77627 29.8708 9.77627 29.8062C9.77627 28.1377 9.77627 26.4699 9.77627 24.8014V24.6062C9.84088 24.6019 9.89342 24.5962 9.94667 24.5962C10.3322 24.5955 10.7177 24.5962 11.1033 24.5955C11.1579 24.5955 11.2126 24.5898 11.2673 24.5863L11.2623 24.5813C11.2623 26.3478 11.2623 28.1143 11.2623 29.8807C11.2623 29.9205 11.2673 29.9603 11.2694 30H9.76562Z" fill="#E4003E"/>
<path d="M9.75825 11.9148C9.75825 11.9801 9.75967 12.0454 9.75967 12.11C9.75967 16.1918 9.75967 20.2736 9.75967 24.3547C9.75967 24.4236 9.75967 24.4924 9.75967 24.5705H6.78548C5.43222 22.1324 4.07327 19.685 2.71504 17.2376C2.70297 17.2398 2.6909 17.2419 2.67812 17.244C2.66534 17.4251 2.67386 17.6068 2.67244 17.7886C2.67102 17.9789 2.67244 18.1699 2.67244 18.3602V24.5521C2.55245 24.5847 0.20022 24.5933 0 24.5613C0 20.356 0 16.1478 0 11.9226H0.18531C0.997551 11.9226 1.80979 11.9254 2.62132 11.9197C2.74841 11.919 2.81515 11.956 2.87692 12.0696C4.23728 14.5865 5.60262 17.1013 6.96653 19.6169C6.99422 19.668 7.02475 19.7184 7.06735 19.766C7.10214 19.5821 7.08794 19.4003 7.09007 19.2193C7.09291 19.034 7.09007 18.8479 7.09007 18.6626V11.9254C7.99106 11.9233 8.87643 11.9212 9.7618 11.919L9.75683 11.9141L9.75825 11.9148Z" fill="#E4003E"/>
<path d="M11.2674 24.5863C11.2709 24.5316 11.2773 24.477 11.2773 24.4223C11.2773 20.3093 11.2773 16.1962 11.2773 12.0839C11.2773 12.0292 11.2738 11.9739 11.2717 11.9192L11.2667 11.9242C12.7549 11.9242 14.243 11.9242 15.7312 11.9234C16.3041 11.9234 16.8721 11.9682 17.4302 12.1031C17.9265 12.2224 18.393 12.4105 18.8133 12.7045C19.4622 13.1581 19.879 13.7829 20.1332 14.5213C20.3568 15.1703 20.4711 15.8398 20.4726 16.5271C20.4747 17.6901 20.4818 18.8531 20.4704 20.0153C20.4626 20.7665 20.3291 21.5006 20.0643 22.2057C19.6362 23.3474 18.8211 24.0588 17.6475 24.3662C17.0915 24.5118 16.525 24.5742 15.952 24.5764C14.439 24.5813 12.9252 24.5792 11.4122 24.5799C11.3618 24.5799 11.3121 24.5813 11.2617 24.5813L11.2667 24.5863H11.2674ZM14.1436 22.2021C14.194 22.2064 14.2231 22.2107 14.253 22.2107C14.7187 22.2107 15.1852 22.2199 15.6509 22.205C15.8796 22.1979 16.1117 22.1666 16.334 22.1127C16.9957 21.9515 17.4316 21.5397 17.6326 20.8844C17.7256 20.5798 17.766 20.2667 17.7667 19.9507C17.7703 18.8126 17.7731 17.6745 17.7639 16.537C17.7618 16.2836 17.7291 16.0258 17.6744 15.778C17.5204 15.0773 17.1022 14.6073 16.4007 14.4191C16.1849 14.3616 15.9577 14.3268 15.7347 14.3183C15.2491 14.3005 14.7627 14.3069 14.2764 14.3041C14.2331 14.3041 14.1898 14.3126 14.1429 14.3176V22.2021H14.1436Z" fill="#E4003E"/>
<path d="M28.7096 19.2165C29.6042 21.0065 30.4903 22.78 31.3849 24.57H28.3823C28.3568 24.5181 28.3284 24.4599 28.3014 24.4017C27.6006 22.8929 26.8998 21.3842 26.1998 19.8754C26.1849 19.8435 26.1692 19.8122 26.1557 19.7796C26.1337 19.7263 26.0947 19.7072 26.0372 19.7079C25.5757 19.7136 25.1149 19.7178 24.6534 19.7228C24.6392 19.7228 24.625 19.7299 24.5952 19.7384C24.5746 19.9124 24.5881 20.0913 24.5859 20.2688C24.5831 20.4441 24.5859 20.6195 24.5859 20.7956V24.0147C24.5859 24.1944 24.5859 24.3747 24.5859 24.5508C24.4681 24.5856 21.9994 24.5941 21.8105 24.5614V11.9334C21.8539 11.9298 21.8965 11.9234 21.9398 11.9234C23.4485 11.9234 24.958 11.917 26.4667 11.9284C27.1803 11.9341 27.8867 12.0171 28.5669 12.2522C29.1619 12.4573 29.6816 12.774 30.0735 13.2781C30.4008 13.6991 30.5904 14.1812 30.6891 14.6995C30.8162 15.3691 30.8389 16.0443 30.7289 16.7188C30.5471 17.8349 29.9543 18.6443 28.9198 19.12C28.8566 19.1491 28.7934 19.1775 28.7096 19.2158V19.2165ZM24.5448 14.1606C24.5135 14.3722 24.5235 17.3216 24.5561 17.4366C24.5973 17.4394 24.6413 17.4458 24.6853 17.4458C25.2264 17.4458 25.7674 17.4501 26.3084 17.4437C26.4781 17.4415 26.6499 17.4281 26.8153 17.394C27.487 17.2562 27.9265 16.8636 28.0784 16.1841C28.1558 15.8377 28.1459 15.4876 28.0657 15.1411C27.9641 14.7038 27.6986 14.4169 27.2726 14.2778C27.0667 14.2103 26.8551 14.1677 26.6393 14.1649C25.9782 14.1571 25.3172 14.1542 24.6562 14.15C24.6221 14.15 24.5881 14.1571 24.5448 14.1613V14.1606Z" fill="#E4003E"/>
<path d="M9.76278 11.9198C9.76704 11.8503 9.77485 11.7807 9.77556 11.7111C9.77556 7.8849 9.77556 4.0587 9.77556 0.232511V0.0287401C9.89981 -0.00320995 11.0557 -0.0110195 11.2609 0.0180905V6.95906C11.2609 8.55869 11.2609 10.1583 11.2609 11.758C11.2609 11.8126 11.2644 11.868 11.2659 11.9234L11.2708 11.9184C11.2261 11.9149 11.1821 11.9078 11.1373 11.9078C10.7121 11.9071 10.2875 11.9078 9.86218 11.9078C9.82739 11.9078 9.7926 11.912 9.75781 11.9149L9.76278 11.9198Z" fill="#E4003E"/>
<path d="M36.5881 11.9453V15.0934C35.8945 15.3412 35.2043 15.5883 34.4879 15.8439C34.4709 15.4292 34.4815 15.0402 34.4801 14.6518C34.478 14.267 34.4801 13.8814 34.4801 13.4696C34.1202 13.5832 33.79 13.7196 33.4407 13.836C33.4336 13.7941 33.4237 13.7622 33.4229 13.7295C33.4215 13.5541 33.4215 13.3788 33.4229 13.2034C33.4237 13.0784 33.4244 13.077 33.5443 13.033C34.0719 12.8427 34.5994 12.6531 35.1269 12.4636C35.56 12.3081 35.9939 12.1526 36.427 11.9978C36.4774 11.9801 36.5285 11.9637 36.5895 11.9438L36.5881 11.9453Z" fill="#E4003E"/>
</svg>
