<svg width="31" height="31" viewBox="0 0 31 31" fill="none" xmlns="http://www.w3.org/2000/svg">
<g clip-path="url(#clip0_1923_2102)">
<path fill-rule="evenodd" clip-rule="evenodd" d="M0.722656 13.0888C0.722656 9.575 1.80016 6.68751 3.95516 4.42625C6.11141 2.16626 8.94766 1.03625 12.4627 1.03625C15.9364 1.03625 18.7502 2.16626 20.9064 4.42625C23.0614 6.68625 24.1389 9.57376 24.1389 13.0888C24.1389 16.4375 23.0402 19.2838 20.8439 21.6263C18.6464 23.9713 15.8527 25.1425 12.4627 25.1425C9.03016 25.1425 6.21641 23.9713 4.01891 21.6275C1.82141 19.2838 0.722656 16.4363 0.722656 13.0888ZM5.24266 13.0888C5.24266 15.3913 5.86016 17.4013 7.09516 19.1163C8.32891 20.8325 10.1189 21.69 12.4627 21.69C14.7639 21.69 16.5327 20.8325 17.7677 19.115C19.0014 17.4 19.6189 15.39 19.6189 13.09C19.6189 10.7875 18.9702 8.7775 17.6727 7.0625C16.3752 5.34751 14.6389 4.4875 12.4627 4.4875C10.2864 4.4875 8.53766 5.34625 7.22016 7.0625C5.90141 8.77876 5.24266 10.7875 5.24266 13.0888ZM30.4802 29.6638H23.7002V27.905L24.4852 27.215C25.0077 26.7538 25.4152 26.3675 25.7089 26.0525C26.0014 25.74 26.3577 25.3313 26.7764 24.8288C27.1433 24.4 27.469 23.9375 27.7489 23.4475C27.9789 23.0288 28.0939 22.6313 28.0939 22.255C28.0992 22.0592 28.0563 21.8651 27.9688 21.6899C27.8814 21.5146 27.7522 21.3635 27.5927 21.25C27.268 21.0031 26.8705 20.8711 26.4627 20.875C25.7089 20.875 24.9127 21.1463 24.0764 21.69L23.9514 19.995C24.8874 19.5314 25.9195 19.295 26.9639 19.305C29.0989 19.305 30.1664 20.2875 30.1664 22.255C30.1664 22.925 29.9152 23.6575 29.4127 24.4525C28.9102 25.2475 28.4914 25.8225 28.1577 26.1788C27.8227 26.535 27.2152 27.1513 26.3364 28.0313H30.4802V29.6638Z" fill="#E4003E"/>
</g>
<defs>
<clipPath id="clip0_1923_2102">
<rect width="30" height="30" fill="white" transform="translate(0.722656 0.5)"/>
</clipPath>
</defs>
</svg>
