<svg width="97" height="30" viewBox="0 0 98 31" fill="none" xmlns="http://www.w3.org/2000/svg">
<path d="M4.56596 2.82949C4.56596 3.88755 3.70823 4.74528 2.65017 4.74528C1.5921 4.74528 0.734375 3.88755 0.734375 2.82949C0.734375 1.77143 1.5921 0.913696 2.65017 0.913696C3.70823 0.913696 4.56596 1.77143 4.56596 2.82949Z" fill="#E4003E"/>
<path d="M84.6724 3.17226C84.6724 4.23032 83.8147 5.08805 82.7566 5.08805C81.6985 5.08805 80.8408 4.23032 80.8408 3.17226C80.8408 2.1142 81.6985 1.25647 82.7566 1.25647C83.8147 1.25647 84.6724 2.1142 84.6724 3.17226Z" fill="#E4003E"/>
<path d="M13.0064 2.99184C13.0064 4.0499 12.1487 4.90763 11.0906 4.90763C10.0325 4.90763 9.1748 4.0499 9.1748 2.99184C9.1748 1.93378 10.0325 1.07605 11.0906 1.07605C12.1487 1.07605 13.0064 1.93378 13.0064 2.99184Z" fill="#E4003E"/>
<path d="M4.564 7.04787C4.564 8.10593 3.70627 8.96366 2.64821 8.96366C1.59015 8.96366 0.732422 8.10593 0.732422 7.04787C0.732422 5.98981 1.59015 5.13208 2.64821 5.13208C3.70627 5.13208 4.564 5.98981 4.564 7.04787Z" fill="#E4003E"/>
<path d="M4.564 11.2779C4.564 12.3359 3.70627 13.1936 2.64821 13.1936C1.59015 13.1936 0.732422 12.3359 0.732422 11.2779C0.732422 10.2198 1.59015 9.36206 2.64821 9.36206C3.70627 9.36206 4.564 10.2198 4.564 11.2779Z" fill="#E4003E"/>
<path d="M4.56596 15.505C4.56596 16.5631 3.70823 17.4208 2.65017 17.4208C1.5921 17.4208 0.734375 16.5631 0.734375 15.505C0.734375 14.447 1.5921 13.5892 2.65017 13.5892C3.70823 13.5892 4.56596 14.447 4.56596 15.505Z" fill="#E4003E"/>
<path d="M8.22807 17.6029C8.22807 18.661 7.37034 19.5187 6.31228 19.5187C5.25421 19.5187 4.39648 18.661 4.39648 17.6029C4.39648 16.5449 5.25421 15.6871 6.31228 15.6871C7.37034 15.6871 8.22807 16.5449 8.22807 17.6029Z" fill="#E4003E"/>
<path d="M4.56107 19.723C4.56107 20.7811 3.70335 21.6388 2.64528 21.6388C1.58722 21.6388 0.729492 20.7811 0.729492 19.723C0.729492 18.665 1.58722 17.8073 2.64528 17.8073C3.70335 17.8073 4.56107 18.665 4.56107 19.723Z" fill="#E4003E"/>
<path d="M12.4263 17.5308C12.4263 18.5888 11.5686 19.4466 10.5105 19.4466C9.45246 19.4466 8.59473 18.5888 8.59473 17.5308C8.59473 16.4727 9.45246 15.615 10.5105 15.615C11.5686 15.615 12.4263 16.4727 12.4263 17.5308Z" fill="#E4003E"/>
<path d="M16.9829 4.40078C16.9829 5.45884 16.1252 6.31657 15.0672 6.31657C14.0091 6.31657 13.1514 5.45884 13.1514 4.40078C13.1514 3.34271 14.0091 2.48499 15.0672 2.48499C16.1252 2.48499 16.9829 3.34271 16.9829 4.40078Z" fill="#E4003E"/>
<path d="M19.1167 8.05751C19.1167 9.11558 18.259 9.97331 17.2009 9.97331C16.1429 9.97331 15.2852 9.11558 15.2852 8.05751C15.2852 6.99945 16.1429 6.14172 17.2009 6.14172C18.259 6.14172 19.1167 6.99945 19.1167 8.05751Z" fill="#E4003E"/>
<path d="M16.2632 15.7167C16.2632 16.7748 15.4055 17.6325 14.3474 17.6325C13.2894 17.6325 12.4316 16.7748 12.4316 15.7167C12.4316 14.6586 13.2894 13.8009 14.3474 13.8009C15.4055 13.8009 16.2632 14.6586 16.2632 15.7167Z" fill="#E4003E"/>
<path d="M18.6978 12.2597C18.6978 13.3177 17.8401 14.1755 16.782 14.1755C15.7239 14.1755 14.8662 13.3177 14.8662 12.2597C14.8662 11.2016 15.7239 10.3439 16.782 10.3439C17.8401 10.3439 18.6978 11.2016 18.6978 12.2597Z" fill="#E4003E"/>
<path d="M4.564 23.9329C4.564 24.9909 3.70627 25.8487 2.64821 25.8487C1.59015 25.8487 0.732422 24.9909 0.732422 23.9329C0.732422 22.8748 1.59015 22.0171 2.64821 22.0171C3.70627 22.0171 4.564 22.8748 4.564 23.9329Z" fill="#E4003E"/>
<path d="M4.56596 28.1532C4.56596 29.2113 3.70823 30.069 2.65017 30.069C1.5921 30.069 0.734375 29.2113 0.734375 28.1532C0.734375 27.0952 1.5921 26.2374 2.65017 26.2374C3.70823 26.2374 4.56596 27.0952 4.56596 28.1532Z" fill="#E4003E"/>
<path d="M29.1861 5.23183C29.1861 6.28989 28.3283 7.14762 27.2703 7.14762C26.2122 7.14762 25.3545 6.28989 25.3545 5.23183C25.3545 4.17377 26.2122 3.31604 27.2703 3.31604C28.3283 3.31604 29.1861 4.17377 29.1861 5.23183Z" fill="#E4003E"/>
<path d="M46.8345 24.3966C46.8345 25.4547 45.9768 26.3124 44.9187 26.3124C43.8607 26.3124 43.0029 25.4547 43.0029 24.3966C43.0029 23.3386 43.8607 22.4808 44.9187 22.4808C45.9768 22.4808 46.8345 23.3386 46.8345 24.3966Z" fill="#E4003E"/>
<path d="M26.2574 8.38124C26.2574 9.43931 25.3996 10.297 24.3416 10.297C23.2835 10.297 22.4258 9.43931 22.4258 8.38124C22.4258 7.32318 23.2835 6.46545 24.3416 6.46545C25.3996 6.46545 26.2574 7.32318 26.2574 8.38124Z" fill="#E4003E"/>
<path d="M24.521 12.3379C24.521 13.396 23.6633 14.2537 22.6052 14.2537C21.5472 14.2537 20.6895 13.396 20.6895 12.3379C20.6895 11.2798 21.5472 10.4221 22.6052 10.4221C23.6633 10.4221 24.521 11.2798 24.521 12.3379Z" fill="#E4003E"/>
<path d="M24.1548 16.6083C24.1548 17.6664 23.2971 18.5241 22.239 18.5241C21.181 18.5241 20.3232 17.6664 20.3232 16.6083C20.3232 15.5502 21.181 14.6925 22.239 14.6925C23.2971 14.6925 24.1548 15.5502 24.1548 16.6083Z" fill="#E4003E"/>
<path d="M25.229 20.8081C25.229 21.8662 24.3713 22.7239 23.3133 22.7239C22.2552 22.7239 21.3975 21.8662 21.3975 20.8081C21.3975 19.7501 22.2552 18.8923 23.3133 18.8923C24.3713 18.8923 25.229 19.7501 25.229 20.8081Z" fill="#E4003E"/>
<path d="M27.5728 24.3955C27.5728 25.4536 26.7151 26.3113 25.657 26.3113C24.5989 26.3113 23.7412 25.4536 23.7412 24.3955C23.7412 23.3375 24.5989 22.4797 25.657 22.4797C26.7151 22.4797 27.5728 23.3375 27.5728 24.3955Z" fill="#E4003E"/>
<path d="M30.9703 27.0565C30.9703 28.1146 30.1125 28.9723 29.0545 28.9723C27.9964 28.9723 27.1387 28.1146 27.1387 27.0565C27.1387 25.9985 27.9964 25.1407 29.0545 25.1407C30.1125 25.1407 30.9703 25.9985 30.9703 27.0565Z" fill="#E4003E"/>
<path d="M32.9712 3.18264C32.9712 4.2407 32.1135 5.09843 31.0554 5.09843C29.9974 5.09843 29.1396 4.2407 29.1396 3.18264C29.1396 2.12457 29.9974 1.26685 31.0554 1.26685C32.1135 1.26685 32.9712 2.12457 32.9712 3.18264Z" fill="#E4003E"/>
<path d="M37.2183 2.45058C37.2183 3.50864 36.3606 4.36637 35.3025 4.36637C34.2444 4.36637 33.3867 3.50864 33.3867 2.45058C33.3867 1.39252 34.2444 0.53479 35.3025 0.53479C36.3606 0.53479 37.2183 1.39252 37.2183 2.45058Z" fill="#E4003E"/>
<path d="M41.4693 3.15725C41.4693 4.21531 40.6115 5.07304 39.5535 5.07304C38.4954 5.07304 37.6377 4.21531 37.6377 3.15725C37.6377 2.09918 38.4954 1.24146 39.5535 1.24146C40.6115 1.24146 41.4693 2.09918 41.4693 3.15725Z" fill="#E4003E"/>
<path d="M35.0669 28.4519C35.0669 29.51 34.2092 30.3677 33.1511 30.3677C32.0931 30.3677 31.2354 29.51 31.2354 28.4519C31.2354 27.3939 32.0931 26.5361 33.1511 26.5361C34.2092 26.5361 35.0669 27.3939 35.0669 28.4519Z" fill="#E4003E"/>
<path d="M45.2496 5.20754C45.2496 6.2656 44.3918 7.12333 43.3338 7.12333C42.2757 7.12333 41.418 6.2656 41.418 5.20754C41.418 4.14948 42.2757 3.29175 43.3338 3.29175C44.3918 3.29175 45.2496 4.14948 45.2496 5.20754Z" fill="#E4003E"/>
<path d="M39.3677 28.4469C39.3677 29.505 38.51 30.3627 37.4519 30.3627C36.3939 30.3627 35.5361 29.505 35.5361 28.4469C35.5361 27.3889 36.3939 26.5311 37.4519 26.5311C38.51 26.5311 39.3677 27.3889 39.3677 28.4469Z" fill="#E4003E"/>
<path d="M48.1753 8.38515C48.1753 9.44321 47.3176 10.3009 46.2595 10.3009C45.2015 10.3009 44.3438 9.44321 44.3438 8.38515C44.3438 7.32709 45.2015 6.46936 46.2595 6.46936C47.3176 6.46936 48.1753 7.32709 48.1753 8.38515Z" fill="#E4003E"/>
<path d="M49.8892 12.3399C49.8892 13.3979 49.0315 14.2557 47.9734 14.2557C46.9153 14.2557 46.0576 13.3979 46.0576 12.3399C46.0576 11.2818 46.9153 10.4241 47.9734 10.4241C49.0315 10.4241 49.8892 11.2818 49.8892 12.3399Z" fill="#E4003E"/>
<path d="M50.2535 16.6063C50.2535 17.6644 49.3957 18.5221 48.3377 18.5221C47.2796 18.5221 46.4219 17.6644 46.4219 16.6063C46.4219 15.5483 47.2796 14.6906 48.3377 14.6906C49.3957 14.6906 50.2535 15.5483 50.2535 16.6063Z" fill="#E4003E"/>
<path d="M56.4839 15.5043C56.4839 16.5624 55.6262 17.4201 54.5681 17.4201C53.5101 17.4201 52.6523 16.5624 52.6523 15.5043C52.6523 14.4462 53.5101 13.5885 54.5681 13.5885C55.6262 13.5885 56.4839 14.4462 56.4839 15.5043Z" fill="#E4003E"/>
<path d="M43.4439 27.0292C43.4439 28.0873 42.5862 28.945 41.5281 28.945C40.47 28.945 39.6123 28.0873 39.6123 27.0292C39.6123 25.9711 40.47 25.1134 41.5281 25.1134C42.5862 25.1134 43.4439 25.9711 43.4439 27.0292Z" fill="#E4003E"/>
<path d="M49.2017 20.8047C49.2017 21.8628 48.344 22.7205 47.2859 22.7205C46.2278 22.7205 45.3701 21.8628 45.3701 20.8047C45.3701 19.7466 46.2278 18.8889 47.2859 18.8889C48.344 18.8889 49.2017 19.7466 49.2017 20.8047Z" fill="#E4003E"/>
<path d="M8.76713 2.82998C8.76713 3.88804 7.9094 4.74577 6.85134 4.74577C5.79328 4.74577 4.93555 3.88804 4.93555 2.82998C4.93555 1.77191 5.79328 0.914185 6.85134 0.914185C7.9094 0.914185 8.76713 1.77191 8.76713 2.82998Z" fill="#E4003E"/>
<path d="M56.4878 11.2829C56.4878 12.3409 55.6301 13.1986 54.572 13.1986C53.514 13.1986 52.6562 12.3409 52.6562 11.2829C52.6562 10.2248 53.514 9.36707 54.572 9.36707C55.6301 9.36707 56.4878 10.2248 56.4878 11.2829Z" fill="#E4003E"/>
<path d="M56.4839 2.83107C56.4839 3.88914 55.6262 4.74686 54.5681 4.74686C53.5101 4.74686 52.6523 3.88914 52.6523 2.83107C52.6523 1.77301 53.5101 0.915283 54.5681 0.915283C55.6262 0.915283 56.4839 1.77301 56.4839 2.83107Z" fill="#E4003E"/>
<path d="M56.4839 7.04787C56.4839 8.10593 55.6262 8.96366 54.5681 8.96366C53.5101 8.96366 52.6523 8.10593 52.6523 7.04787C52.6523 5.98981 53.5101 5.13208 54.5681 5.13208C55.6262 5.13208 56.4839 5.98981 56.4839 7.04787Z" fill="#E4003E"/>
<path d="M60.1402 4.94619C60.1402 6.00425 59.2824 6.86198 58.2244 6.86198C57.1663 6.86198 56.3086 6.00425 56.3086 4.94619C56.3086 3.88812 57.1663 3.0304 58.2244 3.0304C59.2824 3.0304 60.1402 3.88812 60.1402 4.94619Z" fill="#E4003E"/>
<path d="M62.9234 8.10219C62.9234 9.16025 62.0656 10.018 61.0076 10.018C59.9495 10.018 59.0918 9.16025 59.0918 8.10219C59.0918 7.04413 59.9495 6.1864 61.0076 6.1864C62.0656 6.1864 62.9234 7.04413 62.9234 8.10219Z" fill="#E4003E"/>
<path d="M65.7203 11.2763C65.7203 12.3343 64.8625 13.1921 63.8045 13.1921C62.7464 13.1921 61.8887 12.3343 61.8887 11.2763C61.8887 10.2182 62.7464 9.36047 63.8045 9.36047C64.8625 9.36047 65.7203 10.2182 65.7203 11.2763Z" fill="#E4003E"/>
<path d="M56.4878 19.7257C56.4878 20.7838 55.6301 21.6415 54.572 21.6415C53.514 21.6415 52.6562 20.7838 52.6562 19.7257C52.6562 18.6677 53.514 17.8099 54.572 17.8099C55.6301 17.8099 56.4878 18.6677 56.4878 19.7257Z" fill="#E4003E"/>
<path d="M68.5191 14.4473C68.5191 15.5053 67.6614 16.3631 66.6033 16.3631C65.5452 16.3631 64.6875 15.5053 64.6875 14.4473C64.6875 13.3892 65.5452 12.5315 66.6033 12.5315C67.6614 12.5315 68.5191 13.3892 68.5191 14.4473Z" fill="#E4003E"/>
<path d="M71.315 17.6033C71.315 18.6614 70.4573 19.5191 69.3992 19.5191C68.3411 19.5191 67.4834 18.6614 67.4834 17.6033C67.4834 16.5452 68.3411 15.6875 69.3992 15.6875C70.4573 15.6875 71.315 16.5452 71.315 17.6033Z" fill="#E4003E"/>
<path d="M56.4829 23.9372C56.4829 24.9952 55.6252 25.8529 54.5672 25.8529C53.5091 25.8529 52.6514 24.9952 52.6514 23.9372C52.6514 22.8791 53.5091 22.0214 54.5672 22.0214C55.6252 22.0214 56.4829 22.8791 56.4829 23.9372Z" fill="#E4003E"/>
<path d="M74.98 19.7277C74.98 20.7857 74.1223 21.6435 73.0642 21.6435C72.0062 21.6435 71.1484 20.7857 71.1484 19.7277C71.1484 18.6696 72.0062 17.8119 73.0642 17.8119C74.1223 17.8119 74.98 18.6696 74.98 19.7277Z" fill="#E4003E"/>
<path d="M74.9781 2.83229C74.9781 3.89036 74.1203 4.74809 73.0623 4.74809C72.0042 4.74809 71.1465 3.89036 71.1465 2.83229C71.1465 1.77423 72.0042 0.916504 73.0623 0.916504C74.1203 0.916504 74.9781 1.77423 74.9781 2.83229Z" fill="#E4003E"/>
<path d="M74.98 7.04445C74.98 8.10251 74.1223 8.96024 73.0642 8.96024C72.0062 8.96024 71.1484 8.10251 71.1484 7.04445C71.1484 5.98639 72.0062 5.12866 73.0642 5.12866C74.1223 5.12866 74.98 5.98639 74.98 7.04445Z" fill="#E4003E"/>
<path d="M74.9781 11.2816C74.9781 12.3397 74.1203 13.1974 73.0623 13.1974C72.0042 13.1974 71.1465 12.3397 71.1465 11.2816C71.1465 10.2236 72.0042 9.36584 73.0623 9.36584C74.1203 9.36584 74.9781 10.2236 74.9781 11.2816Z" fill="#E4003E"/>
<path d="M74.98 15.5016C74.98 16.5597 74.1223 17.4174 73.0642 17.4174C72.0062 17.4174 71.1484 16.5597 71.1484 15.5016C71.1484 14.4435 72.0062 13.5858 73.0642 13.5858C74.1223 13.5858 74.98 14.4435 74.98 15.5016Z" fill="#E4003E"/>
<path d="M56.4839 28.1513C56.4839 29.2093 55.6262 30.0671 54.5681 30.0671C53.5101 30.0671 52.6523 29.2093 52.6523 28.1513C52.6523 27.0932 53.5101 26.2355 54.5681 26.2355C55.6262 26.2355 56.4839 27.0932 56.4839 28.1513Z" fill="#E4003E"/>
<path d="M74.9751 23.9379C74.9751 24.9959 74.1174 25.8537 73.0593 25.8537C72.0013 25.8537 71.1436 24.9959 71.1436 23.9379C71.1436 22.8798 72.0013 22.0221 73.0593 22.0221C74.1174 22.0221 74.9751 22.8798 74.9751 23.9379Z" fill="#E4003E"/>
<path d="M74.9751 28.1502C74.9751 29.2082 74.1174 30.066 73.0593 30.066C72.0013 30.066 71.1436 29.2082 71.1436 28.1502C71.1436 27.0921 72.0013 26.2344 73.0593 26.2344C74.1174 26.2344 74.9751 27.0921 74.9751 28.1502Z" fill="#E4003E"/>
<path d="M81.7671 6.25222C81.7671 7.31028 80.9094 8.16801 79.8513 8.16801C78.7933 8.16801 77.9355 7.31028 77.9355 6.25222C77.9355 5.19415 78.7933 4.33643 79.8513 4.33643C80.9094 4.33643 81.7671 5.19415 81.7671 6.25222Z" fill="#E4003E"/>
<path d="M81.4283 10.4756C81.4283 11.5337 80.5705 12.3914 79.5125 12.3914C78.4544 12.3914 77.5967 11.5337 77.5967 10.4756C77.5967 9.41754 78.4544 8.55981 79.5125 8.55981C80.5705 8.55981 81.4283 9.41754 81.4283 10.4756Z" fill="#E4003E"/>
<path d="M84.2857 13.583C84.2857 14.6411 83.428 15.4988 82.3699 15.4988C81.3118 15.4988 80.4541 14.6411 80.4541 13.583C80.4541 12.525 81.3118 11.6672 82.3699 11.6672C83.428 11.6672 84.2857 12.525 84.2857 13.583Z" fill="#E4003E"/>
<path d="M88.8277 2.41591C88.8277 3.47397 87.9699 4.3317 86.9119 4.3317C85.8538 4.3317 84.9961 3.47397 84.9961 2.41591C84.9961 1.35785 85.8538 0.500122 86.9119 0.500122C87.9699 0.500122 88.8277 1.35785 88.8277 2.41591Z" fill="#E4003E"/>
<path d="M92.9761 3.12905C92.9761 4.18711 92.1184 5.04484 91.0603 5.04484C90.0023 5.04484 89.1445 4.18711 89.1445 3.12905C89.1445 2.07099 90.0023 1.21326 91.0603 1.21326C92.1184 1.21326 92.9761 2.07099 92.9761 3.12905Z" fill="#E4003E"/>
<path d="M88.2837 14.9153C88.2837 15.9734 87.426 16.8311 86.3679 16.8311C85.3099 16.8311 84.4521 15.9734 84.4521 14.9153C84.4521 13.8572 85.3099 12.9995 86.3679 12.9995C87.426 12.9995 88.2837 13.8572 88.2837 14.9153Z" fill="#E4003E"/>
<path d="M92.3882 15.8894C92.3882 16.9475 91.5305 17.8052 90.4724 17.8052C89.4144 17.8052 88.5566 16.9475 88.5566 15.8894C88.5566 14.8314 89.4144 13.9736 90.4724 13.9736C91.5305 13.9736 92.3882 14.8314 92.3882 15.8894Z" fill="#E4003E"/>
<path d="M96.8384 4.83522C96.8384 5.89329 95.9807 6.75102 94.9226 6.75102C93.8646 6.75102 93.0068 5.89329 93.0068 4.83522C93.0068 3.77716 93.8646 2.91943 94.9226 2.91943C95.9807 2.91943 96.8384 3.77716 96.8384 4.83522Z" fill="#E4003E"/>
<path d="M96.1929 17.7678C96.1929 18.8259 95.3352 19.6836 94.2771 19.6836C93.2191 19.6836 92.3613 18.8259 92.3613 17.7678C92.3613 16.7098 93.2191 15.8521 94.2771 15.8521C95.3352 15.8521 96.1929 16.7098 96.1929 17.7678Z" fill="#E4003E"/>
<path d="M81.479 25.1903C81.479 26.2484 80.6213 27.1061 79.5633 27.1061C78.5052 27.1061 77.6475 26.2484 77.6475 25.1903C77.6475 24.1323 78.5052 23.2745 79.5633 23.2745C80.6213 23.2745 81.479 24.1323 81.479 25.1903Z" fill="#E4003E"/>
<path d="M97.9283 21.6107C97.9283 22.6688 97.0705 23.5265 96.0125 23.5265C94.9544 23.5265 94.0967 22.6688 94.0967 21.6107C94.0967 20.5527 94.9544 19.6949 96.0125 19.6949C97.0705 19.6949 97.9283 20.5527 97.9283 21.6107Z" fill="#E4003E"/>
<path d="M85.0855 27.3742C85.0855 28.4322 84.2278 29.29 83.1697 29.29C82.1116 29.29 81.2539 28.4322 81.2539 27.3742C81.2539 26.3161 82.1116 25.4584 83.1697 25.4584C84.2278 25.4584 85.0855 26.3161 85.0855 27.3742Z" fill="#E4003E"/>
<path d="M89.1441 28.5842C89.1441 29.6423 88.2864 30.5 87.2283 30.5C86.1702 30.5 85.3125 29.6423 85.3125 28.5842C85.3125 27.5262 86.1702 26.6685 87.2283 26.6685C88.2864 26.6685 89.1441 27.5262 89.1441 28.5842Z" fill="#E4003E"/>
<path d="M93.3472 28.1532C93.3472 29.2113 92.4895 30.069 91.4314 30.069C90.3734 30.069 89.5156 29.2113 89.5156 28.1532C89.5156 27.0952 90.3734 26.2374 91.4314 26.2374C92.4895 26.2374 93.3472 27.0952 93.3472 28.1532Z" fill="#E4003E"/>
<path d="M96.7564 25.6603C96.7564 26.7184 95.8987 27.5761 94.8406 27.5761C93.7825 27.5761 92.9248 26.7184 92.9248 25.6603C92.9248 24.6022 93.7825 23.7445 94.8406 23.7445C95.8987 23.7445 96.7564 24.6022 96.7564 25.6603Z" fill="#E4003E"/>
</svg>
