<svg width="209" height="31" viewBox="0 0 209 31" fill="none" xmlns="http://www.w3.org/2000/svg">
<path d="M52.6692 15.814C52.803 16.6505 52.8311 17.531 52.7522 18.4411C52.6378 19.7596 52.3098 21.0414 51.7893 22.2468H42.7137C43.5656 21.4119 44.124 20.2679 44.2314 19.0294C44.3537 17.6191 43.8548 16.4259 42.7997 15.814H52.6692ZM36.1593 19.8698C36.3163 18.0603 37.4185 16.5325 38.9771 15.814H29.0402C28.2887 17.2539 27.8229 18.8265 27.6814 20.458C27.6284 21.0685 27.6229 21.6663 27.6646 22.2468H36.6587C36.2541 21.6109 36.0794 20.791 36.1593 19.8698ZM77.4117 15.814L75.064 20.668L74.8605 15.814H64.1829L62.1027 20.668L61.6317 15.814H53.6663L54.7687 22.2468H67.2433H69.2893H81.7893L85.378 15.814H77.4117ZM93.5447 21.2143H108.987C109.603 19.5336 109.834 18.357 109.914 17.4327C109.962 16.8826 109.96 16.3415 109.911 15.814H101.661C101.736 16.2317 101.729 16.7031 101.634 17.2227H94.3615C94.457 16.7004 94.6265 16.2297 94.8564 15.814H86.5929C85.8571 17.2812 85.4055 18.8838 85.2617 20.542C85.2106 21.1307 85.2008 21.6994 85.2306 22.2468H93.4404C93.4417 21.9168 93.4776 21.5706 93.5447 21.2143ZM170.405 15.814C171.494 16.4378 172.078 17.6658 171.953 19.1135C171.849 20.305 171.275 21.4234 170.42 22.2468H179.726L180.969 15.814H170.405ZM163.845 19.8698C163.998 18.1089 165.161 16.546 166.714 15.814H156.586C155.907 17.2779 155.458 18.9117 155.306 20.668C155.259 21.2131 155.243 21.7396 155.256 22.2468H164.4C163.963 21.5938 163.768 20.7606 163.845 19.8698ZM38.3532 23.471H27.8286C28.4236 26.4583 30.4077 28.8437 33.8165 29.9038C33.8232 29.9059 33.8302 29.9079 33.8369 29.91C35.0722 30.2916 36.4934 30.5 38.1033 30.5C39.7195 30.5 41.2356 30.2916 42.6349 29.91C42.6424 29.9079 42.6498 29.9059 42.6573 29.9038C46.5142 28.8459 49.4778 26.4661 51.1785 23.471H40.5479H38.3532ZM166.111 23.471H155.351C155.764 26.6558 157.452 28.9173 159.932 29.9038C159.937 29.9058 159.942 29.9079 159.948 29.91C160.857 30.2692 161.872 30.458 162.969 30.458C164.133 30.458 165.212 30.2495 166.18 29.91C166.186 29.9079 166.192 29.9059 166.198 29.9038C168.176 29.2057 169.684 27.9574 170.473 26.8025L169.862 29.9038L169.861 29.91L169.861 29.9118H178.245L178.245 29.91L178.247 29.9038L179.49 23.471H168.25H166.111ZM70.0266 29.9038L70.0271 29.91L70.0273 29.9118H77.5131L77.5142 29.91L77.5176 29.9038L81.1063 23.471H69.4072L70.0266 29.9038ZM56.0808 29.9038L56.0818 29.91L56.0821 29.9118H63.5681L63.5689 29.91L63.5719 29.9038L66.6562 23.471H54.9784L56.0808 29.9038ZM96.5887 25.0798C94.9141 25.0798 94.0097 24.4392 93.641 23.471H85.3695C85.9244 26.6046 87.9525 28.8834 91.2957 29.9038C91.3026 29.9059 91.3094 29.9079 91.3162 29.91C92.5879 30.2955 94.0486 30.5 95.6909 30.5C97.3501 30.5 98.8961 30.2916 100.305 29.91C100.313 29.9079 100.32 29.9059 100.328 29.9038C104.218 28.844 107.059 26.4593 108.339 23.471H100.125C99.4098 24.5065 98.1529 25.0798 96.5887 25.0798ZM52.3872 14.5898C51.2809 10.9702 47.9245 8.44116 42.2838 8.44116C36.6302 8.44116 32.2171 10.9632 29.7699 14.5898H52.3872ZM74.5762 9.02937H67.0903L64.7075 14.5898H74.8092L74.5762 9.02937ZM89.1629 9.02937H80.6933L78.0039 14.5898H86.0609L89.1629 9.02937ZM60.9733 9.02937H52.5036L53.4565 14.5898H61.5128L60.9733 9.02937ZM87.2933 14.5898H95.8975C96.6441 14.0075 97.5965 13.6933 98.6458 13.6933C99.7274 13.6933 100.558 14.012 101.081 14.5898H109.701C108.811 11.0771 105.514 8.44116 99.6575 8.44116C93.8932 8.44111 89.64 10.9719 87.2933 14.5898ZM182.281 9.02937H173.896L173.285 12.1387C172.76 10.2898 170.604 8.5252 167.182 8.5252C163.2 8.5252 159.431 10.8721 157.23 14.5898H181.206L182.281 9.02937ZM2.92653 15.814L1.67629 22.2468H18.0315C22.2559 21.6348 25.7556 19.1265 27.7624 15.814H2.92653ZM0.188105 29.9038L0.186869 29.91L0.186523 29.9118H9.08403L9.08438 29.91L9.08557 29.9038L10.3387 23.471H1.43834L0.188105 29.9038ZM21.4097 14.5898H28.4182C29.0354 13.2747 29.4282 11.8641 29.5538 10.416C29.621 9.64055 29.6093 8.88416 29.5216 8.15701H22.6622H19.4567H4.41477L3.16448 14.5898H18.4756H21.4097ZM20.2758 0.5H5.90296L4.65267 6.93281H29.2947C28.3496 3.19771 25.2128 0.5 20.2758 0.5ZM137.68 19.8705C137.834 18.1089 138.986 16.5455 140.558 15.814H130.03L128.769 22.2468H138.24C137.801 21.5999 137.601 20.7714 137.68 19.8705ZM145.862 19.0722C145.755 20.2868 145.174 21.4177 144.308 22.2468H153.524C153.992 21.0314 154.305 19.7138 154.428 18.316C154.505 17.4327 154.497 16.5978 154.414 15.814H144.316C145.416 16.435 145.986 17.6538 145.862 19.0722ZM128.529 23.471L127.266 29.9118H135.723L136.34 26.8028C136.67 27.985 137.713 29.2228 139.429 29.9118C140.274 30.2512 141.281 30.458 142.449 30.458C143.577 30.458 144.694 30.2682 145.766 29.9118C148.765 28.9153 151.415 26.611 152.985 23.471H128.529ZM146.655 8.52673C143.16 8.52673 140.363 10.4174 139.176 12.1399L139.968 8.15701H131.531L130.27 14.5898H154.213C153.358 10.8064 150.518 8.52673 146.655 8.52673ZM141.489 0.502075H133.032L131.771 6.93345H140.211L141.489 0.502075ZM130.019 8.90333C129.347 8.69319 128.707 8.6092 128.016 8.6092C124.737 8.6092 122.123 10.3739 120.699 12.3486L121.334 9.02927H112.877L111.793 14.5902H128.901L130.019 8.90333ZM110.3 22.2479H118.75C119.81 17.3783 122.41 16.3396 125.91 15.8145C125.154 15.8145 111.554 15.8145 111.554 15.8145L110.3 22.2479ZM108.806 29.9118H117.264L118.507 23.4722H110.062L108.806 29.9118ZM199.165 8.6092C195.885 8.6092 193.272 10.3739 191.847 12.3486L192.483 9.02927H184.026L182.942 14.5902H200.049L201.167 8.90333C200.495 8.69319 199.855 8.6092 199.165 8.6092ZM181.449 22.2479H189.898C190.958 17.3783 193.558 16.3396 197.059 15.8145C196.303 15.8145 182.703 15.8145 182.703 15.8145L181.449 22.2479ZM179.955 29.9118H188.412L189.656 23.4722H181.21L179.955 29.9118ZM202.188 4.01424C202.188 2.09333 203.887 0.5 205.761 0.5C207.518 0.5 208.772 1.8119 208.772 3.40523C208.772 5.31497 207.062 6.93138 205.164 6.93138C203.441 6.93138 202.188 5.61948 202.188 4.01424ZM205.257 6.1109C206.651 6.1109 207.928 4.91664 207.928 3.4871C207.928 2.28019 206.979 1.31974 205.691 1.31974C204.308 1.31974 203.019 2.50283 203.019 3.92041C203.019 5.11541 203.969 6.1109 205.257 6.1109ZM203.91 5.32614H204.906L205.117 4.25995H205.374L205.761 5.32614H206.792L206.347 4.09616C206.78 3.92046 207.062 3.59283 207.143 3.14761C207.284 2.45594 206.804 2.04644 205.901 2.04644H204.554L203.91 5.32614ZM205.269 3.47519L205.398 2.81924H205.749C206.019 2.81924 206.148 2.94805 206.101 3.14756C206.066 3.35829 205.878 3.47514 205.62 3.47514L205.269 3.47519Z" fill="#E4003E"/>
</svg>
