<svg width="107" height="51" viewBox="0 0 107 51" fill="none" xmlns="http://www.w3.org/2000/svg">
<path d="M88.4194 41.4703C88.4194 37.5627 88.8015 33.9386 91.5997 33.9386C94.3979 33.9386 92.7215 34.1111 93.2762 34.4316V33.6674C92.6352 33.2729 91.9449 33.0264 91.4395 33.0264C90.0835 33.0264 89.0234 33.803 88.2961 35.3562C87.5934 36.8477 87.2236 39.0049 87.2236 41.5936C87.2236 44.1823 87.6304 46.4998 88.3947 47.9297C89.0973 49.261 90.1081 49.939 91.3778 49.939C92.6475 49.939 92.7584 49.7294 93.4734 49.2363V48.3981C92.8694 48.8172 92.327 49.0145 91.6613 49.0145C88.8015 49.0145 88.407 45.3903 88.407 41.4827L88.4194 41.4703Z" fill="#E4003E"/>
<path d="M74.648 33.2461H72.8359V49.678H73.9207V41.9489H74.9932C77.7667 41.9489 79.3569 40.3341 79.3569 37.5359C79.3569 34.7377 77.5942 33.2461 74.648 33.2461ZM74.9069 41.0367H73.9207V34.1953H74.5001C74.5617 34.1829 74.6233 34.1829 74.685 34.1829C77.0025 34.1829 78.2721 35.3294 78.2721 37.4126C78.2721 39.4959 77.0764 41.0367 74.9069 41.0367Z" fill="#E4003E"/>
<path d="M96.0764 41.4812H99.7498V40.5567H96.0764V34.0974H100.095V33.1729H95.0039V49.6047H100.305V48.6802H96.0764V41.4812Z" fill="#E4003E"/>
<path d="M104.365 40.7812C103.453 39.0924 102.59 37.5023 102.59 36.06C102.59 34.6177 103.428 33.7795 104.895 33.7795C106.362 33.7795 105.561 33.8411 105.881 33.9644V33.1755C105.4 32.9783 105.018 32.9043 104.575 32.9043C102.787 32.9043 101.579 34.2849 101.579 36.3435C101.579 38.4021 102.615 40.0539 103.613 41.9276C104.525 43.6288 105.376 45.2313 105.376 46.6366C105.376 48.0418 104.34 48.9417 103.071 48.9417C101.801 48.9417 102.146 48.8061 101.69 48.5596V49.3855C102.245 49.6813 102.75 49.8169 103.342 49.8169C105.166 49.8169 106.387 48.424 106.387 46.353C106.387 44.2821 105.363 42.6303 104.365 40.7936V40.7812Z" fill="#E4003E"/>
<path d="M82.4351 33.0833L79.0205 49.6261H79.9943L81.1284 43.7707H84.4567L85.5785 49.6261H86.5523L83.1624 33.0833H82.4351ZM81.3503 42.6243L82.7802 35.8198L84.2348 42.6243H81.3503Z" fill="#E4003E"/>
<path d="M49.9759 13.6232C49.5567 13.4506 49.2239 13.7218 48.9404 13.9683C48.6445 14.2149 48.5089 14.597 48.3857 14.9668C48.1022 15.9037 47.9789 16.8775 47.9296 17.8513C47.831 19.6264 47.7693 21.4138 47.6337 23.1889C47.5721 24.1258 46.364 25.1243 45.4272 25.1366C44.7122 25.1366 44.1329 24.5819 43.911 23.5464C43.5782 21.9439 43.4795 20.3291 43.6644 18.7019C43.7507 17.9623 43.8124 17.2103 43.6275 16.4707C43.3933 15.5092 42.8262 15.238 41.9017 15.6201C41.1621 15.9283 41.0265 16.5323 41.0018 17.2596C40.9772 17.9869 41.5072 18.5416 41.5195 19.2443C41.5319 20.3044 41.5442 21.3645 41.7044 22.4123C41.9017 23.6573 42.1236 24.89 42.8632 25.9625C43.4426 26.813 44.2068 27.0226 45.2176 26.7268C46.0805 26.4679 46.6969 25.8392 47.4242 25.3461C47.4858 25.6297 47.4242 25.8639 47.3872 26.1227C47.0913 27.8978 46.7955 29.6606 46.5243 31.448C46.1422 34.049 45.9696 36.6746 45.8463 39.3126C45.6984 42.5793 45.8956 45.8213 46.2161 49.0633C46.2778 49.6796 46.5736 50.2466 47.19 50.4315C47.8433 50.6165 48.4843 50.4315 48.9157 49.8645C49.3595 49.2851 49.1993 48.7058 48.8788 48.1387C48.5952 47.6333 48.2501 47.1649 48.0405 46.5979C47.4242 44.9091 47.1776 43.1586 47.0913 41.3835C46.8818 37.4759 47.19 33.6052 47.8433 29.7469C48.472 26.0241 49.6184 22.4246 50.321 18.7265C50.5799 17.3583 50.7525 15.9776 50.5676 14.5724C50.5182 14.1532 50.3457 13.8204 49.9635 13.6602L49.9759 13.6232Z" fill="#E4003E"/>
<path d="M37.8252 15.2357C36.7281 14.644 35.8529 14.7056 34.5585 15.3343C33.0177 16.1725 32.0808 17.2573 30.8235 18.3051C30.7002 14.5084 30.4783 10.8103 30.5153 7.11218C30.5153 6.45885 30.6016 5.85483 30.9098 5.26313C31.3659 4.37559 31.5261 3.42641 31.4645 2.42793C31.4398 1.97183 31.3042 1.56504 31.07 1.19523C30.7372 0.66517 30.1701 0.406304 29.6154 0.529574C29.147 0.640516 29.184 1.24454 29.147 1.66366C28.9991 3.22918 28.9498 4.80704 28.9621 6.38489C28.9621 6.97658 28.9991 7.55595 28.8758 8.15997C28.5923 9.38035 28.4074 10.6254 28.1732 11.8581C27.5198 15.174 27.3349 18.3051 26.509 21.5841C26.1762 22.903 25.6585 23.5071 24.9435 23.9632C24.3765 24.3206 23.9204 24.296 23.6122 23.729C23.378 23.2975 23.2917 22.8168 23.2301 22.336C23.0082 20.6842 23.1068 19.0324 23.2301 17.3806C23.2917 16.4684 22.663 16.1109 21.8494 16.5793C21.6522 16.6902 21.4796 16.8505 21.3194 17.0231C20.2099 18.2558 19.5073 19.7227 18.9033 21.2389C18.5828 21.8183 17.6952 23.655 17.498 23.8399C17.498 23.8399 17.498 23.8399 17.498 23.8522C17.498 23.8522 17.498 23.8522 17.4857 23.8522C17.3254 24.0001 17.1405 24.0741 16.968 24.0495C16.5119 23.9755 16.2776 23.3345 16.3639 22.5209C16.4009 22.1388 16.5119 21.091 16.5242 21.0293C16.6474 19.0447 17.1775 15.9383 17.5966 14.533C17.7692 13.9537 17.2391 13.2633 16.7091 13.1771C16.0681 13.0784 15.7846 13.4729 15.612 13.9167C15.0203 15.3836 15.0449 18.4407 14.9463 19.9692C14.7491 21.8306 14.7244 23.4824 15.1559 25.2205C14.4039 25.1959 13.7629 24.8384 13.1712 24.4316C10.1265 22.3607 7.82133 19.5994 5.87367 16.5177C5.6148 16.1109 5.70109 16.0123 6.16952 15.889C10.1511 14.8289 12.9124 11.4266 13.0233 7.50665C13.085 5.27546 11.8769 3.5127 9.86761 2.89635C6.76121 1.94718 4.29581 3.14289 3.11242 6.21231C2.27419 8.39419 2.01532 10.6993 1.83042 13.0168C1.80576 13.3373 1.83042 13.6208 1.49759 13.892C0.548413 14.6563 0.486777 15.6671 1.30036 16.5916C1.58388 16.9121 1.67017 17.2203 1.67017 17.6271C1.65784 19.6117 1.57155 21.6087 1.83042 23.5934C1.97834 24.7151 2.11394 25.8492 2.7796 26.8107C2.98915 27.1189 3.29733 27.4147 3.67946 27.2791C4.11091 27.1189 3.99997 26.6998 3.93833 26.3423C3.56852 23.8522 3.50689 21.3498 3.56852 18.8351C3.56852 18.6009 3.4206 18.2434 3.71645 18.1448C4.0616 18.0216 4.24651 18.3421 4.44374 18.5886C5.76272 20.2527 7.05706 21.9292 8.5856 23.4085C9.92925 24.7028 11.3468 25.9232 13.2329 26.3053C13.9232 26.4409 14.6875 26.7244 15.3161 26.0957C15.612 26.1327 15.6613 26.3423 15.9202 26.5765C16.2283 26.9956 16.6474 27.2052 17.1775 27.1435C17.7076 27.1435 18.0157 26.786 18.2746 26.4162C18.9773 25.4547 19.5689 24.4193 19.9634 23.2852C20.4072 22.2867 20.8386 21.2882 21.492 20.2158C21.6399 22.1141 21.6645 23.8522 22.3795 25.4547C23.0205 26.8847 24.4134 26.6628 25.375 26.0464C26.9405 25.0233 27.5692 20.7828 27.9636 18.0462C28.6046 13.5838 29.1347 10.5144 29.221 10.3542C29.3935 10.8473 29.1593 16.7765 29.11 18.0092C29.0607 19.3652 29.147 20.7212 28.5923 22.0402C28.3334 22.6565 28.3088 23.3961 28.5307 24.0864C28.8388 25.0356 29.0977 25.9971 29.5908 26.8723C29.9483 27.501 30.1578 28.4502 31.2549 27.8092C31.3166 27.7722 31.4398 27.8708 31.5384 27.8955C31.9945 28.0064 32.4383 28.0064 32.8944 27.8215C33.708 27.501 34.4846 27.1312 35.2242 26.6751C35.9268 26.3299 36.6295 25.8862 37.2212 25.3808C37.8992 24.7891 38.8114 23.618 39.1319 23.0633C39.9454 21.4238 40.081 20.0309 39.588 18.1448C39.1812 16.6286 39.0456 15.9876 37.8499 15.285L37.8252 15.2357ZM3.70412 12.4005C3.76575 11.1061 3.82739 9.41733 4.45607 7.82715C5.25732 5.80552 6.93379 4.86867 9.06636 5.21383C10.5209 5.44804 11.4331 6.55747 11.4085 8.02438C11.3468 10.8473 9.22661 13.7071 6.5763 14.5947C6.0709 14.7672 5.55317 14.8165 5.06009 14.8042C3.81506 14.7672 3.67947 14.5084 3.70412 12.4005ZM37.3814 21.5471C37.0733 22.6195 36.0871 23.618 34.3983 24.4932C33.5724 24.8877 32.7465 25.2698 31.9206 25.6643C31.5384 25.8492 31.3535 25.8615 31.3042 25.3315C31.1933 23.9262 31.033 22.5209 30.8728 21.1156C30.8111 20.5609 30.9098 20.1048 31.3289 19.661C32.315 18.6133 33.3012 17.5778 34.5709 16.8505C35.2365 16.5423 35.9145 16.3944 36.5555 16.8998C37.1719 17.5655 37.2212 18.4037 37.3938 19.2173C37.5663 19.9939 37.6156 20.3637 37.3814 21.5471Z" fill="#E4003E"/>
<path d="M58.3118 1.10962H57.7324V49.4807H58.3118V1.10962Z" fill="#E4003E"/>
<path d="M66.9454 36.2309C66.9454 34.7763 67.7836 33.9504 69.2505 33.9504C70.7174 33.9504 69.9162 34.012 70.2367 34.1353V33.3464C69.7559 33.1492 69.3738 33.0752 68.93 33.0752C67.1426 33.0752 65.9346 34.4558 65.9346 36.5144C65.9346 38.573 66.97 40.2248 67.9685 42.0985C68.8807 43.7997 69.7313 45.4022 69.7313 46.8075C69.7313 48.2127 68.6958 49.1126 67.4261 49.1126C66.1565 49.1126 66.5016 48.977 66.0455 48.7305V49.5564C66.6002 49.8522 67.1056 49.9878 67.6973 49.9878C69.5217 49.9878 70.7421 48.5949 70.7421 46.5239C70.7421 44.453 69.7066 42.8012 68.7205 40.9645C67.8083 39.2757 66.9454 37.6855 66.9454 36.2432V36.2309Z" fill="#E4003E"/>
<path d="M84.5049 30.6929C86.5635 30.6929 88.6344 28.0796 88.6344 22.2366C88.6344 16.3936 88.24 17.6879 87.5127 16.1594C86.7607 14.5815 85.7499 13.7803 84.5049 13.7803C83.2599 13.7803 82.1258 14.6432 81.3985 16.332C80.7452 17.8359 80.3877 19.9314 80.3877 22.2366C80.3877 27.2906 82.0518 30.6929 84.5172 30.6929H84.5049ZM84.4679 14.7048C85.8239 14.7048 87.4387 16.0115 87.4387 22.2366C87.4387 28.4617 86.4033 29.7684 84.5172 29.7684C82.6312 29.7684 81.5464 25.6758 81.5464 22.2366C81.5464 16.0115 83.1366 14.7048 84.4679 14.7048Z" fill="#E4003E"/>
<path d="M96.5983 30.444H97.757L97.1037 27.5594C96.4627 24.7859 95.7601 23.1464 94.9342 22.5547L94.2562 22.0616L94.9465 21.5809C95.9943 20.8536 96.512 19.7688 96.512 18.3019C96.512 16.835 96.2162 16.1077 95.6738 15.3927C94.9958 14.4805 93.911 14.0244 92.4688 14.0244H91.1621V30.4563H92.2469V22.6286L92.7769 22.5793C92.8509 22.5793 92.9125 22.5793 92.9865 22.5793C94.6876 22.5793 95.267 24.5886 96.0313 27.9046L96.6106 30.4809L96.5983 30.444ZM92.9372 21.6425H92.2346V14.9243H92.8386C94.552 14.9736 95.4272 16.1323 95.4272 18.3758C95.4272 20.6193 93.6891 21.6302 92.9372 21.6302V21.6425Z" fill="#E4003E"/>
<path d="M101.556 14.0162H100.472V30.4481H101.556V14.0162Z" fill="#E4003E"/>
<path d="M105.894 30.4481L102.664 21.8192L105.24 14.0162H104.192L101.579 22.0904L104.821 30.4481H105.894Z" fill="#E4003E"/>
<path d="M74.7267 30.6349H75.417L78.9672 13.8949L78.9918 13.8209H77.8084L75.0225 28.1079L72.2983 13.8702L72.2859 13.8209H71.5217L68.7358 28.1079L66.0115 13.8702L65.9992 13.8209H64.8281L68.3783 30.5856L68.3906 30.6349H69.0809L71.8668 16.6438L74.7267 30.5856V30.6349Z" fill="#E4003E"/>
</svg>
