<svg width="112" height="51" viewBox="0 0 112 51" fill="none" xmlns="http://www.w3.org/2000/svg">
<path d="M92.96 33.0063V49.455H98.2759V48.5307H94.0443V41.3214H97.72V40.3992H94.0443V33.9286H98.0646V33.0063H92.96Z" fill="#E4003E"/>
<path d="M71.6662 33.0063V40.7685H67.1154V33.0063H66.0332V49.455H67.1154V41.6908H71.6662V49.455H72.7506V33.0063H71.6662Z" fill="#E4003E"/>
<path d="M100.66 33.0063V49.455H106.107V48.5307H101.744V33.0063H100.66Z" fill="#E4003E"/>
<path d="M79.3123 33.6901C77.9786 33.6901 76.3891 34.9986 76.3891 41.2286C76.3891 44.6686 76.9048 48.767 79.3652 48.767C81.2506 48.767 82.2884 46.0889 82.2884 41.2286C82.2884 34.9986 80.6715 33.6901 79.3123 33.6901ZM79.3398 49.6914C76.8647 49.6914 75.2012 46.2915 75.2012 41.2286C75.2012 38.9303 75.5647 36.8347 76.22 35.3236C76.9577 33.6268 78.0082 32.7657 79.3398 32.7657C80.5869 32.7657 81.5973 33.5656 82.3497 35.1442C83.0769 36.6743 83.4785 38.8353 83.4785 41.2286C83.4785 47.0744 81.4007 49.6914 79.3398 49.6914Z" fill="#E4003E"/>
<path d="M108.873 49.6914C108.289 49.6914 107.78 49.5605 107.22 49.2566V48.4336C107.685 48.6889 108.154 48.8198 108.609 48.8198C109.885 48.8198 110.923 47.7835 110.923 46.5089C110.923 45.097 110.063 43.4931 109.152 41.7942C108.152 39.9285 107.114 37.9996 107.114 36.2121C107.114 34.1502 108.321 32.7657 110.116 32.7657C110.562 32.7657 110.94 32.8417 111.424 33.0359V33.821C111.101 33.6964 110.796 33.6352 110.433 33.6352C108.964 33.6352 108.118 34.4689 108.118 35.9208C108.118 37.3728 108.983 38.9641 109.896 40.6503C110.894 42.4906 111.925 44.3921 111.925 46.2176C111.925 48.2943 110.697 49.6893 108.871 49.6893" fill="#E4003E"/>
<path d="M84.1582 33.0063V33.9286H86.8807V49.455H87.965V33.9286H90.6896V33.0063H84.1582Z" fill="#E4003E"/>
<path d="M49.7751 13.6241C49.3523 13.4468 49.0205 13.7212 48.7351 13.9639C48.4413 14.215 48.2997 14.5864 48.1855 14.9579C47.8981 15.8991 47.7776 16.8699 47.7226 17.8471C47.6254 19.6283 47.5599 21.4137 47.4331 23.1928C47.3654 24.1277 46.1627 25.1344 45.2179 25.1428C44.4971 25.1491 43.9201 24.592 43.7024 23.5515C43.3642 21.9497 43.2669 20.3289 43.4551 18.6976C43.5396 17.9505 43.6051 17.2034 43.4234 16.4605C43.1866 15.5003 42.6138 15.2217 41.6943 15.6058C40.9545 15.9118 40.815 16.5217 40.7897 17.2414C40.7685 17.9673 41.3012 18.5308 41.3118 19.2336C41.3308 20.2909 41.3329 21.3525 41.4957 22.4035C41.6901 23.6465 41.9142 24.8832 42.6519 25.949C43.2373 26.7953 44.0004 27.0105 45.0108 26.713C45.8795 26.4576 46.4946 25.8266 47.2238 25.3306C47.283 25.6134 47.228 25.854 47.1858 26.1052C46.8877 27.8779 46.5876 29.6507 46.3255 31.4319C45.9429 34.0404 45.7653 36.6657 45.6427 39.2995C45.4927 42.5665 45.6871 45.8144 46.0148 49.0582C46.0761 49.6765 46.372 50.2484 46.9913 50.4278C47.6465 50.6178 48.2849 50.4342 48.7245 49.858C49.1642 49.2819 49.0099 48.6994 48.6865 48.1275C48.399 47.6167 48.0566 47.1461 47.8516 46.5826C47.2365 44.8922 46.9913 43.1447 46.8962 41.3635C46.689 37.4508 46.9934 33.5718 47.6465 29.7161C48.2785 25.9954 49.4305 22.3929 50.1365 18.6891C50.3965 17.3237 50.5635 15.935 50.3859 14.5295C50.3331 14.1032 50.164 13.7803 49.7751 13.6199" fill="#E4003E"/>
<path d="M37.1451 21.5657C36.8407 22.6357 35.8473 23.6444 34.1542 24.5097C33.3278 24.9001 32.4928 25.28 31.6727 25.6831C31.2838 25.8731 31.0999 25.8773 31.0576 25.3497C30.9456 23.942 30.7829 22.5386 30.6222 21.1351C30.5588 20.5738 30.656 20.1285 31.0788 19.6832C32.0722 18.6343 33.0614 17.5938 34.3275 16.8636C35.0018 16.5597 35.6719 16.4057 36.3208 16.9185C36.9401 17.5854 36.9908 18.4254 37.1641 19.2358C37.3417 20.0145 37.3861 20.3817 37.1451 21.5657ZM4.73351 14.8123C3.48854 14.7743 3.34481 14.519 3.37651 12.4064C3.43781 11.1043 3.50545 9.42016 4.13533 7.8289C4.93432 5.80711 6.61683 4.87008 8.76013 5.2183C10.2144 5.45678 11.138 6.56475 11.1042 8.03572C11.0387 10.8574 8.91443 13.7233 6.2575 14.6076C5.75444 14.7743 5.23658 14.8271 4.73563 14.8102M37.5911 15.247C36.492 14.654 35.6148 14.7131 34.3191 15.3462C32.774 16.1883 31.8418 17.2773 30.5757 18.3241C30.4489 14.5211 30.2248 10.8257 30.2735 7.1219C30.2798 6.46556 30.3643 5.85987 30.6729 5.26684C31.1358 4.38468 31.2965 3.42865 31.2288 2.4262C31.1993 1.97246 31.064 1.56726 30.8294 1.19582C30.4912 0.666106 29.9268 0.402302 29.3688 0.533148C28.8932 0.64078 28.9376 1.2528 28.9017 1.66434C28.7558 3.2345 28.6987 4.81099 28.7199 6.3917C28.7262 6.98261 28.7621 7.56931 28.6269 8.16445C28.3479 9.39061 28.1597 10.6358 27.9188 11.8683C27.2699 15.1901 27.0796 18.3219 26.2553 21.6037C25.9256 22.9248 25.3992 23.5263 24.6848 23.98C24.1226 24.3345 23.6639 24.3156 23.3447 23.7415C23.1038 23.311 23.0277 22.8298 22.9621 22.3423C22.7444 20.6898 22.8374 19.0395 22.9558 17.387C23.0192 16.4732 22.3851 16.1229 21.5713 16.5893C21.3747 16.7032 21.1972 16.8636 21.0429 17.0346C19.9268 18.265 19.2314 19.738 18.6185 21.2575C18.3035 21.84 17.4031 23.6698 17.2044 23.8618C17.2023 23.8681 17.1981 23.8724 17.1938 23.8808C17.1875 23.8829 17.1833 23.885 17.179 23.8871C17.0163 24.0328 16.8345 24.1087 16.6569 24.0792C16.1962 24.0053 15.9658 23.3659 16.0524 22.5491C16.0905 22.1714 16.194 21.1161 16.2088 21.0549C16.3335 19.0733 16.8641 15.9562 17.2868 14.5527C17.4602 13.9702 16.9233 13.2822 16.3948 13.1957C15.7544 13.0965 15.4712 13.4933 15.2957 13.9323C14.706 15.399 14.7292 18.4655 14.6236 19.9871C14.4291 21.8527 14.4016 23.5009 14.8392 25.2505C14.0803 25.223 13.442 24.8664 12.8459 24.4612C9.79373 22.3866 7.48768 19.622 5.52827 16.5386C5.27462 16.1334 5.35494 16.0385 5.8263 15.9139C9.81698 14.8566 12.5859 11.4483 12.698 7.52288C12.7635 5.29216 11.5481 3.5194 9.54009 2.90949C6.42237 1.96402 3.94933 3.16063 2.76988 6.22708C1.92651 8.41559 1.66441 10.7223 1.48052 13.0395C1.45515 13.3624 1.48474 13.6389 1.15078 13.909C0.201724 14.6751 0.138313 15.6839 0.952091 16.6041C1.23533 16.9269 1.32199 17.2351 1.31988 17.6424C1.30085 19.6325 1.21842 21.629 1.48263 23.6086C1.6327 24.7271 1.76164 25.8604 2.43591 26.8227C2.6494 27.1245 2.95377 27.4242 3.34058 27.287C3.776 27.133 3.65764 26.7046 3.60479 26.35C3.2349 23.8597 3.16726 21.3504 3.23278 18.839C3.23912 18.6005 3.08059 18.2523 3.37863 18.1447C3.72739 18.0159 3.91762 18.3388 4.1142 18.5836C5.43738 20.2445 6.73731 21.9287 8.26975 23.406C9.61195 24.7018 11.0366 25.9195 12.9347 26.3099C13.6217 26.4513 14.391 26.7278 15.0294 26.0946C15.3274 26.1305 15.3781 26.3437 15.636 26.5737C15.9489 26.9958 16.3589 27.2005 16.8916 27.1414C17.4242 27.152 17.7265 26.7784 17.9949 26.4197C18.7051 25.4552 19.2864 24.4169 19.6838 23.2814C20.1319 22.2874 20.5652 21.2829 21.212 20.215C21.3663 22.1165 21.3853 23.8576 22.1061 25.4594C22.755 26.8966 24.1479 26.6687 25.1033 26.0461C26.678 25.0183 27.3037 20.7743 27.6968 18.0391C28.3394 13.5756 28.8699 10.507 28.9587 10.3361C29.132 10.8257 28.8932 16.7581 28.8446 17.999C28.7939 19.3539 28.8805 20.7131 28.3267 22.03C28.0667 22.6441 28.0371 23.3806 28.2612 24.0792C28.5677 25.0289 28.8319 25.9933 29.3223 26.8671C29.6732 27.496 29.8888 28.4499 30.9879 27.7999C31.0428 27.7661 31.1718 27.859 31.269 27.8822C31.7277 27.9898 32.1716 27.9919 32.6281 27.8125C33.4398 27.496 34.224 27.1266 34.9595 26.6602C35.6676 26.3141 36.3673 25.8646 36.9655 25.3581C37.6461 24.7609 38.5613 23.598 38.8826 23.0366C39.6942 21.3947 39.8274 19.9997 39.3413 18.1151C38.9333 16.6019 38.798 15.9604 37.5996 15.2534" fill="#E4003E"/>
<path d="M58.1195 1.10925H57.5361V49.5204H58.1195V1.10925Z" fill="#E4003E"/>
</svg>
