<svg width="35" height="35" viewBox="0 0 35 35" fill="none" xmlns="http://www.w3.org/2000/svg">
<mask id="mask0_2654_3286" style="mask-type:alpha" maskUnits="userSpaceOnUse" x="0" y="0" width="35" height="35">
<path fill-rule="evenodd" clip-rule="evenodd" d="M17.5 35C27.165 35 35 27.165 35 17.5C35 7.82489 27.1751 0 17.5 0C7.83738 0 0.00382683 7.83119 1.40168e-06 17.4929C0.00383462 7.82107 7.86579 0 17.5 0C27.165 0 35 7.83502 35 17.5C35 27.1751 27.1366 35 17.5 35ZM17.2102 34.9977C7.67887 34.8429 0 27.0682 0 17.5C0 27.0783 7.66911 34.8432 17.2102 34.9977ZM25.402 20.1211C25.3634 20.4681 25.3634 20.5451 25.3634 20.9692C25.3634 21.8557 25.3634 23.2819 25.2863 23.5903C25.2478 23.8987 25.1707 24.1685 25.0551 24.4769C24.2841 26.5198 22.7037 28.1388 20.6993 29.0253C19.6971 29.4493 18.5793 29.6806 17.3844 29.6806C14.9945 29.6806 12.4504 28.4086 10.8315 26.2885C9.79075 24.9394 9.13546 23.2819 9.13546 21.3546C9.13546 20.044 9.44384 19.7742 9.44384 19.7742C9.44384 19.7742 9.86784 19.8899 9.98348 20.0055L9.94493 19.8899C9.90639 19.62 9.86785 19.2731 9.8293 18.8877C9.79075 18.5407 9.79075 18.2324 9.79075 17.9625C9.79075 16.4592 11.2941 14.3007 11.2941 14.3007C11.2941 14.3007 11.4868 15.457 11.7566 16.1509C11.8723 16.4592 11.9879 16.6905 12.1035 16.6905C12.2963 16.6905 12.3348 16.228 12.3733 15.6112C12.3869 15.4688 12.3993 15.3168 12.4121 15.1589C12.4724 14.4191 12.5432 13.5483 12.7974 12.913C13.761 10.446 15.2643 9.86783 15.2643 9.86783C15.2643 9.86783 14.8403 10.7929 15.2643 11.8722C18.2709 8.98127 18.1167 6.55286 18.1167 6.55286C18.1167 6.55286 20.1211 8.36453 19.5815 9.94493C19.3888 10.9471 19.4273 11.7566 19.6586 11.7566C20.7764 11.7952 20.8921 9.52092 20.8921 9.52092C20.8921 9.52092 22.3183 12.4504 21.9714 15.033C23.3976 13.7225 24.4769 13.6454 24.4769 13.6454C24.4769 13.6454 23.783 14.8018 23.783 16.4207C23.783 16.6134 23.783 16.8447 23.8216 17.0374C23.8987 18.0782 24.1685 18.7335 24.3998 18.7335C24.4769 18.7335 24.6311 18.6564 24.8623 18.5022C25.3634 18.1553 26.0187 17.5385 26.0187 17.5385C26.0187 17.5385 25.5562 18.4251 25.402 20.1211ZM18.233 18.6949C18.2715 19.1189 18.3101 19.4658 18.3101 19.4658C18.3101 19.4658 18.0403 19.1575 17.8475 18.6178C17.6548 18.1938 17.5392 17.5771 17.5777 16.8447C17.6203 16.2335 17.7783 15.8476 17.9279 15.4823C18.1839 14.857 18.4153 14.2917 18.0017 12.7588C18.4257 13.0672 19.3123 15.7654 18.4643 16.7676C18.1944 17.1145 18.1944 18.0396 18.233 18.6949ZM22.3774 23.2998L22.3775 23.2997C22.405 23.2521 22.4243 23.2187 22.4335 23.2049C22.4721 23.3976 22.4721 23.5518 22.4721 23.7445C22.4721 26.5969 20.1593 28.8712 17.3454 28.8712C14.493 28.8712 12.2188 26.5584 12.2188 23.7445C12.2188 23.4747 12.2188 23.2434 12.2573 23.0121V22.9736C12.2661 22.9868 12.2805 23.0147 12.3006 23.0537L12.3006 23.0538C12.4559 23.3548 12.9504 24.3139 13.8377 24.2456C13.9533 24.2456 14.069 24.13 14.0304 24.0529C13.3366 22.9736 13.8762 21.239 13.8762 21.239C13.8762 21.239 14.7628 23.5903 15.5337 23.4747C15.6494 23.4747 15.6879 23.3976 15.6879 23.2434C15.6879 23.1116 15.6101 22.8464 15.5135 22.5175C15.3558 21.9803 15.1483 21.2731 15.1483 20.6993C15.1483 20.3139 15.341 19.543 15.5337 18.8877L15.8806 17.8469C15.8806 17.8469 16.1119 18.2324 16.2276 18.6949C16.2363 18.7562 16.247 18.8193 16.2579 18.8836C16.2951 19.1027 16.3345 19.3343 16.3047 19.543C16.1119 21.7786 17.037 22.9736 17.1527 22.9736C17.4996 23.0121 18.1163 22.3954 18.5403 20.6993C18.5403 20.6993 19.0414 21.7401 19.0414 22.3568C19.0414 23.5289 18.7188 24.2653 18.491 24.7853C18.3666 25.0692 18.2705 25.2885 18.2705 25.4791C18.2705 25.5947 18.3091 25.6718 18.4247 25.6718C19.7353 25.6718 20.2364 23.1663 20.0051 21.9714C20.0431 22.1234 20.1976 22.3711 20.3812 22.6653L20.3812 22.6654L20.3812 22.6654C20.7562 23.2665 21.2523 24.0617 21.1229 24.6311C21.5299 24.7667 22.1756 23.6491 22.3774 23.2998Z" fill="#E4003E"/>
</mask>
<g mask="url(#mask0_2654_3286)">
<circle cx="17" cy="18" r="12" fill="#F5FF00"/>
</g>
</svg>
