<svg width="104" height="31" viewBox="0 0 104 31" fill="none" xmlns="http://www.w3.org/2000/svg">
<path d="M82.4512 13.7928H68.6267C68.5243 14.0324 68.5359 14.2662 68.5552 14.4923C68.5958 14.931 68.6267 15.3735 68.7175 15.8025C68.7755 16.075 68.9088 16.3397 69.0538 16.5813C69.2914 16.9735 69.6586 17.2132 70.0934 17.3542C70.7369 17.561 71.4036 17.6383 72.0741 17.6789C73.1486 17.7446 74.2249 17.7175 75.2974 17.6209C75.6066 17.5919 75.9177 17.5417 76.2192 17.4644C76.9883 17.2692 77.3284 16.8653 77.425 16.0808C77.4443 15.9262 77.4578 15.7716 77.4772 15.6034H82.4338C82.4396 15.6769 82.4531 15.7484 82.4493 15.816C82.428 16.1175 82.4164 16.4228 82.372 16.7223C82.2444 17.59 81.7362 18.2103 81.0425 18.6992C80.3313 19.1977 79.5236 19.4683 78.6907 19.6789C77.282 20.0345 75.8462 20.1466 74.4008 20.164C73.5737 20.1736 72.7447 20.191 71.9176 20.1717C70.3543 20.135 68.7948 20.019 67.2759 19.6132C66.818 19.4915 66.3696 19.3118 65.9368 19.1166C65.2314 18.7997 64.7329 18.2605 64.3754 17.5784C64.0121 16.8866 63.8169 16.1426 63.6874 15.3793C63.4923 14.2218 63.5077 13.0565 63.5541 11.8874C63.587 11.0719 63.7473 10.2854 64.0256 9.5202C64.4971 8.22742 65.386 7.36749 66.6923 6.92883C67.5059 6.65443 68.3426 6.49597 69.189 6.37616C71.1099 6.10755 73.0423 6.19065 74.9708 6.20611C76.2443 6.2177 77.4984 6.39549 78.7313 6.70661C79.3748 6.86893 79.999 7.09115 80.5439 7.48343C81.2415 7.98586 81.6666 8.68346 81.9507 9.47962C82.2039 10.1869 82.3295 10.9173 82.3681 11.6633C82.401 12.2778 82.4222 12.8942 82.4473 13.5087C82.4512 13.5899 82.4473 13.671 82.4473 13.7947L82.4512 13.7928ZM68.6422 11.727C71.6103 11.727 74.5534 11.727 77.5042 11.727C77.483 11.1357 77.4888 10.585 77.3322 10.0477C77.1796 9.52407 76.8607 9.15111 76.339 8.99459C75.9641 8.88251 75.5737 8.79748 75.1853 8.7511C73.9331 8.60037 72.6751 8.59071 71.419 8.69313C70.8876 8.73758 70.3639 8.8284 69.8596 9.01584C69.4113 9.18396 69.1059 9.48349 68.9282 9.92988C68.704 10.4961 68.646 11.0835 68.6441 11.727H68.6422Z" fill="#E4003E"/>
<path d="M87.9899 25.9999V23.6017C88.3049 23.6017 88.6064 23.5901 88.9059 23.6037C89.7581 23.6404 90.5523 23.4723 91.2576 22.9756C91.8528 22.5563 92.2664 21.9862 92.5562 21.3273C92.7108 20.9756 92.8306 20.6065 92.9601 20.2432C92.991 20.1582 92.9968 20.0654 93.0219 19.9475C92.1813 19.9726 91.3581 19.9958 90.5311 20.021C88.303 15.4469 86.0826 10.8922 83.8604 6.32979C84.1367 6.24476 88.6856 6.20998 89.161 6.28147C90.0016 8.20616 90.8499 10.1386 91.6924 12.0729C92.5311 13.9976 93.3659 15.9242 94.2355 17.8509C94.7128 16.5851 95.0761 15.2885 95.5186 14.0208C95.9611 12.7551 96.3901 11.4855 96.8249 10.2178C97.2617 8.94241 97.6984 7.66509 98.1428 6.36844H103.186C103.159 6.46119 103.14 6.53849 103.113 6.60999C102.068 9.41393 101.022 12.2198 99.9729 15.0237C99.1902 17.1146 98.4057 19.2036 97.6192 21.2906C97.3235 22.0751 96.9525 22.8191 96.4906 23.5225C95.6442 24.8114 94.4519 25.5631 92.9504 25.8395C91.3581 26.1332 89.7542 26.1718 88.1445 26.025C88.1001 26.0211 88.0556 26.0095 87.9919 25.9999H87.9899Z" fill="#E4003E"/>
<path d="M31.9189 15.6499H37.0399C37.0263 15.7484 37.0244 15.8277 37.0031 15.903C36.7635 16.7591 37.2099 17.1804 37.7548 17.447C38.2128 17.6712 38.7075 17.7833 39.21 17.849C40.1143 17.9688 41.0264 17.9379 41.9366 17.9224C42.6284 17.9108 43.3125 17.8606 43.985 17.6867C44.3502 17.592 44.7019 17.4625 45.0362 17.2828C46.041 16.7417 45.8555 15.4238 45.0845 14.9562C44.7888 14.7764 44.4758 14.6392 44.1376 14.5987C43.6371 14.5407 43.1308 14.5136 42.6265 14.4924C41.0747 14.4286 39.5211 14.3919 37.9693 14.3088C36.8118 14.247 35.662 14.104 34.549 13.7638C33.7142 13.5088 33.0146 13.0643 32.5702 12.2817C32.3306 11.8585 32.2069 11.4024 32.1566 10.9213C32.0948 10.3338 32.0813 9.74635 32.203 9.1647C32.4484 7.99558 33.1885 7.26706 34.2881 6.87285C35.0533 6.59844 35.8514 6.46704 36.6553 6.37815C39.1191 6.10181 41.5926 6.12694 44.0642 6.22356C45.1463 6.26607 46.2304 6.36462 47.2817 6.65255C47.6681 6.75884 48.0508 6.90377 48.4141 7.07382C48.9841 7.33856 49.3957 7.77915 49.6547 8.35308C49.904 8.90575 49.989 9.4932 50.0044 10.0903C49.8093 10.1599 45.7937 10.1734 45.1676 10.1077C45.1425 10.0208 45.1174 9.92606 45.0903 9.83138C45.0536 9.69804 45.0188 9.5647 44.9802 9.4333C44.8468 8.96372 44.5396 8.66806 44.0623 8.5869C43.6468 8.5154 43.2255 8.4555 42.8043 8.45163C41.6834 8.44004 40.5626 8.44004 39.4418 8.47676C38.8892 8.49415 38.3578 8.66033 37.8611 8.91928C37.3626 9.18015 37.1114 9.58016 37.1558 10.1483C37.1655 10.2758 37.1771 10.4053 37.1964 10.5309C37.2814 11.0527 37.5307 11.3174 38.0544 11.3908C38.5723 11.4623 39.094 11.5242 39.6158 11.5532C41.2042 11.6401 42.7927 11.6942 44.3811 11.7908C45.7203 11.872 47.0575 11.9841 48.3619 12.3319C48.6092 12.3976 48.8566 12.4788 49.0904 12.5793C49.8904 12.9232 50.3755 13.5551 50.5996 14.3706C50.8624 15.3291 50.8605 16.2972 50.5339 17.248C50.2131 18.1814 49.5523 18.8094 48.6769 19.2152C47.8788 19.5843 47.0208 19.7505 46.157 19.8877C44.4526 20.1582 42.7328 20.1756 41.0148 20.1659C40.0042 20.1601 38.9916 20.1524 37.9829 20.1002C36.8717 20.0423 35.7645 19.9225 34.6939 19.6017C34.2997 19.4838 33.9113 19.3292 33.548 19.1379C32.5972 18.6355 32.1006 17.8084 31.975 16.7572C31.9305 16.3958 31.9383 16.0286 31.9209 15.648L31.9189 15.6499Z" fill="#E4003E"/>
<path d="M18.5869 10.1346H13.7559C13.7327 10.065 13.7114 10.0051 13.696 9.94523C13.6708 9.84668 13.6515 9.74812 13.6303 9.64957C13.4834 8.97322 13.0583 8.60027 12.3742 8.52877C11.9452 8.48432 11.5143 8.43988 11.0833 8.43215C10.063 8.41476 9.04078 8.35099 8.02433 8.47852C7.60886 8.5307 7.19725 8.64278 6.79338 8.76066C6.48033 8.85148 6.21945 9.04279 5.99915 9.28821C5.83876 9.46599 5.73635 9.66696 5.74214 9.90851C5.74794 10.1462 5.75374 10.3878 5.79625 10.6196C5.87548 11.0564 6.15761 11.3134 6.59241 11.3868C6.90932 11.439 7.22817 11.4854 7.54895 11.5028C8.72386 11.5723 9.89877 11.6264 11.0737 11.6921C12.1288 11.752 13.1839 11.81 14.237 11.895C15.2168 11.9743 16.1907 12.1076 17.1395 12.3839C17.8623 12.5946 18.4671 12.9637 18.8613 13.6246C19.1048 14.0323 19.2807 14.4671 19.2961 14.9463C19.3135 15.4507 19.329 15.9589 19.2942 16.4613C19.2265 17.4237 18.7589 18.1831 18.0053 18.7706C17.4507 19.2015 16.8033 19.4353 16.1347 19.6131C15.2168 19.8566 14.2776 19.9725 13.3346 20.0556C11.3887 20.2276 9.43886 20.2083 7.49098 20.1561C6.14988 20.1213 4.81265 19.9861 3.50247 19.6692C3.0097 19.5513 2.5324 19.3948 2.09181 19.1339C1.20869 18.6102 0.721723 17.8237 0.565197 16.8246C0.520752 16.5348 0.516887 16.2391 0.50336 15.9473C0.499495 15.8507 0.522684 15.7521 0.532346 15.6517H5.63972C5.61074 15.7985 5.58562 15.9241 5.55856 16.0478C5.44648 16.5522 5.60494 16.9657 6.02234 17.2517C6.2523 17.4102 6.51897 17.528 6.78565 17.6227C7.26489 17.7928 7.76732 17.8565 8.27168 17.8991C9.41953 17.9957 10.5674 17.9841 11.7114 17.843C12.2872 17.7715 12.8554 17.6614 13.3849 17.4102C13.4757 17.3676 13.5646 17.3193 13.6515 17.2691C14.581 16.7435 14.4651 15.4739 13.6824 14.9676C13.2554 14.6912 12.78 14.5579 12.2756 14.5386C11.0254 14.4922 9.7751 14.469 8.52676 14.411C7.48132 14.3627 6.43395 14.299 5.39237 14.2004C4.51506 14.1173 3.63967 13.9782 2.81067 13.6555C1.76523 13.2477 1.07536 12.5018 0.814479 11.4023C0.741047 11.0931 0.733317 10.7646 0.72752 10.4457C0.721723 10.0418 0.700466 9.63024 0.771966 9.23796C0.957478 8.22151 1.55459 7.49106 2.47829 7.03888C3.10246 6.73356 3.78267 6.60215 4.46288 6.48814C5.81751 6.26204 7.18373 6.19441 8.55574 6.19828C9.85239 6.20214 11.149 6.18861 12.4438 6.2176C13.6766 6.24465 14.8999 6.38958 16.0941 6.71423C16.3666 6.78959 16.639 6.88621 16.8922 7.01182C17.7869 7.45434 18.3106 8.1848 18.4884 9.15874C18.5463 9.47179 18.614 9.78677 18.5811 10.1385L18.5869 10.1346Z" fill="#E4003E"/>
<path d="M59.5426 19.9997H54.6091C54.5569 19.7948 54.5376 0.955693 54.5878 0.547953C54.7908 0.491913 59.2353 0.480321 59.5426 0.538294V19.9977V19.9997Z" fill="#E4003E"/>
<path d="M23.167 6.3374H28.1062C28.1642 6.54031 28.1874 19.5397 28.1314 19.9745C27.9304 20.0266 23.4878 20.0402 23.167 19.9861V6.3374Z" fill="#E4003E"/>
<path d="M55.8476 30.3265C55.438 30.4019 55.0573 30.3575 54.6747 30.3652C54.5606 30.1217 54.5549 29.8744 54.5336 29.6309C54.5104 29.3758 54.5007 29.1168 54.4737 28.8618C54.4292 28.4521 54.1993 28.2028 53.7838 28.168C53.2621 28.1255 52.7384 28.1159 52.2166 28.0965C51.9132 28.0849 51.6098 28.083 51.3065 28.0791C51.235 28.0791 51.1635 28.0849 51.0649 28.0907V30.3536C50.7345 30.3806 50.4291 30.3691 50.1045 30.3633V25.082C50.1915 25.0762 50.2629 25.0646 50.3325 25.0665C51.4166 25.0684 52.5007 25.0742 53.5848 25.0762C54.0022 25.0762 54.4099 25.138 54.7925 25.3081C55.2718 25.5206 55.5462 25.8858 55.5655 26.4153C55.5848 26.9467 55.3781 27.3603 54.9027 27.625C54.8408 27.6598 54.7829 27.7004 54.7056 27.7468C54.8022 27.7951 54.8776 27.826 54.9491 27.8685C55.2254 28.0328 55.4012 28.2627 55.4225 28.597C55.4457 28.9642 55.4863 29.3294 55.5133 29.6946C55.5288 29.9033 55.5694 30.0966 55.78 30.2029C55.7993 30.2125 55.8051 30.2473 55.8457 30.3285L55.8476 30.3265ZM51.0668 27.4666C51.1461 27.4724 51.1905 27.4782 51.2369 27.4782C51.9074 27.4666 52.578 27.455 53.2466 27.4395C53.4205 27.4356 53.5944 27.4183 53.7684 27.3951C54.3152 27.3236 54.5896 26.9699 54.5471 26.4289C54.522 26.1139 54.3635 25.909 54.0737 25.8201C53.865 25.7564 53.6447 25.7081 53.4283 25.7023C52.6843 25.6829 51.9403 25.6829 51.1963 25.6771C51.1538 25.6771 51.1113 25.6926 51.0668 25.7023V27.4646V27.4666Z" fill="#E4003E"/>
<path d="M28.1375 3.25913H23.1963C23.1384 3.05623 23.1248 0.841676 23.1828 0.522827H28.1375V3.25913Z" fill="#E4003E"/>
<path d="M64.3176 26.6143C64.1862 26.0172 63.794 25.7312 63.2413 25.6269C62.7466 25.5322 62.2538 25.5264 61.7707 25.6829C61.6239 25.7312 61.4789 25.7989 61.3514 25.8839C61.1234 26.0366 61.0538 26.2704 61.0809 26.5351C61.106 26.7921 61.2837 26.9313 61.504 26.9892C61.9485 27.1032 62.3988 27.1883 62.8471 27.2868C63.3572 27.397 63.8713 27.4994 64.3795 27.6211C64.6423 27.683 64.8607 27.8279 65.0616 28.0153C65.4926 28.4173 65.5331 29.5149 64.8819 29.9497C64.5321 30.1835 64.1553 30.3478 63.7437 30.4154C63.05 30.5275 62.3524 30.5236 61.6567 30.4309C61.2026 30.371 60.7949 30.1816 60.4374 29.8937C60.0547 29.5845 59.8905 29.1748 59.877 28.6704C60.1707 28.5642 60.4625 28.6279 60.7562 28.6086C60.7775 28.6859 60.7987 28.7458 60.8103 28.8076C60.8818 29.2154 61.1195 29.5033 61.4944 29.6405C62.3176 29.942 63.1505 29.9226 63.9756 29.6289C64.1321 29.5729 64.2674 29.4782 64.3544 29.3236C64.5321 29.0086 64.4684 28.6472 64.1592 28.4501C63.993 28.3439 63.7959 28.2666 63.6027 28.224C62.9572 28.083 62.306 27.9709 61.6606 27.8337C61.392 27.7777 61.1176 27.7158 60.8721 27.6018C60.0528 27.2269 59.8769 26.2646 60.4895 25.5921C60.7717 25.2829 61.133 25.1071 61.535 25.0143C62.4258 24.8114 63.3031 24.8616 64.1631 25.1708C64.7544 25.3834 65.2027 25.9728 65.2046 26.6163H64.3157L64.3176 26.6143Z" fill="#E4003E"/>
<path d="M45.2721 25.0742H46.4006C47.22 26.8192 48.0354 28.5583 48.876 30.3497C48.6596 30.3574 48.4895 30.3652 48.3214 30.369C48.1572 30.3729 47.9929 30.369 47.8229 30.369C47.591 29.8531 47.3649 29.3526 47.133 28.8405C47.075 28.8366 47.0228 28.8289 46.9707 28.8289C46.1996 28.8289 45.4267 28.8347 44.6556 28.825C44.4721 28.8231 44.3793 28.8753 44.3059 29.0492C44.1223 29.4878 43.9117 29.9168 43.7107 30.3516H42.6846C43.5561 28.5757 44.4141 26.825 45.2721 25.0723V25.0742ZM46.7794 28.1699C46.4489 27.4028 46.1513 26.682 45.7919 25.9399C45.4151 26.682 45.073 27.3854 44.7426 28.1467C45.4344 28.1835 46.0818 28.1603 46.7794 28.168V28.1699Z" fill="#E4003E"/>
<path d="M38.5931 28.1294V30.3536C38.2549 30.3536 37.9438 30.3536 37.6346 30.3536C37.5709 30.1623 37.5438 25.681 37.6037 25.0897C37.6597 25.082 37.7196 25.0646 37.7796 25.0646C38.8636 25.0684 39.9497 25.0723 41.0337 25.08C41.4473 25.0839 41.8222 25.1979 42.1758 25.4259C42.8 25.8298 42.972 26.7264 42.543 27.3487C42.2125 27.8279 41.7371 28.0927 41.1458 28.1043C40.4018 28.1197 39.6579 28.1197 38.912 28.1275C38.8211 28.1275 38.7322 28.1275 38.5912 28.1275L38.5931 28.1294ZM38.6144 27.4356C38.6569 27.4472 38.6839 27.4627 38.709 27.4627C39.424 27.4569 40.141 27.4588 40.856 27.4376C41.0144 27.4337 41.1825 27.3757 41.3275 27.3042C41.6483 27.1477 41.7855 26.8675 41.7758 26.5158C41.7661 26.1699 41.5748 25.9535 41.2618 25.8414C41.1342 25.795 40.997 25.7467 40.8637 25.7409C40.1313 25.7158 39.397 25.7023 38.6646 25.6868C38.6511 25.6868 38.6356 25.7042 38.6124 25.7197V27.4337L38.6144 27.4356Z" fill="#E4003E"/>
<path d="M57.3474 25.0762H58.2382C58.2962 25.2733 58.3213 29.7758 58.2634 30.3691H57.3783C57.3126 30.1604 57.2875 25.6327 57.3474 25.0762Z" fill="#E4003E"/>
</svg>
