<svg width="58" height="35" viewBox="0 0 58 35" fill="none" xmlns="http://www.w3.org/2000/svg">
<path d="M33.4452 17.0786V11.2884C33.5554 11.2841 33.6614 11.2762 33.7673 11.2762C37.1565 11.2755 40.5458 11.2757 43.935 11.2757C45.474 11.2757 47.013 11.2778 48.552 11.2745C49.0912 11.2732 49.6276 11.2341 50.1496 11.085C50.3027 11.0411 50.4546 10.9896 50.6005 10.926C51.2923 10.6251 51.7429 10.1096 51.9313 9.37895C52.0893 8.76713 52.0981 8.14874 51.9518 7.53213C51.7956 6.87363 51.4028 6.41015 50.7806 6.14272C50.3426 5.9545 49.8796 5.8715 49.4083 5.84097C49.0226 5.81599 48.6353 5.8064 48.2488 5.80615C40.5958 5.80413 32.9426 5.80464 25.2896 5.80464H24.9258V0.00983965C25.0249 0.00655977 25.1223 0.000504597 25.2197 0.000504597C26.5569 0 27.8941 0 29.2313 0C36.1273 0 43.0237 0 49.9198 0.000252299C50.9436 0.000252299 51.9495 0.124888 52.9191 0.468519C54.5835 1.05839 55.8553 2.12335 56.6851 3.67978C57.6911 5.56672 57.9545 7.57704 57.5414 9.66859C57.323 10.7742 56.7676 11.7198 56.0327 12.5647C55.5175 13.1571 54.9334 13.6753 54.3176 14.1595C54.252 14.2112 54.1876 14.2645 54.0971 14.3376C54.1725 14.3921 54.2341 14.4408 54.2997 14.4837C54.9059 14.8813 55.4771 15.3218 55.984 15.8428C57.0563 16.9449 57.6179 18.2672 57.7029 19.7971C57.7874 21.315 57.577 22.7846 56.9342 24.1707C55.901 26.399 54.1523 27.718 51.7474 28.1808C51.1759 28.2908 50.5989 28.3349 50.0169 28.3347C42.6498 28.3334 35.2826 28.3339 27.9155 28.3339C27.8401 28.3339 27.7649 28.3339 27.6895 28.3339L27.6743 28.2945C27.752 28.2597 27.8292 28.2236 27.9074 28.1903C29.2711 27.6111 30.3666 26.7187 31.1222 25.4327C31.6119 24.5994 31.8615 23.6903 31.9579 22.7344C31.9637 22.6776 31.9735 22.6216 31.9851 22.5406H32.3164C37.6818 22.5406 43.0474 22.5404 48.4128 22.5411C49.019 22.5411 49.6238 22.5323 50.217 22.3867C50.3391 22.3567 50.4607 22.3229 50.5798 22.2823C51.3447 22.0216 51.8186 21.5006 51.9765 20.7046C52.0926 20.1188 52.0809 19.5332 51.9278 18.956C51.7262 18.1963 51.2461 17.6788 50.5197 17.3857C50.0383 17.1916 49.5327 17.1147 49.0188 17.0862C48.8175 17.0751 48.6154 17.0781 48.4135 17.0781C43.5358 17.0778 38.6579 17.0778 33.7802 17.0778C33.673 17.0778 33.5658 17.0778 33.4446 17.0778L33.4452 17.0786ZM34.3716 2.4859C34.391 2.4917 34.4104 2.49725 34.4296 2.50306V3.72065C34.5139 3.72797 34.5633 3.73579 34.6128 3.73579C34.6537 3.73579 34.6943 3.7262 34.7627 3.71712C34.7685 3.18149 34.7798 2.6509 34.7548 2.11552C34.6865 2.11048 34.6446 2.11048 34.604 2.10392C34.3731 2.06633 34.2104 2.14176 34.0825 2.34966C33.9437 2.57547 33.7673 2.77806 33.5965 3.00513C33.539 2.93625 33.4943 2.88781 33.4552 2.83533C33.3041 2.63349 33.1585 2.42762 33.0024 2.23007C32.96 2.17633 32.8916 2.12007 32.8285 2.11098C32.7001 2.09257 32.5672 2.10543 32.4324 2.10543V3.72443H32.7362C32.7753 3.30562 32.7218 2.8916 32.7743 2.43317C33.0798 2.80808 33.3107 3.16484 33.5938 3.50594C33.8683 3.14617 34.1201 2.81616 34.3718 2.4864L34.3716 2.4859ZM29.1886 2.12965C28.8296 2.07945 27.6446 2.09408 27.4629 2.1516C27.4629 2.40743 27.4614 2.6673 27.4634 2.92717C27.4654 3.19234 27.4533 3.45851 27.4737 3.7373C27.5921 3.732 27.6801 3.72797 27.7957 3.72267V3.04752C28.1348 3.00992 28.4532 3.06265 28.7776 3.01119C28.7723 2.91556 28.7685 2.84391 28.7627 2.7382H27.8V2.40087H29.1886V2.12965ZM32.0588 3.44035H30.7794V2.12385H30.4607V3.71964H32.0588V3.44009V3.44035ZM29.8716 2.12007H29.5686C29.5179 2.45941 29.5315 3.54934 29.5875 3.72443H29.8716V2.12007Z" fill="#E4003E"/>
<path d="M0.928805 0.019165H6.87271V0.349676C6.87271 6.12429 6.87271 11.8989 6.87271 17.6735C6.87271 18.304 6.87246 18.9343 6.87448 19.5647C6.87599 20.0126 6.93654 20.4526 7.07026 20.881C7.37352 21.8521 8.01058 22.4702 9.00817 22.7026C9.64043 22.8497 10.2775 22.8542 10.909 22.7134C11.9623 22.4785 12.5416 21.7764 12.7836 20.7594C12.8989 20.2742 12.9261 19.7792 12.9264 19.2824C12.9269 16.7355 12.9266 14.1888 12.9266 11.6418V11.3229C13.1274 11.2656 18.3251 11.2434 18.8455 11.2957C18.8493 11.3948 18.8569 11.4998 18.8569 11.6047C18.8577 14.1683 18.8564 16.7322 18.8584 19.2958C18.8589 19.8345 18.8912 20.3701 19.0348 20.8941C19.3083 21.8922 19.9587 22.6678 21.3597 22.7894C21.8143 22.8287 22.2685 22.8199 22.7153 22.7205C23.8887 22.4594 24.5475 21.6997 24.8008 20.552C24.8957 20.1223 24.9103 19.6866 24.9101 19.2489C24.9088 15.2731 24.9093 11.2972 24.9093 7.32145C24.9093 7.21296 24.9093 7.10447 24.9093 7.00052C25.1018 6.94325 30.3219 6.92054 30.8408 6.97353C30.8439 7.06612 30.8494 7.16351 30.8494 7.2609C30.8499 9.58911 30.8499 11.9176 30.8499 14.2458C30.8499 16.4481 30.8504 18.6502 30.8492 20.8525C30.8487 21.7582 30.7223 22.6456 30.4253 23.5031C29.7888 25.3424 28.551 26.64 26.8066 27.4695C25.8092 27.9438 24.7529 28.2014 23.6544 28.2966C22.488 28.3975 21.3362 28.3341 20.2075 28.0019C18.7159 27.5631 17.4783 26.7222 16.4179 25.6038C16.1818 25.3548 15.959 25.0931 15.708 24.8128C15.6479 24.8946 15.5939 24.9647 15.5435 25.0369C14.8395 26.0448 13.9742 26.8756 12.8837 27.4597C11.9351 27.9678 10.9163 28.2405 9.84857 28.3137C8.32822 28.4179 6.84244 28.2413 5.41972 27.6691C3.86304 27.0431 2.6235 26.0425 1.81034 24.5547C1.33223 23.6797 1.0653 22.7387 0.979265 21.7479C0.945205 21.3551 0.931076 20.9595 0.930824 20.5649C0.928048 13.8323 0.928805 7.09942 0.928805 0.366833V0.019165Z" fill="#E4003E"/>
<path d="M41.6555 34.8988V32.4328C41.7262 32.4278 41.7829 32.4199 41.8397 32.4199C42.4614 32.4192 43.083 32.4167 43.7044 32.4222C43.8286 32.4232 43.958 32.4394 44.0751 32.4785C44.557 32.6392 44.6778 33.1852 44.317 33.5434C44.2948 33.5656 44.2711 33.5863 44.2343 33.6206C44.3006 33.6668 44.3566 33.7003 44.4068 33.7412C44.7838 34.0483 44.6912 34.6646 44.2348 34.8259C44.0718 34.8834 43.8904 34.9104 43.7166 34.9131C43.0699 34.9232 42.423 34.9179 41.7761 34.9172C41.7438 34.9172 41.7113 34.9076 41.6553 34.8988H41.6555ZM42.0632 34.5218C42.1056 34.5327 42.1291 34.544 42.1528 34.544C42.6905 34.5445 43.2284 34.5461 43.766 34.5413C43.8478 34.5405 43.932 34.518 44.01 34.4908C44.145 34.4436 44.2065 34.3349 44.2053 34.1974C44.2043 34.0533 44.1503 33.9299 44.0029 33.8807C43.9166 33.852 43.823 33.8328 43.7327 33.832C43.2203 33.8275 42.7076 33.8295 42.1949 33.8305C42.1551 33.8305 42.1152 33.8406 42.0632 33.8477V34.5216V34.5218ZM42.0642 33.4382C42.1006 33.4511 42.1233 33.4665 42.1462 33.4665C42.6652 33.4685 43.1842 33.4725 43.7029 33.4662C43.7902 33.4652 43.8846 33.4309 43.9618 33.3875C44.0784 33.3216 44.1432 33.2124 44.1197 33.0719C44.097 32.9366 44.0198 32.8415 43.8823 32.8105C43.8013 32.7923 43.7176 32.7787 43.6348 32.7782C43.1744 32.7752 42.7139 32.7759 42.2537 32.7777C42.1904 32.7779 42.1273 32.7923 42.064 32.8001V33.438L42.0642 33.4382Z" fill="#E4003E"/>
<path d="M5.40446 32.4181C5.491 32.4181 5.5576 32.4181 5.62396 32.4181C5.69031 32.4181 5.75692 32.4181 5.86516 32.4181C5.5851 33.2598 5.31388 34.0752 5.03913 34.901H4.48761C4.27996 34.2316 4.07283 33.5635 3.86544 32.8957C3.84879 32.8977 3.83188 32.9 3.81523 32.902C3.61188 33.5653 3.40852 34.2286 3.2024 34.9015H2.66172C2.38848 34.0936 2.11247 33.2782 1.82812 32.4375H2.28529C2.48965 33.097 2.69755 33.7679 2.90544 34.4388C3.18221 33.7866 3.35655 33.1084 3.58337 32.4335H4.10764C4.31201 33.092 4.51914 33.7593 4.72653 34.4264C4.74621 34.4274 4.76614 34.4284 4.78582 34.4294C4.98918 33.7687 5.19228 33.1081 5.40471 32.4178L5.40446 32.4181Z" fill="#E4003E"/>
<path d="M19.866 32.4509C20.2308 32.3591 20.4698 32.4509 20.6693 32.7441C20.9047 33.0902 21.1926 33.4006 21.4585 33.7258C21.5102 33.7891 21.5663 33.8487 21.6351 33.9266C21.8201 33.7013 21.9899 33.4947 22.1594 33.2878C22.3456 33.0602 22.5401 32.8387 22.7147 32.6026C22.8214 32.4582 22.942 32.3937 23.1189 32.4191C23.1923 32.4297 23.2685 32.4209 23.3397 32.4209C23.3934 32.6152 23.4012 34.6131 23.351 34.897C23.3149 34.9028 23.2748 34.9146 23.2345 34.9149C23.1603 34.9154 23.0858 34.9093 22.9862 34.9048V32.9533C22.9524 32.9394 22.9448 32.9346 22.9367 32.9333C22.9292 32.9321 22.9171 32.9316 22.9133 32.9358C22.4887 33.4437 22.0648 33.9524 21.6187 34.4872C21.1906 33.9609 20.7705 33.4447 20.3504 32.9285C20.3348 32.9341 20.3191 32.9399 20.3032 32.9454V34.8922H19.8645C19.865 34.0682 19.863 33.2515 19.8658 32.4507L19.866 32.4509Z" fill="#E4003E"/>
<path d="M56.2579 32.9343C56.1191 33.0036 56.0091 33.0587 55.8893 33.1184C55.8547 33.093 55.8209 33.0703 55.7896 33.0443C55.3557 32.684 54.8617 32.6338 54.3417 32.7872C53.8896 32.9206 53.636 33.2701 53.6448 33.6934C53.6504 33.9634 53.7614 34.1786 53.9698 34.3464C54.3725 34.6708 55.1256 34.7152 55.5663 34.441C55.7455 34.3295 55.831 34.2215 55.9261 33.9692H54.7852V33.6051H56.4592C56.5079 33.7638 56.4549 33.9165 56.4075 34.0625C56.3013 34.3905 56.0823 34.6358 55.7742 34.7793C55.1157 35.0864 54.4517 35.0791 53.8164 34.7188C53.2992 34.4256 53.086 33.833 53.2661 33.2855C53.3506 33.0286 53.5164 32.8326 53.7324 32.6757C54.3798 32.2046 55.4205 32.2283 56.0429 32.7304C56.1126 32.7867 56.1734 32.8535 56.2576 32.9343H56.2579Z" fill="#E4003E"/>
<path d="M12.0647 34.8899V32.4342C12.1356 32.4279 12.1924 32.4188 12.2489 32.4186C12.7444 32.4178 13.2407 32.404 13.7354 32.4259C13.9653 32.436 14.2047 32.4855 14.4171 32.5722C14.8415 32.7458 15.0645 33.0877 15.1064 33.5451C15.1498 34.0209 14.9838 34.3999 14.5852 34.6714C14.3488 34.8323 14.0831 34.908 13.8013 34.9113C13.2553 34.9181 12.7093 34.9138 12.1634 34.9128C12.1394 34.9128 12.1154 34.902 12.0645 34.8894L12.0647 34.8899ZM12.4893 32.791V34.5435C12.9566 34.5435 13.4084 34.5535 13.8596 34.5407C14.2882 34.5283 14.616 34.2172 14.6588 33.8115C14.7103 33.3233 14.4699 32.9371 14.0324 32.8258C13.9037 32.793 13.7672 32.7819 13.634 32.7789C13.332 32.7721 13.0295 32.7758 12.7272 32.7774C12.6536 32.7776 12.5799 32.7857 12.4893 32.7912V32.791Z" fill="#E4003E"/>
<path d="M49.4431 32.4249C50.1541 32.4249 50.8502 32.4108 51.5455 32.43C51.9971 32.4423 52.2855 32.7597 52.2916 33.1881C52.2964 33.5267 52.1382 33.7609 51.8205 33.8857C51.7663 33.9072 51.7113 33.9271 51.6305 33.9579C51.8483 34.2652 52.06 34.5639 52.2734 34.8657C51.9661 34.9825 51.8475 34.9497 51.6714 34.707C51.5236 34.5034 51.376 34.2995 51.2286 34.0954C51.1789 34.0265 51.1297 33.9647 51.0291 33.9665C50.6516 33.9728 50.2742 33.9733 49.8967 33.9776C49.8829 33.9776 49.869 33.9927 49.8342 34.0129V34.8965H49.4547C49.4022 34.7209 49.3886 32.7504 49.4429 32.4257L49.4431 32.4249ZM49.8422 33.5734C49.9023 33.5812 49.9502 33.5926 49.9979 33.5928C50.4589 33.5938 50.9196 33.5938 51.3805 33.5921C51.4471 33.5918 51.5157 33.5878 51.5801 33.5724C51.7567 33.5305 51.8483 33.4145 51.8579 33.2323C51.872 32.9623 51.7428 32.8077 51.4259 32.7963C50.916 32.7782 50.4049 32.7923 49.8942 32.7943C49.8803 32.7943 49.8662 32.8107 49.8422 32.8258V33.5734Z" fill="#E4003E"/>
<path d="M8.40204 32.4327H10.9318V32.7766H8.80597V33.4233H10.2746V33.7896H8.8042V34.5409H11.0295V34.8992H8.41339C8.35789 34.7148 8.3478 32.7047 8.40229 32.4327H8.40204Z" fill="#E4003E"/>
<path d="M16.1924 32.4358H18.7351V32.7809H16.6188V33.4298H18.0786V33.7884H16.6379C16.5771 34.0437 16.6142 34.2753 16.6059 34.5352C16.8574 34.5556 17.0986 34.5432 17.3388 34.5453C17.5909 34.5475 17.8429 34.5458 18.095 34.5458H18.84V34.8985H16.1926V32.4358H16.1924Z" fill="#E4003E"/>
<path d="M32.8555 32.9475V34.8982H32.4531V32.4305C32.5992 32.4277 32.7486 32.4098 32.8931 32.4287C32.9645 32.4381 33.0369 32.5057 33.0919 32.5627C33.6288 33.119 34.1632 33.6784 34.6958 34.2387C34.7531 34.299 34.796 34.3729 34.8719 34.4761C34.966 34.2511 34.9239 34.0858 34.9312 33.9266C34.939 33.7589 34.933 33.5906 34.933 33.4225V32.4338H35.322V34.8892C35.0695 34.9336 34.8424 34.957 34.6289 34.7199C34.1286 34.164 33.6016 33.6325 33.0849 33.0915C33.0291 33.0332 32.9683 32.9793 32.91 32.9235C32.8919 32.9313 32.8735 32.9391 32.8553 32.947L32.8555 32.9475Z" fill="#E4003E"/>
<path d="M48.3936 34.547V34.8697C48.222 34.9297 46.0858 34.9471 45.751 34.8889V32.4406H48.2947C48.2992 32.493 48.3063 32.541 48.307 32.5892C48.3078 32.6389 48.3022 32.6886 48.2977 32.7751C47.5872 32.7928 46.8782 32.7718 46.1567 32.7872V33.4321H47.6326V33.7825C47.3871 33.8093 47.1374 33.7916 46.8891 33.7946C46.6479 33.7977 46.4067 33.7954 46.1542 33.7954V34.5389C46.5306 34.5561 46.9052 34.545 47.2792 34.547C47.6468 34.549 48.0143 34.5475 48.3938 34.5475L48.3936 34.547Z" fill="#E4003E"/>
<path d="M31.1784 34.9154C31.052 34.9154 30.9152 34.9353 30.7886 34.9086C30.7003 34.8899 30.6127 34.8195 30.5466 34.7512C30.015 34.2019 29.488 33.6481 28.9609 33.0943C28.9034 33.0338 28.8542 32.9651 28.772 32.865C28.6935 33.1289 28.7366 33.3428 28.7291 33.5525C28.721 33.779 28.7273 34.0059 28.7273 34.2327C28.7273 34.4595 28.7273 34.6656 28.7273 34.899H28.3632C28.3075 34.7196 28.2944 32.7424 28.3511 32.4214C28.4773 32.4214 28.6122 32.405 28.7404 32.4275C28.8214 32.4416 28.9059 32.4999 28.9652 32.5612C29.5029 33.1163 30.036 33.6759 30.5686 34.236C30.6261 34.2965 30.6723 34.3677 30.7482 34.4658C30.8378 34.2521 30.7956 34.0871 30.803 33.9282C30.8108 33.7606 30.8047 33.5923 30.8047 33.4243V32.4351H31.1731C31.2223 32.6235 31.2301 34.6361 31.1776 34.9159L31.1784 34.9154Z" fill="#E4003E"/>
<path d="M38.581 33.4184C38.7742 33.644 38.9534 33.8532 39.1615 34.0961C39.21 33.9912 39.2539 33.9162 39.2788 33.8355C39.3056 33.749 39.3139 33.6566 39.3313 33.5628H39.6729C39.6805 33.8665 39.5937 34.1229 39.4179 34.3734C39.547 34.5313 39.6777 34.6913 39.8102 34.8533C39.5334 34.9693 39.4133 34.9373 39.1431 34.6719C39.0853 34.7054 39.0228 34.7423 38.9599 34.7786C38.6499 34.9575 38.3216 34.9837 37.9871 34.8727C37.4742 34.7024 37.3112 34.058 37.6788 33.6599C37.7744 33.5562 37.8922 33.4732 38.0131 33.3692C37.9596 33.2903 37.901 33.2118 37.8511 33.128C37.6609 32.8084 37.7484 32.4423 38.0519 32.2786C38.3976 32.0919 38.8653 32.2198 39.0159 32.542C39.1201 32.765 39.0841 32.988 38.9014 33.1649C38.8118 33.2517 38.7054 33.3213 38.5812 33.4187L38.581 33.4184ZM38.9004 34.3598C38.6776 34.1047 38.4649 33.8615 38.258 33.6246C37.8024 33.859 37.8173 34.2104 37.9634 34.4014C38.1602 34.6587 38.5782 34.6502 38.9004 34.3598ZM38.3524 33.1793C38.4591 33.0988 38.5457 33.0478 38.6135 32.9789C38.7172 32.8735 38.7162 32.7171 38.6264 32.6171C38.5401 32.521 38.4011 32.4973 38.2835 32.5589C38.1596 32.6237 38.1057 32.7615 38.1682 32.9005C38.2081 32.989 38.2755 33.0652 38.3524 33.1795V33.1793Z" fill="#E4003E"/>
<path d="M25.5688 32.4436C25.5913 32.4348 25.5991 32.4295 25.6069 32.4287C25.9304 32.3981 26.1685 32.5236 26.3214 32.8054C26.6529 33.4175 26.9842 34.0293 27.315 34.6416C27.3543 34.7145 27.3897 34.7895 27.4469 34.9027C27.3069 34.907 27.1936 34.9209 27.0836 34.9085C27.038 34.9032 26.987 34.8487 26.9587 34.8041C26.8959 34.7054 26.8394 34.6012 26.7922 34.4943C26.7443 34.3853 26.6676 34.3532 26.5538 34.3542C26.0838 34.3585 25.6137 34.3598 25.1437 34.3535C25.0148 34.3517 24.9388 34.4004 24.8942 34.5155C24.879 34.5543 24.8566 34.5904 24.8372 34.6275C24.7251 34.8419 24.5314 34.9288 24.2559 34.8881C24.6926 34.0585 25.1381 33.2482 25.5693 32.4436H25.5688ZM25.1863 33.9854C25.6458 33.9897 26.0573 33.9882 26.5147 33.9871C26.2826 33.561 26.077 33.1833 25.8466 32.7605C25.6142 33.1916 25.4099 33.5703 25.1861 33.9854H25.1863Z" fill="#E4003E"/>
<path d="M7.13047 32.4384V34.8978H6.75V32.4384H7.13047Z" fill="#E4003E"/>
</svg>
